<svg xmlns="http://www.w3.org/2000/svg" xmlns:xlink="http://www.w3.org/1999/xlink" width="740" zoomAndPan="magnify" viewBox="0 0 555 350.250003" height="467" preserveAspectRatio="xMidYMid meet" version="1.0"><defs><filter x="0%" y="0%" width="100%" height="100%" id="33f3de5cec"><feColorMatrix values="0 0 0 0 1 0 0 0 0 1 0 0 0 0 1 0 0 0 1 0" color-interpolation-filters="sRGB"/></filter><clipPath id="0a91a24b9e"><path d="M 0.59375 0 L 554.40625 0 L 554.40625 349.5 L 0.59375 349.5 Z M 0.59375 0 " clip-rule="nonzero"/></clipPath><mask id="b99b0ca0f8"><g filter="url(#33f3de5cec)"><rect x="-55.5" width="666" fill="#000000" y="-35.025" height="420.300004" fill-opacity="0.95"/></g></mask><clipPath id="7e6a0389b2"><path d="M 0.59375 0 L 554.40625 0 L 554.40625 349.5 L 0.59375 349.5 Z M 0.59375 0 " clip-rule="nonzero"/></clipPath><clipPath id="7b33768973"><rect x="0" width="555" y="0" height="350"/></clipPath></defs><g clip-path="url(#0a91a24b9e)"><g mask="url(#b99b0ca0f8)"><g transform="matrix(1, 0, 0, 1, 0, -0.000000000000002072)"><g clip-path="url(#7b33768973)"><g clip-path="url(#7e6a0389b2)"><path fill="#1f2937" d="M 291.71875 0.390625 C 297.691406 0.5625 305.601562 1.21875 309.308594 1.863281 C 313.011719 2.507812 319.410156 4.0625 323.527344 5.328125 C 327.644531 6.59375 335.050781 9.660156 339.992188 12.148438 C 344.929688 14.625 350.992188 18.015625 353.460938 19.675781 C 355.933594 21.335938 360.78125 25.078125 364.246094 27.996094 C 367.703125 30.917969 372.597656 35.660156 375.121094 38.542969 C 377.636719 41.421875 381.527344 46.476562 383.75 49.769531 C 385.980469 53.0625 389.304688 58.785156 391.136719 62.492188 C 392.960938 66.195312 395.558594 72.59375 396.90625 76.710938 C 398.246094 80.828125 399.902344 87.054688 400.574219 90.554688 C 401.246094 94.058594 402.003906 100.792969 402.242188 105.523438 C 402.503906 110.5625 402.304688 117.859375 401.757812 123.113281 C 401.238281 128.050781 400.042969 135.289062 399.085938 139.203125 C 398.132812 143.117188 396.441406 148.839844 395.335938 151.925781 C 394.21875 155.015625 391.796875 160.570312 389.945312 164.273438 C 388.089844 167.976562 385.066406 173.367188 383.21875 176.246094 C 381.371094 179.128906 377.292969 184.660156 374.148438 188.527344 C 371.003906 192.40625 365.820312 198.046875 356.832031 206.558594 L 364.613281 215.726562 C 368.894531 220.769531 374.027344 226.449219 376.027344 228.351562 C 378.023438 230.253906 381.59375 233.367188 383.960938 235.273438 C 386.324219 237.183594 389.109375 238.910156 390.132812 239.113281 C 391.167969 239.316406 392.003906 239.824219 392.003906 240.234375 C 392.003906 240.648438 390.402344 240.976562 388.449219 240.96875 C 386.496094 240.960938 382.710938 240.496094 380.03125 239.929688 C 377.351562 239.359375 372.472656 238.003906 369.179688 236.914062 C 365.886719 235.820312 359.652344 233.15625 355.332031 230.992188 C 351.015625 228.828125 344.527344 225.140625 334.378906 218.53125 L 328.203125 221.136719 C 324.804688 222.566406 318.835938 224.558594 314.917969 225.550781 C 311.003906 226.554688 304.269531 227.789062 299.953125 228.292969 C 295.339844 228.828125 289.078125 229.015625 284.796875 228.734375 C 280.785156 228.476562 274.050781 227.59375 269.828125 226.78125 C 265.609375 225.964844 259.300781 224.316406 255.796875 223.132812 C 252.292969 221.945312 246.402344 219.519531 242.699219 217.738281 C 238.996094 215.964844 232.933594 212.484375 229.226562 210.007812 C 225.269531 207.359375 219.101562 202.089844 214.261719 197.234375 C 209.734375 192.691406 203.773438 185.773438 201.015625 181.859375 C 198.257812 177.945312 194.40625 171.71875 192.460938 168.015625 C 190.515625 164.3125 188 158.75 186.867188 155.667969 C 185.582031 152.125 184.644531 150.464844 184.347656 151.175781 C 184.085938 151.789062 183.972656 164.953125 184.324219 208.535156 L 186.570312 212.925781 C 188.359375 216.421875 189.503906 217.671875 192.183594 219.054688 C 194.039062 220.007812 197.5625 221.039062 200.035156 221.347656 C 204.15625 221.855469 204.515625 222.050781 204.53125 225.640625 L 128.570312 226.015625 L 128.757812 223.957031 C 128.929688 222.050781 129.25 221.863281 133.246094 221.339844 C 135.609375 221.03125 138.476562 220.304688 139.609375 219.722656 C 140.738281 219.136719 142.570312 217.707031 143.6875 216.542969 C 144.792969 215.375 146.222656 213.152344 146.867188 211.609375 C 147.890625 209.125 148.027344 198.054688 148.027344 114.503906 C 148.027344 30.871094 147.890625 19.890625 146.859375 17.398438 C 146.222656 15.859375 144.957031 13.792969 144.054688 12.8125 C 143.15625 11.832031 141.066406 10.410156 139.421875 9.648438 C 137.773438 8.882812 135.078125 8.253906 133.433594 8.238281 C 131.785156 8.226562 130 7.964844 129.460938 7.65625 C 128.921875 7.355469 128.582031 6.308594 128.941406 3.554688 L 204.15625 3.367188 L 204.15625 5.425781 C 204.15625 6.953125 203.722656 7.582031 202.472656 7.851562 C 201.546875 8.046875 199.695312 8.21875 198.355469 8.226562 C 197.015625 8.226562 194.34375 8.988281 192.421875 9.917969 C 190.453125 10.859375 188.140625 12.746094 187.144531 14.21875 C 185.882812 16.082031 185.175781 18.566406 184.699219 22.824219 C 184.332031 26.117188 184.03125 40.429688 184.023438 80.453125 L 186.652344 73.34375 C 188.097656 69.429688 190.648438 63.539062 192.324219 60.246094 C 193.992188 56.953125 197.0625 51.730469 199.136719 48.644531 C 201.207031 45.554688 204.996094 40.503906 207.546875 37.417969 C 210.097656 34.328125 214.34375 29.914062 216.96875 27.609375 C 219.597656 25.296875 224.273438 21.582031 227.355469 19.359375 C 230.441406 17.144531 235.164062 14.105469 237.835938 12.617188 C 240.507812 11.128906 245.730469 8.703125 249.433594 7.222656 C 253.140625 5.738281 259.367188 3.832031 263.28125 2.972656 C 267.195312 2.109375 272.746094 1.113281 275.628906 0.75 C 278.511719 0.382812 285.746094 0.222656 291.71875 0.390625 Z M 267.398438 10.859375 C 265.339844 11.5625 260.796875 13.597656 257.292969 15.394531 C 253.527344 17.324219 248.792969 20.609375 245.691406 23.433594 C 242.8125 26.050781 238.539062 30.691406 236.195312 33.746094 C 233.851562 36.792969 230.644531 41.648438 229.0625 44.53125 C 227.484375 47.410156 224.894531 52.800781 223.316406 56.503906 C 221.738281 60.207031 219.484375 66.945312 218.308594 71.472656 C 217.132812 76 215.644531 83.246094 215 87.5625 C 214.359375 91.878906 213.625 100.644531 213.378906 107.019531 C 213.117188 113.859375 213.296875 122.765625 213.820312 128.722656 C 214.304688 134.285156 215.382812 142.195312 216.207031 146.3125 C 217.035156 150.429688 218.902344 157.335938 220.34375 161.652344 C 221.789062 165.972656 224.28125 172.207031 225.867188 175.5 C 227.460938 178.792969 230.554688 184.15625 232.738281 187.421875 C 234.921875 190.683594 238.933594 195.734375 241.652344 198.648438 C 244.367188 201.558594 249.246094 205.78125 252.503906 208.039062 C 255.75 210.292969 261.363281 213.40625 264.964844 214.960938 C 268.796875 216.609375 274.386719 218.285156 278.433594 218.988281 C 283.074219 219.796875 287.828125 220.074219 292.84375 219.835938 C 296.980469 219.640625 303.171875 218.734375 306.6875 217.820312 C 310.183594 216.90625 315.488281 215.007812 318.476562 213.601562 C 321.460938 212.199219 323.90625 210.792969 323.914062 210.488281 C 323.921875 210.179688 323.003906 209.222656 321.859375 208.367188 C 320.71875 207.515625 316.753906 203.945312 313.050781 200.441406 C 309.34375 196.941406 302.773438 191.125 298.457031 187.527344 C 293.335938 183.261719 288.253906 179.824219 283.863281 177.65625 C 279.152344 175.328125 275.097656 173.957031 270.390625 173.097656 C 264.679688 172.054688 262.570312 172.003906 256.542969 172.746094 C 252.628906 173.222656 249.261719 173.449219 249.0625 173.246094 C 248.859375 173.042969 248.859375 172.773438 249.0625 172.648438 C 249.261719 172.511719 252.804688 170.710938 256.917969 168.628906 C 261.433594 166.355469 266.78125 164.324219 270.390625 163.523438 C 275.179688 162.460938 278.464844 162.273438 286.855469 162.597656 C 294.457031 162.882812 298.875 163.441406 302.945312 164.625 C 306.035156 165.523438 311.589844 167.828125 315.292969 169.75 C 319 171.667969 324.949219 175.433594 328.527344 178.109375 C 332.09375 180.789062 337.402344 185.085938 340.3125 187.660156 L 345.605469 192.339844 C 350.078125 185.085938 352.738281 180.289062 354.390625 176.996094 C 356.042969 173.703125 358.4375 167.976562 359.710938 164.273438 C 360.992188 160.570312 362.699219 154.507812 363.511719 150.800781 C 364.328125 147.097656 365.511719 140.109375 366.148438 135.273438 C 366.851562 129.921875 367.308594 120.761719 367.308594 111.886719 C 367.308594 102.867188 366.867188 94.074219 366.15625 88.871094 C 365.519531 84.238281 364.023438 76.75 362.832031 72.21875 C 361.632812 67.691406 359.757812 61.457031 358.65625 58.375 C 357.546875 55.285156 355.535156 50.570312 354.1875 47.898438 C 352.832031 45.226562 350.066406 40.675781 348.035156 37.792969 C 346.007812 34.914062 342.183594 30.40625 339.550781 27.78125 C 336.90625 25.152344 331.886719 21.121094 328.390625 18.816406 C 324.894531 16.507812 319.5 13.652344 316.417969 12.460938 C 313.324219 11.269531 307.773438 9.667969 304.066406 8.898438 C 299.699219 7.992188 294.445312 7.519531 289.101562 7.566406 C 284.574219 7.597656 278.683594 8.066406 276.003906 8.605469 C 273.332031 9.144531 269.453125 10.164062 267.398438 10.859375 Z M 554.40625 270.171875 L 554.40625 272.789062 C 554.40625 274.894531 554.070312 275.484375 552.722656 275.800781 C 551.796875 276.015625 427.269531 276.097656 0.96875 275.785156 L 0.734375 273.914062 C 0.609375 272.878906 0.683594 271.625 0.90625 271.105469 C 1.222656 270.359375 57.328125 270.171875 554.40625 270.171875 Z M 196.300781 301.117188 C 199.398438 301.261719 202.914062 301.972656 204.90625 302.847656 C 206.753906 303.664062 209.539062 305.40625 211.078125 306.707031 C 212.621094 308.019531 213.894531 309.507812 213.910156 310.023438 C 213.917969 310.539062 212.570312 311.886719 207.898438 315.074219 L 206.027344 313.203125 C 204.996094 312.171875 202.726562 310.667969 200.976562 309.851562 C 199.226562 309.035156 196.785156 308.371094 195.550781 308.363281 C 194.316406 308.355469 192.039062 308.683594 190.5 309.09375 C 188.957031 309.5 186.457031 310.929688 184.953125 312.269531 C 183.441406 313.609375 181.601562 316.046875 180.851562 317.695312 C 180.105469 319.339844 179.488281 322.371094 179.480469 324.429688 C 179.476562 326.488281 179.804688 329.4375 180.214844 330.980469 C 180.621094 332.519531 182.050781 335.019531 183.390625 336.523438 C 184.730469 338.035156 187.167969 339.878906 188.816406 340.625 C 190.460938 341.375 192.984375 341.996094 194.429688 342.011719 C 195.863281 342.023438 198.8125 341.523438 200.976562 340.902344 C 203.933594 340.058594 205.011719 339.351562 205.324219 338.089844 C 205.554688 337.160156 205.640625 335.066406 205.28125 330.453125 L 196.300781 330.417969 L 196.300781 322.933594 L 213.511719 322.933594 L 213.511719 332.894531 C 213.511719 342.632812 213.46875 342.886719 211.640625 344.300781 C 210.609375 345.09375 207.914062 346.476562 205.652344 347.367188 C 202.71875 348.527344 199.816406 349.015625 195.550781 349.058594 C 191.269531 349.113281 188.425781 348.699219 185.566406 347.628906 C 183.300781 346.785156 180.132812 344.757812 178.269531 342.953125 C 176.453125 341.203125 174.054688 337.835938 172.933594 335.46875 C 171.242188 331.898438 170.898438 330.140625 170.898438 325.179688 C 170.898438 320.210938 171.25 318.429688 172.972656 314.699219 C 174.117188 312.230469 175.964844 309.261719 177.074219 308.101562 C 178.179688 306.941406 180.261719 305.265625 181.707031 304.375 C 183.140625 303.488281 185.835938 302.335938 187.691406 301.8125 C 189.539062 301.296875 193.417969 300.976562 196.300781 301.117188 Z M 424.1875 301.125 C 428.824219 301.34375 430.628906 301.828125 434.597656 303.925781 C 437.722656 305.585938 440.277344 307.636719 441.9375 309.835938 C 443.328125 311.691406 444.960938 314.886719 445.558594 316.945312 C 446.160156 319.003906 446.644531 323.046875 446.644531 325.925781 C 446.636719 330.117188 446.210938 332.0625 444.511719 335.65625 C 443.335938 338.132812 440.988281 341.402344 439.273438 342.953125 C 437.558594 344.496094 435.230469 346.214844 434.101562 346.785156 C 432.972656 347.347656 430.1875 348.230469 427.929688 348.753906 C 425.578125 349.292969 422.210938 349.5 420.070312 349.238281 C 418.011719 348.984375 414.671875 348.175781 412.652344 347.449219 C 410.578125 346.710938 407.554688 344.75 405.730469 342.953125 C 403.941406 341.203125 401.769531 338.34375 400.902344 336.589844 C 400.027344 334.839844 399.09375 331.226562 398.824219 328.546875 C 398.546875 325.867188 398.582031 322.171875 398.90625 320.3125 C 399.21875 318.457031 400.328125 315.179688 401.359375 313.015625 C 402.707031 310.179688 404.421875 308.203125 407.496094 305.90625 C 409.847656 304.15625 413.296875 302.308594 415.167969 301.792969 C 417.039062 301.28125 421.09375 300.976562 424.1875 301.125 Z M 411.972656 313.015625 C 409.359375 315.589844 408.605469 316.960938 408.011719 320.203125 C 407.617188 322.402344 407.382812 325.679688 407.503906 327.5 C 407.625 329.308594 408.351562 332.054688 409.113281 333.597656 C 409.882812 335.140625 411.566406 337.332031 412.855469 338.460938 C 414.148438 339.59375 416.632812 340.894531 418.386719 341.34375 C 420.136719 341.800781 422.742188 342.019531 424.1875 341.832031 C 425.621094 341.644531 428.136719 340.851562 429.761719 340.070312 C 431.386719 339.285156 433.660156 337.300781 434.820312 335.65625 C 435.980469 334.011719 437.269531 330.980469 437.695312 328.921875 C 438.113281 326.863281 438.253906 323.832031 438.007812 322.183594 C 437.769531 320.539062 436.832031 317.859375 435.929688 316.234375 C 435.03125 314.609375 432.941406 312.320312 431.296875 311.160156 C 429.148438 309.632812 427.140625 308.945312 424.1875 308.714844 C 421.917969 308.535156 418.976562 308.714844 417.636719 309.109375 C 416.296875 309.507812 413.753906 311.265625 411.972656 313.015625 Z M 534.574219 300.914062 C 536.632812 300.871094 540 301.335938 542.058594 301.933594 C 544.117188 302.53125 547.148438 304.199219 551.789062 308.234375 L 546.21875 313.953125 L 544.511719 312.3125 C 543.578125 311.40625 541.542969 310.144531 540 309.507812 C 538.457031 308.863281 536.183594 308.339844 534.949219 308.339844 C 533.714844 308.339844 531.5 308.929688 530.023438 309.648438 C 528.550781 310.367188 527.15625 311.632812 526.941406 312.457031 C 526.714844 313.277344 526.746094 314.542969 527 315.261719 C 527.253906 315.980469 528.21875 317.058594 529.148438 317.648438 C 530.078125 318.242188 533.527344 319.445312 536.820312 320.320312 C 540.113281 321.195312 544.320312 322.746094 546.175781 323.757812 C 548.023438 324.765625 550.304688 326.675781 551.25 328 C 552.492188 329.765625 552.960938 331.53125 553.007812 334.535156 C 553.042969 336.792969 552.574219 339.660156 551.96875 340.894531 C 551.359375 342.128906 549.8125 344.066406 548.515625 345.199219 C 547.230469 346.328125 544.234375 347.804688 541.871094 348.476562 C 538.894531 349.320312 536.242188 349.546875 533.265625 349.226562 C 530.898438 348.960938 527.359375 348.078125 525.40625 347.265625 C 523.453125 346.441406 520.503906 344.398438 515.863281 339.683594 L 518.484375 337.503906 C 519.921875 336.300781 521.523438 335.3125 522.039062 335.304688 C 522.554688 335.289062 523.140625 335.785156 523.347656 336.40625 C 523.550781 337.027344 525.152344 338.367188 526.902344 339.390625 C 528.65625 340.417969 531.769531 341.472656 533.824219 341.734375 C 536.503906 342.085938 538.316406 341.882812 540.1875 341.039062 C 541.625 340.386719 543.253906 338.90625 543.800781 337.75 C 544.355469 336.597656 544.609375 334.902344 544.363281 333.972656 C 544.125 333.042969 543.171875 331.785156 542.246094 331.179688 C 541.316406 330.574219 537.53125 329.226562 533.824219 328.179688 C 530.121094 327.140625 525.660156 325.449219 523.910156 324.421875 C 522.160156 323.398438 520.183594 321.464844 519.515625 320.128906 C 518.828125 318.742188 518.339844 316.078125 518.394531 313.953125 C 518.445312 311.730469 519.050781 309.296875 519.882812 307.964844 C 520.652344 306.730469 522.59375 304.898438 524.1875 303.894531 C 525.78125 302.890625 527.929688 301.820312 528.960938 301.53125 C 529.988281 301.230469 532.515625 300.953125 534.574219 300.914062 Z M 0.59375 301.605469 L 8.824219 301.605469 L 8.824219 348.003906 L 0.59375 348.003906 Z M 26.039062 301.605469 L 33.523438 301.605469 L 58.59375 333.671875 L 58.90625 301.605469 L 67.199219 301.605469 L 67.199219 348.003906 L 59.34375 348.058594 L 52.605469 339.347656 C 48.902344 334.546875 43.339844 327.386719 34.644531 316.207031 L 34.269531 348.003906 L 26.039062 348.003906 Z M 118.089844 301.605469 L 118.089844 305.347656 C 118.089844 307.816406 117.769531 309.101562 117.15625 309.140625 C 116.640625 309.164062 113.273438 309.164062 103.125 309.089844 L 103.125 348.003906 L 94.890625 348.003906 L 94.515625 309.460938 L 80.671875 309.089844 L 80.558594 307.03125 C 80.492188 305.898438 80.386719 304.46875 80.320312 303.847656 C 80.253906 303.226562 80.320312 302.472656 80.46875 302.164062 C 80.617188 301.859375 89.152344 301.605469 118.089844 301.605469 Z M 129.316406 301.605469 L 161.5 301.605469 L 161.5 309.089844 L 137.550781 309.089844 L 137.925781 321.167969 L 157.382812 321.5625 L 157.757812 329.292969 L 137.925781 329.292969 L 137.925781 340.632812 L 161.125 340.894531 L 161.5 348.003906 L 129.316406 348.003906 Z M 229.601562 301.605469 L 240.453125 301.605469 C 246.417969 301.605469 252.734375 301.949219 254.488281 302.359375 C 256.238281 302.777344 259.097656 304.289062 260.847656 305.726562 C 262.863281 307.382812 264.34375 309.371094 264.875 311.144531 C 265.339844 312.6875 265.585938 315.464844 265.414062 317.320312 C 265.25 319.191406 264.269531 322.019531 263.207031 323.683594 C 262.046875 325.507812 260.078125 327.257812 254.996094 329.667969 L 261.011719 338.460938 C 264.3125 343.296875 267.023438 347.511719 267.023438 347.816406 C 267.023438 348.125 264.917969 348.273438 257.667969 347.914062 L 252.242188 339.726562 C 249.253906 335.222656 246.398438 331.519531 245.878906 331.488281 C 245.363281 331.457031 243.425781 331.375 238.210938 331.164062 L 237.835938 348.003906 L 229.601562 348.003906 Z M 237.835938 324.054688 C 247.472656 324.054688 250.757812 323.628906 252.242188 322.964844 C 253.582031 322.355469 255.117188 321.09375 255.652344 320.15625 C 256.191406 319.214844 256.53125 317.125 256.402344 315.523438 C 256.230469 313.347656 255.632812 312.203125 254.058594 311.035156 C 252.347656 309.761719 250.625 309.410156 244.96875 309.199219 L 237.984375 308.945312 Z M 303.082031 301.976562 L 306.269531 310.210938 C 308.019531 314.738281 312.113281 324.925781 315.367188 332.84375 C 318.617188 340.761719 321.109375 347.382812 320.90625 347.554688 C 320.699219 347.726562 318.675781 347.96875 312.300781 348.296875 L 308.386719 337.902344 L 289.113281 337.902344 L 285.238281 347.628906 L 280.933594 348.003906 C 278.570312 348.207031 276.570312 348.296875 276.503906 348.199219 C 276.4375 348.101562 280.277344 338.171875 285.035156 326.121094 C 289.796875 314.078125 293.933594 303.617188 294.226562 302.875 C 294.660156 301.761719 295.476562 301.566406 303.082031 301.976562 Z M 292.09375 329.894531 C 302.707031 330.3125 305.175781 330.132812 305.152344 329.667969 C 305.128906 329.257812 303.6875 325.117188 301.949219 320.472656 L 298.792969 312.023438 Z M 323.816406 301.605469 L 362.816406 301.605469 L 362.816406 309.089844 L 347.847656 309.089844 L 347.675781 325.367188 C 347.585938 334.316406 347.503906 343.074219 347.476562 347.996094 L 338.867188 348.003906 L 338.867188 309.460938 L 324.273438 309.230469 Z M 374.867188 301.53125 L 383.398438 301.976562 L 383.398438 347.628906 L 374.792969 348.003906 Z M 461.605469 301.605469 L 469.464844 301.632812 L 480.855469 316.398438 C 487.117188 324.519531 492.761719 331.839844 493.390625 332.664062 C 494.421875 334.015625 494.527344 332.65625 494.355469 301.976562 L 502.765625 301.605469 L 502.765625 348.003906 L 495.097656 348.378906 L 489.011719 340.421875 C 485.667969 336.054688 480.070312 328.726562 470.210938 315.839844 L 469.839844 348.003906 L 461.605469 348.003906 Z M 461.605469 301.605469 " fill-opacity="1" fill-rule="evenodd"/></g></g></g></g></g></svg>