<svg xmlns="http://www.w3.org/2000/svg" xmlns:xlink="http://www.w3.org/1999/xlink" width="1024" zoomAndPan="magnify" viewBox="0 0 768 767.999994" height="1024" preserveAspectRatio="xMidYMid meet" version="1.0"><defs><g/><clipPath id="27e05f553b"><path d="M 186 186.039062 L 582 186.039062 L 582 582 L 186 582 Z M 186 186.039062 " clip-rule="nonzero"/></clipPath><clipPath id="b5038c99df"><path d="M 596 379 L 603.402344 379 L 603.402344 387 L 596 387 Z M 596 379 " clip-rule="nonzero"/></clipPath><clipPath id="ccb18ddbf8"><path d="M 596 473 L 603.402344 473 L 603.402344 480 L 596 480 Z M 596 473 " clip-rule="nonzero"/></clipPath><clipPath id="d2665df90f"><path d="M 164.652344 379 L 172 379 L 172 387 L 164.652344 387 Z M 164.652344 379 " clip-rule="nonzero"/></clipPath><clipPath id="e8d36c2959"><path d="M 164.652344 473 L 172 473 L 172 480 L 164.652344 480 Z M 164.652344 473 " clip-rule="nonzero"/></clipPath><clipPath id="66d02b0cdd"><rect x="0" width="468" y="0" height="55"/></clipPath><clipPath id="99a22b478c"><rect x="0" width="111" y="0" height="19"/></clipPath></defs><g clip-path="url(#27e05f553b)"><path fill="#f5ece6" d="M 559.652344 474.851562 C 550.261719 493.011719 538.15625 509.507812 523.765625 523.808594 C 487.96875 559.605469 438.570312 581.714844 383.910156 581.714844 C 329.339844 581.714844 279.851562 559.605469 244.054688 523.808594 C 229.753906 509.507812 217.558594 493.011719 208.171875 474.851562 L 213.785156 474.851562 C 222.734375 491.609375 234.140625 506.964844 247.566406 520.300781 C 282.484375 555.21875 330.652344 576.714844 383.824219 576.714844 C 436.992188 576.714844 485.25 555.132812 520.082031 520.300781 C 533.417969 506.964844 544.824219 491.609375 553.859375 474.851562 Z M 384 186.28125 C 438.570312 186.28125 488.054688 208.390625 523.855469 244.1875 C 559.652344 279.984375 581.761719 329.382812 581.761719 384.042969 L 581.761719 384.746094 L 576.761719 384.746094 C 576.761719 384.480469 576.761719 384.304688 576.761719 384.042969 C 576.761719 330.785156 555.175781 282.617188 520.34375 247.785156 C 485.425781 212.863281 437.257812 191.28125 384 191.28125 C 330.742188 191.28125 282.574219 212.863281 247.742188 247.695312 C 212.820312 282.617188 191.324219 330.785156 191.324219 383.953125 C 191.324219 384.21875 191.324219 384.394531 191.324219 384.65625 L 186.324219 384.65625 C 186.324219 384.394531 186.324219 384.21875 186.324219 383.953125 C 186.324219 329.382812 208.433594 279.898438 244.230469 244.101562 C 279.941406 208.390625 329.425781 186.28125 384 186.28125 Z M 384 186.28125 " fill-opacity="1" fill-rule="nonzero"/></g><path fill="#f5ece6" d="M 551.402344 474.851562 C 542.628906 490.996094 531.574219 505.734375 518.675781 518.632812 C 484.195312 553.113281 436.640625 574.433594 384 574.433594 C 331.445312 574.433594 283.800781 553.113281 249.320312 518.632812 C 236.421875 505.734375 225.367188 490.996094 216.59375 474.851562 L 221.332031 474.851562 C 229.753906 489.855469 240.195312 503.628906 252.214844 515.738281 C 285.90625 549.429688 332.496094 570.3125 383.910156 570.3125 C 435.324219 570.3125 481.914062 549.429688 515.605469 515.738281 C 527.714844 503.628906 538.15625 489.941406 546.488281 474.851562 Z M 384 193.648438 C 436.554688 193.648438 484.195312 214.96875 518.675781 249.453125 C 553.160156 283.933594 574.480469 331.488281 574.480469 384.128906 C 574.480469 384.394531 574.480469 384.570312 574.480469 384.832031 L 570.265625 384.832031 C 570.265625 384.570312 570.265625 384.394531 570.265625 384.128906 C 570.265625 332.714844 549.386719 286.125 515.695312 252.433594 C 482.003906 218.65625 435.414062 197.773438 384 197.773438 C 332.585938 197.773438 285.996094 218.65625 252.304688 252.347656 C 218.613281 286.039062 197.730469 332.628906 197.730469 384.042969 C 197.730469 384.304688 197.730469 384.480469 197.730469 384.746094 L 193.605469 384.746094 C 193.605469 384.480469 193.605469 384.304688 193.605469 384.042969 C 193.605469 331.488281 214.925781 283.84375 249.410156 249.363281 C 283.800781 214.96875 331.445312 193.648438 384 193.648438 Z M 384 193.648438 " fill-opacity="1" fill-rule="nonzero"/><path fill="#f5ece6" d="M 167.898438 381.148438 L 600.097656 381.148438 L 600.097656 384.746094 L 167.898438 384.746094 Z M 167.898438 381.148438 " fill-opacity="1" fill-rule="evenodd"/><path fill="#f5ece6" d="M 167.898438 474.851562 L 600.097656 474.851562 L 600.097656 478.449219 L 167.898438 478.449219 Z M 167.898438 474.851562 " fill-opacity="1" fill-rule="evenodd"/><g clip-path="url(#b5038c99df)"><path fill="#f5ece6" d="M 600.097656 379.742188 C 601.851562 379.742188 603.34375 381.234375 603.34375 382.988281 C 603.34375 384.746094 601.851562 386.234375 600.097656 386.234375 C 598.34375 386.234375 596.851562 384.746094 596.851562 382.988281 C 596.851562 381.148438 598.34375 379.742188 600.097656 379.742188 Z M 600.097656 379.742188 " fill-opacity="1" fill-rule="evenodd"/></g><g clip-path="url(#ccb18ddbf8)"><path fill="#f5ece6" d="M 600.097656 473.449219 C 601.851562 473.449219 603.34375 474.9375 603.34375 476.695312 C 603.34375 478.449219 601.851562 479.941406 600.097656 479.941406 C 598.34375 479.941406 596.851562 478.449219 596.851562 476.695312 C 596.851562 474.851562 598.34375 473.449219 600.097656 473.449219 Z M 600.097656 473.449219 " fill-opacity="1" fill-rule="evenodd"/></g><g clip-path="url(#d2665df90f)"><path fill="#f5ece6" d="M 167.898438 379.742188 C 169.652344 379.742188 171.144531 381.234375 171.144531 382.988281 C 171.144531 384.746094 169.652344 386.234375 167.898438 386.234375 C 166.144531 386.234375 164.652344 384.746094 164.652344 382.988281 C 164.652344 381.148438 166.144531 379.742188 167.898438 379.742188 Z M 167.898438 379.742188 " fill-opacity="1" fill-rule="evenodd"/></g><g clip-path="url(#e8d36c2959)"><path fill="#f5ece6" d="M 167.898438 473.449219 C 169.652344 473.449219 171.144531 474.9375 171.144531 476.695312 C 171.144531 478.449219 169.652344 479.941406 167.898438 479.941406 C 166.144531 479.941406 164.652344 478.449219 164.652344 476.695312 C 164.652344 474.851562 166.144531 473.449219 167.898438 473.449219 Z M 167.898438 473.449219 " fill-opacity="1" fill-rule="evenodd"/></g><path fill="#f5ece6" d="M 287.3125 527.40625 C 288.976562 527.40625 290.382812 528.808594 290.382812 530.476562 C 290.382812 532.144531 288.976562 533.546875 287.3125 533.546875 C 285.644531 533.546875 284.242188 532.144531 284.242188 530.476562 C 284.242188 528.722656 285.644531 527.40625 287.3125 527.40625 Z M 287.3125 527.40625 " fill-opacity="1" fill-rule="evenodd"/><path fill="#f5ece6" d="M 287.3125 532.847656 C 278.449219 527.054688 270.113281 520.476562 262.394531 513.191406 C 251.164062 502.578125 241.25 490.46875 233 477.21875 L 236.335938 475.113281 C 244.320312 488.101562 253.96875 499.855469 265.027344 510.296875 C 271.957031 516.789062 279.328125 522.757812 287.222656 528.019531 L 287.222656 532.847656 Z M 480.6875 528.019531 C 488.582031 522.757812 495.953125 516.789062 502.882812 510.296875 C 513.9375 499.855469 523.589844 488.101562 531.574219 475.113281 L 534.910156 477.21875 C 526.75 490.46875 516.835938 502.578125 505.515625 513.191406 C 497.796875 520.476562 489.460938 527.054688 480.597656 532.847656 L 480.597656 528.019531 Z M 480.6875 528.019531 " fill-opacity="1" fill-rule="nonzero"/><path fill="#f5ece6" d="M 480.6875 527.40625 C 479.019531 527.40625 477.617188 528.808594 477.617188 530.476562 C 477.617188 532.144531 479.019531 533.546875 480.6875 533.546875 C 482.351562 533.546875 483.757812 532.144531 483.757812 530.476562 C 483.757812 528.722656 482.351562 527.40625 480.6875 527.40625 Z M 480.6875 527.40625 " fill-opacity="1" fill-rule="evenodd"/><path fill="#f5ece6" d="M 384.613281 255.59375 L 500.253906 381.148438 L 492.96875 381.148438 L 384.613281 263.488281 L 276.257812 381.148438 L 268.972656 381.148438 Z M 384.613281 244.976562 L 509.992188 381.148438 L 504.8125 381.148438 L 384.613281 250.679688 L 264.410156 381.148438 L 259.234375 381.148438 Z M 265.027344 383.953125 L 253.445312 383.953125 L 384.613281 241.554688 L 515.78125 383.953125 L 478.582031 383.953125 L 377.15625 274.984375 L 276.871094 383.953125 Z M 265.027344 383.953125 " fill-opacity="1" fill-rule="evenodd"/><path fill="#f5ece6" d="M 522.625 294.023438 C 528.589844 306.042969 534.382812 317.535156 539.910156 328.679688 C 545.175781 339.296875 550.351562 349.5625 555.265625 359.386719 L 553.332031 359.386719 C 548.683594 350.175781 543.945312 340.613281 538.945312 330.785156 C 533.679688 320.34375 528.242188 309.550781 522.625 298.410156 C 516.835938 309.378906 510.867188 320.695312 504.640625 332.628906 C 500.867188 339.820312 497.003906 347.28125 492.96875 354.824219 L 491.304688 352.984375 L 503.324219 330.257812 C 510.078125 317.710938 516.484375 305.605469 522.625 294.023438 Z M 522.625 288.054688 C 529.117188 301.128906 535.347656 313.765625 541.3125 325.871094 C 547.105469 337.542969 552.632812 348.683594 557.984375 359.476562 L 556.578125 359.476562 C 551.492188 349.210938 546.140625 338.507812 540.613281 327.363281 C 534.820312 315.78125 528.855469 303.761719 522.714844 291.214844 C 516.308594 303.234375 509.640625 315.78125 502.707031 328.855469 C 498.761719 336.3125 494.636719 344.035156 490.425781 351.84375 L 489.195312 350.527344 C 493.496094 342.542969 497.621094 334.734375 501.742188 327.101562 C 508.9375 313.589844 515.957031 300.515625 522.625 288.054688 Z M 551.667969 359.476562 L 522.625 301.394531 L 512.359375 321.398438 L 521.222656 307.445312 L 546.839844 359.386719 L 551.667969 359.386719 Z M 447.082031 304.902344 L 520.519531 288.496094 L 487.96875 349.386719 Z M 447.082031 304.902344 " fill-opacity="1" fill-rule="evenodd"/><path fill="#f5ece6" d="M 521.746094 345.699219 C 522.886719 345.789062 524.027344 345.789062 525.082031 345.875 C 526.136719 345.964844 527.1875 345.964844 528.152344 346.050781 C 528.152344 347.191406 528.152344 348.421875 528.152344 349.5625 C 528.152344 350.703125 528.152344 351.929688 528.152344 353.070312 C 527.101562 353.070312 526.136719 353.160156 525.082031 353.160156 C 524.027344 353.160156 522.886719 353.246094 521.746094 353.246094 C 521.746094 351.929688 521.746094 350.703125 521.746094 349.386719 C 521.746094 348.246094 521.746094 346.929688 521.746094 345.699219 Z M 512.710938 355 C 514.113281 354.914062 515.429688 354.914062 516.835938 354.824219 C 518.152344 354.738281 519.378906 354.738281 520.605469 354.648438 C 520.605469 355.964844 520.605469 357.28125 520.605469 358.597656 C 520.605469 359.914062 520.605469 361.230469 520.605469 362.546875 C 519.378906 362.722656 518.152344 362.898438 516.835938 363.074219 C 515.519531 363.25 514.113281 363.421875 512.710938 363.597656 C 512.710938 362.195312 512.710938 360.703125 512.710938 359.300781 C 512.710938 357.808594 512.710938 356.40625 512.710938 355 Z M 521.746094 354.5625 C 522.886719 354.472656 524.027344 354.472656 525.082031 354.386719 C 526.136719 354.300781 527.1875 354.300781 528.152344 354.210938 C 528.152344 355.441406 528.152344 356.582031 528.152344 357.808594 C 528.152344 359.035156 528.152344 360.175781 528.152344 361.40625 C 527.101562 361.582031 526.136719 361.667969 524.996094 361.84375 C 523.941406 362.019531 522.800781 362.109375 521.660156 362.285156 C 521.660156 360.96875 521.660156 359.738281 521.660156 358.421875 C 521.746094 357.105469 521.746094 355.789062 521.746094 354.5625 Z M 512.710938 345.175781 C 514.113281 345.261719 515.429688 345.351562 516.746094 345.4375 C 518.0625 345.523438 519.292969 345.613281 520.433594 345.613281 C 520.433594 346.929688 520.433594 348.15625 520.433594 349.472656 C 520.433594 350.789062 520.433594 352.019531 520.433594 353.332031 C 519.203125 353.332031 517.976562 353.421875 516.660156 353.421875 C 515.34375 353.421875 513.9375 353.507812 512.625 353.597656 C 512.625 352.191406 512.625 350.789062 512.625 349.386719 C 512.710938 347.980469 512.710938 346.578125 512.710938 345.175781 Z M 512.710938 345.175781 " fill-opacity="1" fill-rule="evenodd"/><path fill="#f5ece6" d="M 245.371094 294.023438 C 239.40625 306.042969 233.617188 317.535156 228.089844 328.679688 C 222.824219 339.296875 217.648438 349.5625 212.734375 359.386719 L 214.664062 359.386719 C 219.3125 350.175781 224.050781 340.613281 229.054688 330.785156 C 234.316406 320.34375 239.757812 309.550781 245.371094 298.410156 C 251.164062 309.378906 257.128906 320.695312 263.359375 332.628906 C 267.308594 340.085938 271.34375 347.71875 275.464844 355.613281 L 277.132812 353.773438 C 272.835938 345.699219 268.710938 337.890625 264.675781 330.257812 C 257.917969 317.710938 251.515625 305.605469 245.371094 294.023438 Z M 321.878906 305.164062 L 247.476562 288.582031 L 280.46875 350.261719 Z M 245.371094 288.054688 C 238.878906 301.128906 232.648438 313.765625 226.683594 325.871094 C 220.894531 337.542969 215.367188 348.683594 210.015625 359.476562 L 211.417969 359.476562 C 216.507812 349.210938 221.859375 338.507812 227.386719 327.363281 C 233.175781 315.78125 239.144531 303.761719 245.285156 291.214844 C 251.691406 303.234375 258.359375 315.78125 265.289062 328.855469 C 269.414062 336.574219 273.625 344.472656 277.921875 352.632812 L 279.152344 351.316406 C 274.675781 343.070312 270.378906 334.996094 266.253906 327.101562 C 259.058594 313.589844 252.039062 300.515625 245.371094 288.054688 Z M 216.332031 359.476562 L 245.371094 301.394531 L 255.636719 321.398438 L 246.953125 307.621094 L 221.15625 359.386719 L 216.332031 359.386719 Z M 216.332031 359.476562 " fill-opacity="1" fill-rule="evenodd"/><path fill="#f5ece6" d="M 246.25 345.699219 C 245.109375 345.789062 243.96875 345.789062 242.914062 345.875 C 241.863281 345.964844 240.808594 345.964844 239.84375 346.050781 C 239.84375 347.191406 239.84375 348.421875 239.84375 349.5625 C 239.84375 350.703125 239.84375 351.929688 239.84375 353.070312 C 240.898438 353.070312 241.863281 353.160156 242.914062 353.160156 C 243.96875 353.160156 245.109375 353.246094 246.25 353.246094 C 246.25 351.929688 246.25 350.703125 246.25 349.386719 C 246.25 348.246094 246.25 346.929688 246.25 345.699219 Z M 255.285156 355 C 253.882812 354.914062 252.566406 354.914062 251.164062 354.824219 C 249.847656 354.738281 248.617188 354.738281 247.390625 354.648438 C 247.390625 355.964844 247.390625 357.28125 247.390625 358.597656 C 247.390625 359.914062 247.390625 361.230469 247.390625 362.546875 C 248.617188 362.722656 249.847656 362.898438 251.164062 363.074219 C 252.480469 363.25 253.882812 363.421875 255.285156 363.597656 C 255.285156 362.195312 255.285156 360.703125 255.285156 359.300781 C 255.285156 357.808594 255.285156 356.40625 255.285156 355 Z M 246.25 354.5625 C 245.109375 354.472656 243.96875 354.472656 242.914062 354.386719 C 241.863281 354.300781 240.808594 354.300781 239.84375 354.210938 C 239.84375 355.441406 239.84375 356.582031 239.84375 357.808594 C 239.84375 359.035156 239.84375 360.175781 239.84375 361.40625 C 240.898438 361.582031 241.863281 361.667969 243.003906 361.84375 C 244.054688 362.019531 245.195312 362.109375 246.335938 362.285156 C 246.335938 360.96875 246.335938 359.738281 246.335938 358.421875 C 246.25 357.105469 246.25 355.789062 246.25 354.5625 Z M 255.285156 345.175781 C 253.882812 345.261719 252.566406 345.351562 251.25 345.4375 C 249.933594 345.523438 248.707031 345.613281 247.566406 345.613281 C 247.566406 346.929688 247.566406 348.15625 247.566406 349.472656 C 247.566406 350.789062 247.566406 352.019531 247.566406 353.332031 C 248.792969 353.332031 250.023438 353.421875 251.339844 353.421875 C 252.65625 353.421875 254.058594 353.507812 255.375 353.597656 C 255.375 352.191406 255.375 350.789062 255.375 349.386719 C 255.285156 347.980469 255.285156 346.578125 255.285156 345.175781 Z M 255.285156 345.175781 " fill-opacity="1" fill-rule="evenodd"/><path fill="#f5ece6" d="M 367.765625 335.609375 L 382.15625 335.609375 L 382.15625 350 L 367.765625 350 Z M 367.765625 335.609375 " fill-opacity="1" fill-rule="evenodd"/><path fill="#f5ece6" d="M 385.839844 335.609375 L 400.230469 335.609375 L 400.230469 350 L 385.839844 350 Z M 385.839844 335.609375 " fill-opacity="1" fill-rule="evenodd"/><path fill="#f5ece6" d="M 367.765625 353.070312 L 382.15625 353.070312 L 382.15625 367.460938 L 367.765625 367.460938 Z M 367.765625 353.070312 " fill-opacity="1" fill-rule="evenodd"/><path fill="#f5ece6" d="M 385.839844 353.070312 L 400.230469 353.070312 L 400.230469 367.460938 L 385.839844 367.460938 Z M 385.839844 353.070312 " fill-opacity="1" fill-rule="evenodd"/><g transform="matrix(1, 0, 0, 1, 154, 402)"><g clip-path="url(#66d02b0cdd)"><g fill="#f5ece6" fill-opacity="1"><g transform="translate(0.921914, 40.231376)"><g><path d="M 2.703125 0 L 2.703125 -0.546875 C 3.160156 -0.671875 3.535156 -0.890625 3.828125 -1.203125 C 4.128906 -1.515625 4.34375 -2.054688 4.46875 -2.828125 C 4.601562 -3.597656 4.671875 -4.738281 4.671875 -6.25 L 4.671875 -28.171875 C 4.671875 -29.671875 4.601562 -30.804688 4.46875 -31.578125 C 4.34375 -32.347656 4.128906 -32.894531 3.828125 -33.21875 C 3.535156 -33.550781 3.160156 -33.769531 2.703125 -33.875 L 2.703125 -34.40625 L 9.390625 -34.40625 L 9.390625 -33.875 C 8.929688 -33.769531 8.550781 -33.550781 8.25 -33.21875 C 7.957031 -32.894531 7.742188 -32.347656 7.609375 -31.578125 C 7.484375 -30.804688 7.421875 -29.671875 7.421875 -28.171875 L 7.421875 -2.609375 C 7.421875 -1.296875 8.078125 -0.640625 9.390625 -0.640625 L 17.25 -0.640625 C 18.726562 -0.640625 19.929688 -0.773438 20.859375 -1.046875 C 21.796875 -1.328125 22.566406 -1.785156 23.171875 -2.421875 C 23.785156 -3.066406 24.335938 -3.914062 24.828125 -4.96875 L 25.265625 -4.859375 L 24.96875 0 Z M 2.703125 0 "/></g></g></g><g fill="#f5ece6" fill-opacity="1"><g transform="translate(35.672412, 40.231376)"><g><path d="M 17.296875 0.484375 C 15.566406 0.484375 13.90625 0.265625 12.3125 -0.171875 C 10.71875 -0.609375 9.289062 -1.3125 8.03125 -2.28125 C 6.769531 -3.25 5.769531 -4.523438 5.03125 -6.109375 C 4.300781 -7.703125 3.9375 -9.628906 3.9375 -11.890625 L 3.9375 -28.171875 C 3.9375 -29.671875 3.867188 -30.804688 3.734375 -31.578125 C 3.609375 -32.347656 3.394531 -32.894531 3.09375 -33.21875 C 2.800781 -33.550781 2.425781 -33.769531 1.96875 -33.875 L 1.96875 -34.40625 L 8.65625 -34.40625 L 8.65625 -33.875 C 8.195312 -33.769531 7.816406 -33.550781 7.515625 -33.21875 C 7.222656 -32.894531 7.007812 -32.347656 6.875 -31.578125 C 6.75 -30.804688 6.6875 -29.671875 6.6875 -28.171875 L 6.6875 -12.984375 C 6.6875 -9.867188 7.25 -7.382812 8.375 -5.53125 C 9.507812 -3.675781 10.96875 -2.347656 12.75 -1.546875 C 14.539062 -0.742188 16.4375 -0.34375 18.4375 -0.34375 C 19.519531 -0.34375 20.65625 -0.53125 21.84375 -0.90625 C 23.039062 -1.28125 24.164062 -1.925781 25.21875 -2.84375 C 26.269531 -3.769531 27.117188 -5.023438 27.765625 -6.609375 C 28.421875 -8.203125 28.75 -10.226562 28.75 -12.6875 L 28.75 -27.28125 C 28.75 -28.988281 28.625 -30.289062 28.375 -31.1875 C 28.132812 -32.09375 27.800781 -32.734375 27.375 -33.109375 C 26.945312 -33.484375 26.425781 -33.738281 25.8125 -33.875 L 25.8125 -34.40625 L 31.453125 -34.40625 L 31.453125 -33.875 C 30.992188 -33.769531 30.617188 -33.550781 30.328125 -33.21875 C 30.035156 -32.894531 29.820312 -32.347656 29.6875 -31.578125 C 29.5625 -30.804688 29.5 -29.671875 29.5 -28.171875 L 29.5 -12.875 C 29.5 -9.601562 28.929688 -6.984375 27.796875 -5.015625 C 26.671875 -3.046875 25.179688 -1.632812 23.328125 -0.78125 C 21.472656 0.0625 19.460938 0.484375 17.296875 0.484375 Z M 17.296875 0.484375 "/></g></g></g><g fill="#f5ece6" fill-opacity="1"><g transform="translate(76.960145, 40.231376)"><g><path d="M 21.921875 0 L 21.921875 -0.546875 C 22.378906 -0.671875 22.648438 -0.851562 22.734375 -1.09375 C 22.816406 -1.34375 22.6875 -1.796875 22.34375 -2.453125 C 22 -3.109375 21.429688 -4.078125 20.640625 -5.359375 L 13.671875 -16.953125 L 5.796875 -5.203125 C 4.878906 -3.796875 4.332031 -2.707031 4.15625 -1.9375 C 3.976562 -1.164062 4.3125 -0.703125 5.15625 -0.546875 L 5.15625 0 L 0.296875 0 L 0.296875 -0.546875 C 0.722656 -0.703125 1.140625 -0.894531 1.546875 -1.125 C 1.953125 -1.351562 2.425781 -1.78125 2.96875 -2.40625 C 3.507812 -3.03125 4.191406 -3.960938 5.015625 -5.203125 L 13.265625 -17.59375 L 6.34375 -29.046875 C 5.550781 -30.359375 4.898438 -31.328125 4.390625 -31.953125 C 3.890625 -32.578125 3.46875 -33.019531 3.125 -33.28125 C 2.78125 -33.539062 2.441406 -33.738281 2.109375 -33.875 L 2.109375 -34.40625 L 8.015625 -34.40625 L 8.015625 -33.875 C 7.554688 -33.769531 7.285156 -33.585938 7.203125 -33.328125 C 7.117188 -33.066406 7.25 -32.613281 7.59375 -31.96875 C 7.9375 -31.332031 8.503906 -30.359375 9.296875 -29.046875 L 14.9375 -19.65625 L 21.328125 -29.203125 C 22.242188 -30.609375 22.789062 -31.695312 22.96875 -32.46875 C 23.15625 -33.238281 22.820312 -33.707031 21.96875 -33.875 L 21.96875 -34.40625 L 26.84375 -34.40625 L 26.84375 -33.875 C 26.414062 -33.738281 25.992188 -33.546875 25.578125 -33.296875 C 25.171875 -33.054688 24.703125 -32.628906 24.171875 -32.015625 C 23.648438 -31.410156 22.96875 -30.472656 22.125 -29.203125 L 15.34375 -19.03125 L 23.59375 -5.359375 C 24.382812 -4.078125 25.03125 -3.117188 25.53125 -2.484375 C 26.039062 -1.847656 26.46875 -1.40625 26.8125 -1.15625 C 27.15625 -0.90625 27.492188 -0.703125 27.828125 -0.546875 L 27.828125 0 Z M 21.921875 0 "/></g></g></g><g fill="#f5ece6" fill-opacity="1"><g transform="translate(113.529276, 40.231376)"><g><path d="M 17.296875 0.484375 C 15.566406 0.484375 13.90625 0.265625 12.3125 -0.171875 C 10.71875 -0.609375 9.289062 -1.3125 8.03125 -2.28125 C 6.769531 -3.25 5.769531 -4.523438 5.03125 -6.109375 C 4.300781 -7.703125 3.9375 -9.628906 3.9375 -11.890625 L 3.9375 -28.171875 C 3.9375 -29.671875 3.867188 -30.804688 3.734375 -31.578125 C 3.609375 -32.347656 3.394531 -32.894531 3.09375 -33.21875 C 2.800781 -33.550781 2.425781 -33.769531 1.96875 -33.875 L 1.96875 -34.40625 L 8.65625 -34.40625 L 8.65625 -33.875 C 8.195312 -33.769531 7.816406 -33.550781 7.515625 -33.21875 C 7.222656 -32.894531 7.007812 -32.347656 6.875 -31.578125 C 6.75 -30.804688 6.6875 -29.671875 6.6875 -28.171875 L 6.6875 -12.984375 C 6.6875 -9.867188 7.25 -7.382812 8.375 -5.53125 C 9.507812 -3.675781 10.96875 -2.347656 12.75 -1.546875 C 14.539062 -0.742188 16.4375 -0.34375 18.4375 -0.34375 C 19.519531 -0.34375 20.65625 -0.53125 21.84375 -0.90625 C 23.039062 -1.28125 24.164062 -1.925781 25.21875 -2.84375 C 26.269531 -3.769531 27.117188 -5.023438 27.765625 -6.609375 C 28.421875 -8.203125 28.75 -10.226562 28.75 -12.6875 L 28.75 -27.28125 C 28.75 -28.988281 28.625 -30.289062 28.375 -31.1875 C 28.132812 -32.09375 27.800781 -32.734375 27.375 -33.109375 C 26.945312 -33.484375 26.425781 -33.738281 25.8125 -33.875 L 25.8125 -34.40625 L 31.453125 -34.40625 L 31.453125 -33.875 C 30.992188 -33.769531 30.617188 -33.550781 30.328125 -33.21875 C 30.035156 -32.894531 29.820312 -32.347656 29.6875 -31.578125 C 29.5625 -30.804688 29.5 -29.671875 29.5 -28.171875 L 29.5 -12.875 C 29.5 -9.601562 28.929688 -6.984375 27.796875 -5.015625 C 26.671875 -3.046875 25.179688 -1.632812 23.328125 -0.78125 C 21.472656 0.0625 19.460938 0.484375 17.296875 0.484375 Z M 17.296875 0.484375 "/></g></g></g><g fill="#f5ece6" fill-opacity="1"><g transform="translate(154.817008, 40.231376)"><g><path d="M 27.765625 0.34375 C 26.585938 0.34375 25.679688 0.0390625 25.046875 -0.5625 C 24.410156 -1.164062 23.867188 -2.015625 23.421875 -3.109375 C 22.984375 -4.210938 22.4375 -5.503906 21.78125 -6.984375 C 21.09375 -8.554688 20.484375 -10.015625 19.953125 -11.359375 C 19.429688 -12.703125 18.828125 -13.851562 18.140625 -14.8125 C 17.453125 -15.78125 16.535156 -16.535156 15.390625 -17.078125 C 14.242188 -17.617188 12.71875 -17.890625 10.8125 -17.890625 L 7.421875 -17.890625 L 7.421875 -6.25 C 7.421875 -4.738281 7.484375 -3.597656 7.609375 -2.828125 C 7.742188 -2.054688 7.957031 -1.515625 8.25 -1.203125 C 8.550781 -0.890625 8.929688 -0.671875 9.390625 -0.546875 L 9.390625 0 L 2.703125 0 L 2.703125 -0.546875 C 3.160156 -0.671875 3.535156 -0.890625 3.828125 -1.203125 C 4.128906 -1.515625 4.34375 -2.054688 4.46875 -2.828125 C 4.601562 -3.597656 4.671875 -4.738281 4.671875 -6.25 L 4.671875 -28.171875 C 4.671875 -29.671875 4.601562 -30.804688 4.46875 -31.578125 C 4.34375 -32.347656 4.128906 -32.894531 3.828125 -33.21875 C 3.535156 -33.550781 3.160156 -33.769531 2.703125 -33.875 L 2.703125 -34.40625 L 11.75 -34.40625 C 16.332031 -34.40625 19.625 -33.757812 21.625 -32.46875 C 23.625 -31.175781 24.625 -29.332031 24.625 -26.9375 C 24.625 -24.570312 23.765625 -22.570312 22.046875 -20.9375 C 20.328125 -19.300781 17.894531 -18.316406 14.75 -17.984375 C 16.382812 -17.753906 17.707031 -17.351562 18.71875 -16.78125 C 19.738281 -16.207031 20.5625 -15.476562 21.1875 -14.59375 C 21.8125 -13.707031 22.351562 -12.691406 22.8125 -11.546875 C 23.269531 -10.398438 23.757812 -9.140625 24.28125 -7.765625 C 25.332031 -5.179688 26.242188 -3.304688 27.015625 -2.140625 C 27.785156 -0.972656 28.5625 -0.390625 29.34375 -0.390625 C 29.507812 -0.390625 29.65625 -0.394531 29.78125 -0.40625 C 29.914062 -0.425781 30.050781 -0.453125 30.1875 -0.484375 L 30.1875 0 C 30.019531 0.0625 29.710938 0.132812 29.265625 0.21875 C 28.828125 0.300781 28.328125 0.34375 27.765625 0.34375 Z M 7.421875 -18.578125 L 12.640625 -18.578125 C 15.484375 -18.578125 17.679688 -19.21875 19.234375 -20.5 C 20.796875 -21.78125 21.578125 -23.566406 21.578125 -25.859375 C 21.578125 -28.285156 20.695312 -30.207031 18.9375 -31.625 C 17.1875 -33.050781 14.164062 -33.765625 9.875 -33.765625 C 9.488281 -33.765625 9.097656 -33.753906 8.703125 -33.734375 C 8.304688 -33.722656 7.878906 -33.703125 7.421875 -33.671875 Z M 7.421875 -18.578125 "/></g></g></g><g fill="#f5ece6" fill-opacity="1"><g transform="translate(192.909859, 40.231376)"><g><path d="M 9.53125 0 L 9.53125 -0.546875 C 9.988281 -0.671875 10.363281 -0.890625 10.65625 -1.203125 C 10.957031 -1.515625 11.171875 -2.054688 11.296875 -2.828125 C 11.429688 -3.597656 11.5 -4.738281 11.5 -6.25 L 11.453125 -15.234375 L 3.890625 -28.953125 C 3.160156 -30.265625 2.523438 -31.25 1.984375 -31.90625 C 1.453125 -32.5625 0.988281 -33.023438 0.59375 -33.296875 C 0.195312 -33.578125 -0.160156 -33.769531 -0.484375 -33.875 L -0.484375 -34.40625 L 5.75 -34.40625 L 5.75 -33.875 C 5.289062 -33.769531 5.019531 -33.578125 4.9375 -33.296875 C 4.851562 -33.023438 4.96875 -32.5625 5.28125 -31.90625 C 5.59375 -31.25 6.109375 -30.265625 6.828125 -28.953125 L 13.953125 -16.265625 L 21.140625 -28.953125 C 21.992188 -30.429688 22.46875 -31.578125 22.5625 -32.390625 C 22.65625 -33.210938 22.28125 -33.707031 21.4375 -33.875 L 21.4375 -34.40625 L 26.796875 -34.40625 L 26.796875 -33.875 C 26.398438 -33.769531 25.960938 -33.578125 25.484375 -33.296875 C 25.015625 -33.023438 24.5 -32.5625 23.9375 -31.90625 C 23.382812 -31.25 22.726562 -30.265625 21.96875 -28.953125 L 14.296875 -15.34375 L 14.296875 -6.25 C 14.296875 -4.738281 14.363281 -3.597656 14.5 -2.828125 C 14.632812 -2.054688 14.847656 -1.515625 15.140625 -1.203125 C 15.429688 -0.890625 15.804688 -0.671875 16.265625 -0.546875 L 16.265625 0 Z M 9.53125 0 "/></g></g></g><g fill="#f5ece6" fill-opacity="1"><g transform="translate(227.562061, 40.231376)"><g/></g></g><g fill="#f5ece6" fill-opacity="1"><g transform="translate(246.731334, 40.231376)"><g><path d="M 2.703125 0 L 2.703125 -0.546875 C 3.160156 -0.671875 3.535156 -0.890625 3.828125 -1.203125 C 4.128906 -1.515625 4.34375 -2.054688 4.46875 -2.828125 C 4.601562 -3.597656 4.671875 -4.738281 4.671875 -6.25 L 4.671875 -28.171875 C 4.671875 -29.671875 4.601562 -30.804688 4.46875 -31.578125 C 4.34375 -32.347656 4.128906 -32.894531 3.828125 -33.21875 C 3.535156 -33.550781 3.160156 -33.769531 2.703125 -33.875 L 2.703125 -34.40625 L 24.78125 -34.40625 L 25.359375 -28.5625 L 24.921875 -28.46875 C 24.171875 -30.394531 23.097656 -31.757812 21.703125 -32.5625 C 20.304688 -33.363281 18.492188 -33.765625 16.265625 -33.765625 L 7.421875 -33.765625 L 7.421875 -18.625 L 15.484375 -18.625 C 17.191406 -18.625 18.492188 -18.75 19.390625 -19 C 20.296875 -19.25 20.9375 -19.59375 21.3125 -20.03125 C 21.6875 -20.46875 21.941406 -20.984375 22.078125 -21.578125 L 22.609375 -21.578125 L 22.609375 -15.046875 L 22.078125 -15.046875 C 21.941406 -15.660156 21.6875 -16.179688 21.3125 -16.609375 C 20.9375 -17.035156 20.296875 -17.367188 19.390625 -17.609375 C 18.492188 -17.859375 17.191406 -17.984375 15.484375 -17.984375 L 7.421875 -17.984375 L 7.421875 -2.609375 C 7.421875 -1.296875 8.078125 -0.640625 9.390625 -0.640625 L 17.59375 -0.640625 C 19.820312 -0.640625 21.613281 -1.003906 22.96875 -1.734375 C 24.332031 -2.472656 25.425781 -3.878906 26.25 -5.953125 L 26.6875 -5.84375 L 26.25 0 Z M 2.703125 0 "/></g></g></g><g fill="#f5ece6" fill-opacity="1"><g transform="translate(283.742825, 40.231376)"><g><path d="M 13.953125 0.484375 C 12.222656 0.484375 10.617188 0.296875 9.140625 -0.078125 C 7.671875 -0.453125 6.378906 -0.910156 5.265625 -1.453125 C 4.148438 -1.992188 3.25 -2.507812 2.5625 -3 L 2.21875 -9.296875 L 2.703125 -9.34375 C 3.265625 -7.769531 4.007812 -6.289062 4.9375 -4.90625 C 5.875 -3.53125 7.128906 -2.410156 8.703125 -1.546875 C 10.273438 -0.679688 12.257812 -0.25 14.65625 -0.25 C 16.15625 -0.25 17.507812 -0.550781 18.71875 -1.15625 C 19.9375 -1.757812 20.914062 -2.578125 21.65625 -3.609375 C 22.394531 -4.640625 22.765625 -5.8125 22.765625 -7.125 C 22.765625 -8.375 22.453125 -9.472656 21.828125 -10.421875 C 21.203125 -11.367188 20.390625 -12.191406 19.390625 -12.890625 C 18.390625 -13.597656 17.300781 -14.210938 16.125 -14.734375 C 14.945312 -15.265625 13.816406 -15.742188 12.734375 -16.171875 C 9.421875 -17.484375 6.976562 -18.84375 5.40625 -20.25 C 3.832031 -21.65625 3.046875 -23.523438 3.046875 -25.859375 C 3.046875 -27.660156 3.519531 -29.222656 4.46875 -30.546875 C 5.425781 -31.878906 6.75 -32.910156 8.4375 -33.640625 C 10.125 -34.378906 12.078125 -34.75 14.296875 -34.75 C 17.023438 -34.75 19.175781 -34.4375 20.75 -33.8125 C 22.320312 -33.195312 23.414062 -32.691406 24.03125 -32.296875 L 24.234375 -27.328125 L 23.84375 -27.234375 C 23.3125 -28.378906 22.617188 -29.46875 21.765625 -30.5 C 20.921875 -31.53125 19.800781 -32.375 18.40625 -33.03125 C 17.007812 -33.6875 15.21875 -34.015625 13.03125 -34.015625 C 11.6875 -34.015625 10.421875 -33.757812 9.234375 -33.25 C 8.054688 -32.75 7.109375 -32 6.390625 -31 C 5.671875 -30 5.3125 -28.726562 5.3125 -27.1875 C 5.3125 -25.96875 5.597656 -24.914062 6.171875 -24.03125 C 6.742188 -23.144531 7.503906 -22.375 8.453125 -21.71875 C 9.398438 -21.070312 10.445312 -20.484375 11.59375 -19.953125 C 12.75 -19.429688 13.882812 -18.941406 15 -18.484375 C 16.957031 -17.691406 18.695312 -16.867188 20.21875 -16.015625 C 21.75 -15.171875 22.945312 -14.179688 23.8125 -13.046875 C 24.6875 -11.921875 25.125 -10.488281 25.125 -8.75 C 25.125 -6.945312 24.601562 -5.347656 23.5625 -3.953125 C 22.53125 -2.566406 21.171875 -1.476562 19.484375 -0.6875 C 17.796875 0.09375 15.953125 0.484375 13.953125 0.484375 Z M 13.953125 0.484375 "/></g></g></g><g fill="#f5ece6" fill-opacity="1"><g transform="translate(319.034003, 40.231376)"><g><path d="M 10.375 0 L 10.375 -0.546875 C 10.832031 -0.671875 11.207031 -0.890625 11.5 -1.203125 C 11.789062 -1.515625 12.003906 -2.054688 12.140625 -2.828125 C 12.273438 -3.597656 12.34375 -4.738281 12.34375 -6.25 L 12.34375 -33.765625 L 8.953125 -33.765625 C 7.472656 -33.765625 6.265625 -33.625 5.328125 -33.34375 C 4.398438 -33.070312 3.628906 -32.613281 3.015625 -31.96875 C 2.410156 -31.332031 1.863281 -30.488281 1.375 -29.4375 L 0.9375 -29.546875 L 1.234375 -34.40625 L 26.15625 -34.40625 L 26.453125 -29.546875 L 26 -29.4375 C 25.507812 -30.488281 24.960938 -31.332031 24.359375 -31.96875 C 23.753906 -32.613281 22.984375 -33.070312 22.046875 -33.34375 C 21.109375 -33.625 19.90625 -33.765625 18.4375 -33.765625 L 15.140625 -33.765625 L 15.140625 -6.25 C 15.140625 -4.738281 15.203125 -3.597656 15.328125 -2.828125 C 15.460938 -2.054688 15.675781 -1.515625 15.96875 -1.203125 C 16.269531 -0.890625 16.648438 -0.671875 17.109375 -0.546875 L 17.109375 0 Z M 10.375 0 "/></g></g></g><g fill="#f5ece6" fill-opacity="1"><g transform="translate(354.865838, 40.231376)"><g><path d="M -0.59375 0 L -0.59375 -0.546875 C -0.164062 -0.671875 0.25 -0.875 0.65625 -1.15625 C 1.070312 -1.4375 1.515625 -1.925781 1.984375 -2.625 C 2.460938 -3.332031 2.984375 -4.390625 3.546875 -5.796875 L 13.765625 -31.0625 C 14.023438 -31.71875 13.992188 -32.375 13.671875 -33.03125 L 13.375 -33.671875 L 15.875 -34.75 L 27.828125 -5.75 C 28.410156 -4.375 28.914062 -3.332031 29.34375 -2.625 C 29.769531 -1.925781 30.160156 -1.4375 30.515625 -1.15625 C 30.878906 -0.875 31.226562 -0.671875 31.5625 -0.546875 L 31.5625 0 L 25.359375 0 L 25.359375 -0.546875 C 25.816406 -0.671875 26.113281 -0.875 26.25 -1.15625 C 26.382812 -1.4375 26.351562 -1.925781 26.15625 -2.625 C 25.957031 -3.332031 25.5625 -4.375 24.96875 -5.75 L 21.921875 -13.125 L 7.28125 -13.125 L 4.328125 -5.796875 C 3.703125 -4.253906 3.40625 -3.03125 3.4375 -2.125 C 3.46875 -1.226562 3.910156 -0.703125 4.765625 -0.546875 L 4.765625 0 Z M 7.5625 -13.8125 L 21.625 -13.8125 L 14.5 -31.0625 Z M 7.5625 -13.8125 "/></g></g></g><g fill="#f5ece6" fill-opacity="1"><g transform="translate(394.58068, 40.231376)"><g><path d="M 10.375 0 L 10.375 -0.546875 C 10.832031 -0.671875 11.207031 -0.890625 11.5 -1.203125 C 11.789062 -1.515625 12.003906 -2.054688 12.140625 -2.828125 C 12.273438 -3.597656 12.34375 -4.738281 12.34375 -6.25 L 12.34375 -33.765625 L 8.953125 -33.765625 C 7.472656 -33.765625 6.265625 -33.625 5.328125 -33.34375 C 4.398438 -33.070312 3.628906 -32.613281 3.015625 -31.96875 C 2.410156 -31.332031 1.863281 -30.488281 1.375 -29.4375 L 0.9375 -29.546875 L 1.234375 -34.40625 L 26.15625 -34.40625 L 26.453125 -29.546875 L 26 -29.4375 C 25.507812 -30.488281 24.960938 -31.332031 24.359375 -31.96875 C 23.753906 -32.613281 22.984375 -33.070312 22.046875 -33.34375 C 21.109375 -33.625 19.90625 -33.765625 18.4375 -33.765625 L 15.140625 -33.765625 L 15.140625 -6.25 C 15.140625 -4.738281 15.203125 -3.597656 15.328125 -2.828125 C 15.460938 -2.054688 15.675781 -1.515625 15.96875 -1.203125 C 16.269531 -0.890625 16.648438 -0.671875 17.109375 -0.546875 L 17.109375 0 Z M 10.375 0 "/></g></g></g><g fill="#f5ece6" fill-opacity="1"><g transform="translate(430.412537, 40.231376)"><g><path d="M 2.703125 0 L 2.703125 -0.546875 C 3.160156 -0.671875 3.535156 -0.890625 3.828125 -1.203125 C 4.128906 -1.515625 4.34375 -2.054688 4.46875 -2.828125 C 4.601562 -3.597656 4.671875 -4.738281 4.671875 -6.25 L 4.671875 -28.171875 C 4.671875 -29.671875 4.601562 -30.804688 4.46875 -31.578125 C 4.34375 -32.347656 4.128906 -32.894531 3.828125 -33.21875 C 3.535156 -33.550781 3.160156 -33.769531 2.703125 -33.875 L 2.703125 -34.40625 L 24.78125 -34.40625 L 25.359375 -28.5625 L 24.921875 -28.46875 C 24.171875 -30.394531 23.097656 -31.757812 21.703125 -32.5625 C 20.304688 -33.363281 18.492188 -33.765625 16.265625 -33.765625 L 7.421875 -33.765625 L 7.421875 -18.625 L 15.484375 -18.625 C 17.191406 -18.625 18.492188 -18.75 19.390625 -19 C 20.296875 -19.25 20.9375 -19.59375 21.3125 -20.03125 C 21.6875 -20.46875 21.941406 -20.984375 22.078125 -21.578125 L 22.609375 -21.578125 L 22.609375 -15.046875 L 22.078125 -15.046875 C 21.941406 -15.660156 21.6875 -16.179688 21.3125 -16.609375 C 20.9375 -17.035156 20.296875 -17.367188 19.390625 -17.609375 C 18.492188 -17.859375 17.191406 -17.984375 15.484375 -17.984375 L 7.421875 -17.984375 L 7.421875 -2.609375 C 7.421875 -1.296875 8.078125 -0.640625 9.390625 -0.640625 L 17.59375 -0.640625 C 19.820312 -0.640625 21.613281 -1.003906 22.96875 -1.734375 C 24.332031 -2.472656 25.425781 -3.878906 26.25 -5.953125 L 26.6875 -5.84375 L 26.25 0 Z M 2.703125 0 "/></g></g></g></g></g><g fill="#f5ece6" fill-opacity="1"><g transform="translate(301.100453, 518.86245)"><g><path d="M 5.234375 -2.53125 C 5.234375 -2.101562 5.28125 -1.664062 5.375 -1.21875 C 5.476562 -0.78125 5.570312 -0.445312 5.65625 -0.21875 L 5.4375 0 L 3.984375 0 C 3.828125 0 3.597656 0.00390625 3.296875 0.015625 C 2.992188 0.0234375 2.675781 0.0351562 2.34375 0.046875 C 2.019531 0.0546875 1.707031 0.0703125 1.40625 0.09375 C 1.101562 0.113281 0.875 0.125 0.71875 0.125 L 0.6875 0 L 0.71875 -0.4375 L 0.859375 -0.5625 C 1.191406 -0.5625 1.519531 -0.578125 1.84375 -0.609375 C 2.175781 -0.640625 2.425781 -0.742188 2.59375 -0.921875 C 2.757812 -1.066406 2.867188 -1.253906 2.921875 -1.484375 C 2.972656 -1.710938 3.019531 -2.039062 3.0625 -2.46875 L 3.09375 -2.75 C 3.09375 -2.9375 3.097656 -3.148438 3.109375 -3.390625 C 3.117188 -3.628906 3.128906 -3.921875 3.140625 -4.265625 C 3.148438 -4.617188 3.15625 -5.039062 3.15625 -5.53125 C 3.15625 -6.03125 3.15625 -6.648438 3.15625 -7.390625 L 3.15625 -14.96875 C 3.15625 -15.832031 3.15625 -16.5625 3.15625 -17.15625 C 3.15625 -17.757812 3.148438 -18.28125 3.140625 -18.71875 C 3.128906 -19.164062 3.117188 -19.550781 3.109375 -19.875 C 3.097656 -20.207031 3.082031 -20.550781 3.0625 -20.90625 C 3.039062 -21.132812 2.984375 -21.332031 2.890625 -21.5 C 2.796875 -21.664062 2.71875 -21.796875 2.65625 -21.890625 C 2.445312 -22.117188 2.179688 -22.265625 1.859375 -22.328125 C 1.546875 -22.390625 1.222656 -22.421875 0.890625 -22.421875 L 0.765625 -22.546875 L 0.765625 -22.953125 L 0.890625 -23.078125 L 1.453125 -23.078125 C 1.804688 -23.078125 2.253906 -23.082031 2.796875 -23.09375 C 3.347656 -23.101562 3.828125 -23.140625 4.234375 -23.203125 L 5.34375 -23.375 L 5.53125 -23.078125 C 5.488281 -22.992188 5.453125 -22.84375 5.421875 -22.625 C 5.390625 -22.40625 5.363281 -22.164062 5.34375 -21.90625 C 5.320312 -21.65625 5.304688 -21.414062 5.296875 -21.1875 C 5.285156 -20.957031 5.28125 -20.78125 5.28125 -20.65625 C 5.28125 -20.3125 5.28125 -19.992188 5.28125 -19.703125 C 5.28125 -19.410156 5.269531 -19.0625 5.25 -18.65625 C 5.238281 -18.257812 5.234375 -17.773438 5.234375 -17.203125 C 5.234375 -16.640625 5.234375 -15.914062 5.234375 -15.03125 C 5.234375 -14.125 5.222656 -13.460938 5.203125 -13.046875 C 5.179688 -12.640625 5.160156 -12.3125 5.140625 -12.0625 L 5.234375 -12 C 5.847656 -12.882812 6.597656 -13.601562 7.484375 -14.15625 C 8.367188 -14.71875 9.367188 -15 10.484375 -15 C 11.679688 -15 12.71875 -14.785156 13.59375 -14.359375 C 14.46875 -13.941406 15.1875 -13.382812 15.75 -12.6875 C 16.320312 -12 16.742188 -11.207031 17.015625 -10.3125 C 17.296875 -9.414062 17.4375 -8.484375 17.4375 -7.515625 C 17.4375 -6.085938 17.210938 -4.875 16.765625 -3.875 C 16.328125 -2.875 15.765625 -2.0625 15.078125 -1.4375 C 14.390625 -0.8125 13.640625 -0.359375 12.828125 -0.078125 C 12.023438 0.203125 11.253906 0.34375 10.515625 0.34375 C 9.503906 0.34375 8.550781 0.125 7.65625 -0.3125 C 6.757812 -0.757812 5.988281 -1.519531 5.34375 -2.59375 Z M 15.03125 -7.453125 C 15.03125 -8.171875 14.9375 -8.875 14.75 -9.5625 C 14.5625 -10.257812 14.269531 -10.875 13.875 -11.40625 C 13.488281 -11.945312 13 -12.378906 12.40625 -12.703125 C 11.820312 -13.035156 11.128906 -13.203125 10.328125 -13.203125 C 9.503906 -13.203125 8.773438 -13.039062 8.140625 -12.71875 C 7.515625 -12.40625 6.984375 -12.023438 6.546875 -11.578125 C 6.117188 -11.140625 5.789062 -10.679688 5.5625 -10.203125 C 5.34375 -9.734375 5.234375 -9.332031 5.234375 -9 L 5.234375 -5.5625 C 5.304688 -5.21875 5.457031 -4.804688 5.6875 -4.328125 C 5.914062 -3.859375 6.234375 -3.40625 6.640625 -2.96875 C 7.054688 -2.53125 7.554688 -2.15625 8.140625 -1.84375 C 8.734375 -1.539062 9.441406 -1.390625 10.265625 -1.390625 C 11.085938 -1.390625 11.796875 -1.5625 12.390625 -1.90625 C 12.992188 -2.257812 13.488281 -2.71875 13.875 -3.28125 C 14.269531 -3.851562 14.5625 -4.5 14.75 -5.21875 C 14.9375 -5.945312 15.03125 -6.691406 15.03125 -7.453125 Z M 15.03125 -7.453125 "/></g></g></g><g fill="#f5ece6" fill-opacity="1"><g transform="translate(320.011069, 518.86245)"><g><path d="M 1.296875 7.234375 C 1.585938 7.234375 1.863281 7.222656 2.125 7.203125 C 2.394531 7.179688 2.65625 7.132812 2.90625 7.0625 C 3.15625 6.988281 3.398438 6.863281 3.640625 6.6875 C 3.890625 6.519531 4.160156 6.289062 4.453125 6 C 4.847656 5.582031 5.191406 5.132812 5.484375 4.65625 C 5.785156 4.1875 6.03125 3.707031 6.21875 3.21875 L 7.234375 0.65625 L 5.046875 -5.046875 C 4.960938 -5.242188 4.820312 -5.59375 4.625 -6.09375 C 4.425781 -6.601562 4.195312 -7.164062 3.9375 -7.78125 C 3.6875 -8.40625 3.429688 -9.039062 3.171875 -9.6875 C 2.910156 -10.34375 2.6875 -10.925781 2.5 -11.4375 C 2.28125 -11.9375 2.085938 -12.332031 1.921875 -12.625 C 1.710938 -12.96875 1.476562 -13.234375 1.21875 -13.421875 C 0.957031 -13.609375 0.601562 -13.722656 0.15625 -13.765625 L -0.03125 -13.921875 L -0.03125 -14.375 L 0.09375 -14.5 C 0.445312 -14.457031 0.820312 -14.414062 1.21875 -14.375 C 1.625 -14.332031 2 -14.3125 2.34375 -14.3125 L 3.5625 -14.3125 C 3.90625 -14.3125 4.3125 -14.332031 4.78125 -14.375 C 5.257812 -14.414062 5.707031 -14.457031 6.125 -14.5 L 6.25 -14.375 L 6.25 -13.984375 L 6.125 -13.859375 C 5.664062 -13.816406 5.28125 -13.695312 4.96875 -13.5 C 4.664062 -13.300781 4.515625 -13.007812 4.515625 -12.625 C 4.515625 -12.375 4.613281 -11.925781 4.8125 -11.28125 C 5.007812 -10.644531 5.234375 -9.960938 5.484375 -9.234375 C 5.742188 -8.503906 5.988281 -7.820312 6.21875 -7.1875 C 6.445312 -6.5625 6.601562 -6.15625 6.6875 -5.96875 L 8.28125 -1.859375 L 9.75 -5.5 C 9.90625 -5.851562 10.109375 -6.332031 10.359375 -6.9375 C 10.609375 -7.550781 10.859375 -8.207031 11.109375 -8.90625 C 11.367188 -9.601562 11.585938 -10.28125 11.765625 -10.9375 C 11.941406 -11.601562 12.03125 -12.164062 12.03125 -12.625 C 12.03125 -13.09375 11.859375 -13.40625 11.515625 -13.5625 C 11.179688 -13.71875 10.804688 -13.816406 10.390625 -13.859375 L 10.265625 -13.984375 L 10.265625 -14.375 L 10.390625 -14.5 C 11.210938 -14.375 11.976562 -14.3125 12.6875 -14.3125 L 13.984375 -14.3125 C 14.347656 -14.3125 14.691406 -14.332031 15.015625 -14.375 C 15.335938 -14.414062 15.703125 -14.457031 16.109375 -14.5 L 16.234375 -14.375 L 16.234375 -13.921875 L 16.078125 -13.765625 C 15.691406 -13.722656 15.398438 -13.617188 15.203125 -13.453125 C 15.003906 -13.285156 14.789062 -13.007812 14.5625 -12.625 C 14.363281 -12.289062 14.144531 -11.867188 13.90625 -11.359375 C 13.664062 -10.859375 13.425781 -10.3125 13.1875 -9.71875 C 12.945312 -9.132812 12.703125 -8.535156 12.453125 -7.921875 C 12.210938 -7.316406 11.992188 -6.75 11.796875 -6.21875 C 11.597656 -5.695312 11.425781 -5.238281 11.28125 -4.84375 C 11.144531 -4.457031 11.046875 -4.191406 10.984375 -4.046875 L 7.890625 3.65625 C 7.347656 5.03125 6.609375 6.046875 5.671875 6.703125 C 4.734375 7.367188 3.71875 7.835938 2.625 8.109375 C 2.414062 8.148438 2.222656 8.175781 2.046875 8.1875 C 1.878906 8.195312 1.691406 8.203125 1.484375 8.203125 L 1.234375 8.140625 L 1.171875 7.390625 Z M 1.296875 7.234375 "/></g></g></g><g fill="#f5ece6" fill-opacity="1"><g transform="translate(336.238207, 518.86245)"><g/></g></g><g fill="#f5ece6" fill-opacity="1"><g transform="translate(343.815088, 518.86245)"><g><path d="M 9.09375 0.1875 C 8.945312 0.1875 8.703125 0.175781 8.359375 0.15625 C 8.023438 0.132812 7.679688 0.113281 7.328125 0.09375 C 6.972656 0.0703125 6.625 0.0507812 6.28125 0.03125 C 5.945312 0.0078125 5.707031 0 5.5625 0 L 4.953125 0 C 4.804688 0 4.5625 0.0078125 4.21875 0.03125 C 3.882812 0.0507812 3.539062 0.0703125 3.1875 0.09375 C 2.832031 0.113281 2.484375 0.132812 2.140625 0.15625 C 1.804688 0.175781 1.566406 0.1875 1.421875 0.1875 L 1.359375 0.0625 L 1.453125 -0.5 L 1.609375 -0.625 C 1.859375 -0.625 2.148438 -0.640625 2.484375 -0.671875 C 2.828125 -0.703125 3.09375 -0.785156 3.28125 -0.921875 C 3.445312 -1.046875 3.601562 -1.242188 3.75 -1.515625 C 3.90625 -1.785156 4.015625 -2.195312 4.078125 -2.75 C 4.078125 -2.894531 4.082031 -3.066406 4.09375 -3.265625 C 4.101562 -3.460938 4.113281 -3.707031 4.125 -4 C 4.132812 -4.300781 4.140625 -4.660156 4.140625 -5.078125 C 4.140625 -5.503906 4.140625 -6.03125 4.140625 -6.65625 L 4.140625 -14.875 C 4.140625 -15.289062 4.132812 -15.765625 4.125 -16.296875 C 4.113281 -16.835938 4.085938 -17.375 4.046875 -17.90625 C 4.003906 -18.382812 3.90625 -18.765625 3.75 -19.046875 C 3.601562 -19.335938 3.445312 -19.554688 3.28125 -19.703125 C 3.09375 -19.804688 2.898438 -19.882812 2.703125 -19.9375 C 2.503906 -19.988281 2.140625 -20.015625 1.609375 -20.015625 L 1.453125 -20.140625 L 1.359375 -20.71875 L 1.421875 -20.84375 C 1.566406 -20.84375 1.757812 -20.832031 2 -20.8125 C 2.25 -20.789062 2.503906 -20.769531 2.765625 -20.75 C 3.023438 -20.726562 3.289062 -20.707031 3.5625 -20.6875 C 3.84375 -20.664062 4.097656 -20.65625 4.328125 -20.65625 L 5.46875 -20.65625 C 5.695312 -20.65625 5.957031 -20.65625 6.25 -20.65625 C 6.539062 -20.65625 6.835938 -20.660156 7.140625 -20.671875 C 7.453125 -20.679688 7.734375 -20.6875 7.984375 -20.6875 C 8.242188 -20.6875 8.457031 -20.6875 8.625 -20.6875 C 10.03125 -20.6875 11.222656 -20.546875 12.203125 -20.265625 C 13.179688 -19.992188 13.972656 -19.617188 14.578125 -19.140625 C 15.191406 -18.671875 15.640625 -18.101562 15.921875 -17.4375 C 16.210938 -16.78125 16.359375 -16.070312 16.359375 -15.3125 C 16.359375 -14.40625 16.191406 -13.617188 15.859375 -12.953125 C 15.535156 -12.296875 15.117188 -11.726562 14.609375 -11.25 C 14.109375 -10.78125 13.539062 -10.398438 12.90625 -10.109375 C 12.28125 -9.828125 11.660156 -9.613281 11.046875 -9.46875 C 11.722656 -8.519531 12.414062 -7.582031 13.125 -6.65625 C 13.84375 -5.738281 14.582031 -4.835938 15.34375 -3.953125 C 15.769531 -3.460938 16.160156 -3.023438 16.515625 -2.640625 C 16.867188 -2.265625 17.25 -1.941406 17.65625 -1.671875 C 18.070312 -1.398438 18.53125 -1.179688 19.03125 -1.015625 C 19.539062 -0.847656 20.15625 -0.71875 20.875 -0.625 L 21.0625 -0.5 L 21.125 0.0625 L 21.0625 0.1875 C 20.601562 0.207031 20.078125 0.234375 19.484375 0.265625 C 18.890625 0.296875 18.425781 0.3125 18.09375 0.3125 C 17.539062 0.3125 17.066406 0.25 16.671875 0.125 C 16.273438 0 15.882812 -0.195312 15.5 -0.46875 C 15.125 -0.75 14.738281 -1.109375 14.34375 -1.546875 C 13.957031 -1.984375 13.515625 -2.507812 13.015625 -3.125 C 12.953125 -3.1875 12.765625 -3.429688 12.453125 -3.859375 C 12.148438 -4.296875 11.78125 -4.8125 11.34375 -5.40625 C 10.914062 -6.007812 10.460938 -6.65625 9.984375 -7.34375 C 9.515625 -8.03125 9.082031 -8.664062 8.6875 -9.25 L 6.375 -9.25 C 6.375 -8.6875 6.375 -8.066406 6.375 -7.390625 C 6.375 -6.710938 6.378906 -6.066406 6.390625 -5.453125 C 6.398438 -4.847656 6.410156 -4.296875 6.421875 -3.796875 C 6.429688 -3.304688 6.445312 -2.957031 6.46875 -2.75 C 6.507812 -2.132812 6.613281 -1.707031 6.78125 -1.46875 C 6.957031 -1.226562 7.109375 -1.054688 7.234375 -0.953125 C 7.421875 -0.847656 7.613281 -0.765625 7.8125 -0.703125 C 8.007812 -0.648438 8.382812 -0.625 8.9375 -0.625 L 9.0625 -0.5 L 9.15625 0.0625 Z M 9.25 -10.640625 C 11 -10.640625 12.253906 -11.046875 13.015625 -11.859375 C 13.785156 -12.671875 14.171875 -13.757812 14.171875 -15.125 C 14.171875 -16.40625 13.734375 -17.394531 12.859375 -18.09375 C 11.992188 -18.789062 10.800781 -19.140625 9.28125 -19.140625 L 6.53125 -19.140625 C 6.488281 -18.523438 6.460938 -18.003906 6.453125 -17.578125 C 6.441406 -17.160156 6.425781 -16.796875 6.40625 -16.484375 C 6.382812 -16.171875 6.375 -15.882812 6.375 -15.625 C 6.375 -15.375 6.375 -15.132812 6.375 -14.90625 L 6.375 -11.8125 C 6.375 -11.539062 6.382812 -11.320312 6.40625 -11.15625 C 6.425781 -11 6.476562 -10.882812 6.5625 -10.8125 C 6.644531 -10.738281 6.765625 -10.691406 6.921875 -10.671875 C 7.085938 -10.648438 7.304688 -10.640625 7.578125 -10.640625 Z M 9.25 -10.640625 "/></g></g></g><g fill="#f5ece6" fill-opacity="1"><g transform="translate(363.956952, 518.86245)"><g><path d="M 7.953125 0.125 C 7.804688 0.125 7.585938 0.113281 7.296875 0.09375 C 7.003906 0.0703125 6.6875 0.0546875 6.34375 0.046875 C 6.007812 0.0351562 5.691406 0.0234375 5.390625 0.015625 C 5.097656 0.00390625 4.878906 0 4.734375 0 L 4.296875 0 C 4.148438 0 3.921875 0.00390625 3.609375 0.015625 C 3.304688 0.0234375 2.988281 0.0351562 2.65625 0.046875 C 2.332031 0.0546875 2.019531 0.0703125 1.71875 0.09375 C 1.414062 0.113281 1.191406 0.125 1.046875 0.125 L 1.015625 0 L 1.046875 -0.4375 L 1.171875 -0.5625 C 1.503906 -0.5625 1.832031 -0.578125 2.15625 -0.609375 C 2.488281 -0.640625 2.738281 -0.742188 2.90625 -0.921875 C 3.070312 -1.066406 3.179688 -1.253906 3.234375 -1.484375 C 3.285156 -1.710938 3.332031 -2.039062 3.375 -2.46875 C 3.394531 -2.800781 3.414062 -3.140625 3.4375 -3.484375 C 3.457031 -3.835938 3.46875 -4.390625 3.46875 -5.140625 L 3.46875 -9.03125 C 3.46875 -9.46875 3.46875 -9.835938 3.46875 -10.140625 C 3.46875 -10.453125 3.460938 -10.722656 3.453125 -10.953125 C 3.441406 -11.191406 3.429688 -11.40625 3.421875 -11.59375 C 3.410156 -11.78125 3.394531 -11.976562 3.375 -12.1875 C 3.332031 -12.414062 3.269531 -12.617188 3.1875 -12.796875 C 3.101562 -12.984375 3.03125 -13.109375 2.96875 -13.171875 C 2.757812 -13.421875 2.492188 -13.570312 2.171875 -13.625 C 1.859375 -13.675781 1.535156 -13.703125 1.203125 -13.703125 L 1.078125 -13.828125 L 1.078125 -14.265625 L 1.203125 -14.375 L 1.765625 -14.375 C 2.128906 -14.375 2.582031 -14.378906 3.125 -14.390625 C 3.675781 -14.398438 4.148438 -14.4375 4.546875 -14.5 L 5.65625 -14.65625 L 5.84375 -14.375 C 5.800781 -14.28125 5.765625 -14.128906 5.734375 -13.921875 C 5.703125 -13.710938 5.679688 -13.488281 5.671875 -13.25 C 5.660156 -13.007812 5.648438 -12.769531 5.640625 -12.53125 C 5.628906 -12.300781 5.625 -12.125 5.625 -12 C 5.625 -11.832031 5.617188 -11.664062 5.609375 -11.5 C 5.597656 -11.34375 5.59375 -11.160156 5.59375 -10.953125 C 5.59375 -10.742188 5.585938 -10.488281 5.578125 -10.1875 C 5.566406 -9.894531 5.5625 -9.519531 5.5625 -9.0625 L 5.5625 -5.53125 C 5.5625 -5.0625 5.566406 -4.679688 5.578125 -4.390625 C 5.585938 -4.097656 5.597656 -3.84375 5.609375 -3.625 C 5.617188 -3.414062 5.628906 -3.222656 5.640625 -3.046875 C 5.648438 -2.867188 5.664062 -2.675781 5.6875 -2.46875 C 5.726562 -2.019531 5.773438 -1.6875 5.828125 -1.46875 C 5.878906 -1.25 5.988281 -1.066406 6.15625 -0.921875 C 6.320312 -0.765625 6.554688 -0.664062 6.859375 -0.625 C 7.171875 -0.582031 7.484375 -0.5625 7.796875 -0.5625 L 7.953125 -0.40625 L 8.015625 0 Z M 2.65625 -19.921875 C 2.65625 -20.347656 2.796875 -20.710938 3.078125 -21.015625 C 3.359375 -21.316406 3.710938 -21.46875 4.140625 -21.46875 C 4.554688 -21.46875 4.914062 -21.316406 5.21875 -21.015625 C 5.53125 -20.710938 5.6875 -20.347656 5.6875 -19.921875 C 5.6875 -19.503906 5.53125 -19.148438 5.21875 -18.859375 C 4.914062 -18.578125 4.554688 -18.4375 4.140625 -18.4375 C 3.710938 -18.4375 3.359375 -18.578125 3.078125 -18.859375 C 2.796875 -19.148438 2.65625 -19.503906 2.65625 -19.921875 Z M 2.65625 -19.921875 "/></g></g></g><g fill="#f5ece6" fill-opacity="1"><g transform="translate(372.670358, 518.86245)"><g><path d="M 9.34375 -13.046875 L 5.234375 -13.046875 C 5.234375 -11.671875 5.226562 -10.40625 5.21875 -9.25 C 5.207031 -8.09375 5.203125 -7.078125 5.203125 -6.203125 C 5.203125 -5.328125 5.195312 -4.625 5.1875 -4.09375 C 5.175781 -3.570312 5.171875 -3.25 5.171875 -3.125 C 5.171875 -2.300781 5.328125 -1.753906 5.640625 -1.484375 C 5.960938 -1.210938 6.332031 -1.078125 6.75 -1.078125 C 7.113281 -1.078125 7.53125 -1.144531 8 -1.28125 C 8.476562 -1.414062 8.863281 -1.566406 9.15625 -1.734375 L 9.4375 -1.515625 L 9.15625 -0.625 C 8.675781 -0.289062 8.132812 -0.046875 7.53125 0.109375 C 6.925781 0.265625 6.394531 0.34375 5.9375 0.34375 C 4.863281 0.34375 4.101562 0.0507812 3.65625 -0.53125 C 3.21875 -1.125 3 -1.882812 3 -2.8125 C 3 -3 3.007812 -3.382812 3.03125 -3.96875 C 3.050781 -4.5625 3.070312 -5.300781 3.09375 -6.1875 C 3.113281 -7.070312 3.132812 -8.09375 3.15625 -9.25 C 3.175781 -10.40625 3.1875 -11.671875 3.1875 -13.046875 L 0.921875 -13.046875 L 0.796875 -13.203125 L 0.796875 -13.796875 L 0.921875 -13.921875 L 3.1875 -14.375 C 3.1875 -15.101562 3.171875 -15.851562 3.140625 -16.625 C 3.109375 -17.394531 3.070312 -18.148438 3.03125 -18.890625 L 3.25 -19.078125 L 3.6875 -19.109375 C 3.863281 -19.128906 4.140625 -19.171875 4.515625 -19.234375 C 4.890625 -19.296875 5.15625 -19.367188 5.3125 -19.453125 L 5.59375 -19.328125 C 5.53125 -19.035156 5.476562 -18.691406 5.4375 -18.296875 C 5.394531 -17.910156 5.359375 -17.492188 5.328125 -17.046875 C 5.296875 -16.609375 5.269531 -16.15625 5.25 -15.6875 C 5.238281 -15.226562 5.234375 -14.789062 5.234375 -14.375 L 9.34375 -14.5625 L 9.5 -14.4375 L 9.5 -13.203125 Z M 9.34375 -13.046875 "/></g></g></g><g fill="#f5ece6" fill-opacity="1"><g transform="translate(382.962281, 518.86245)"><g><path d="M 10.234375 -0.21875 C 10.296875 -0.445312 10.34375 -0.789062 10.375 -1.25 C 10.40625 -1.71875 10.453125 -2.15625 10.515625 -2.5625 L 10.484375 -2.65625 C 10.210938 -2.269531 9.882812 -1.898438 9.5 -1.546875 C 9.125 -1.191406 8.707031 -0.867188 8.25 -0.578125 C 7.800781 -0.296875 7.316406 -0.0703125 6.796875 0.09375 C 6.285156 0.257812 5.742188 0.34375 5.171875 0.34375 C 4.523438 0.34375 3.945312 0.226562 3.4375 0 C 2.9375 -0.226562 2.515625 -0.53125 2.171875 -0.90625 C 1.835938 -1.289062 1.585938 -1.734375 1.421875 -2.234375 C 1.253906 -2.742188 1.171875 -3.273438 1.171875 -3.828125 C 1.171875 -4.597656 1.347656 -5.269531 1.703125 -5.84375 C 2.054688 -6.425781 2.53125 -6.910156 3.125 -7.296875 C 3.675781 -7.628906 4.320312 -7.898438 5.0625 -8.109375 C 5.8125 -8.328125 6.539062 -8.484375 7.25 -8.578125 C 7.957031 -8.671875 8.59375 -8.734375 9.15625 -8.765625 C 9.726562 -8.796875 10.109375 -8.8125 10.296875 -8.8125 L 10.734375 -8.8125 C 10.710938 -9.59375 10.671875 -10.207031 10.609375 -10.65625 C 10.546875 -11.113281 10.460938 -11.488281 10.359375 -11.78125 C 10.128906 -12.40625 9.726562 -12.859375 9.15625 -13.140625 C 8.59375 -13.429688 7.910156 -13.578125 7.109375 -13.578125 C 6.765625 -13.578125 6.398438 -13.546875 6.015625 -13.484375 C 5.628906 -13.421875 5.257812 -13.304688 4.90625 -13.140625 C 4.5625 -12.972656 4.257812 -12.734375 4 -12.421875 C 3.75 -12.117188 3.601562 -11.722656 3.5625 -11.234375 L 3.4375 -11.140625 L 2.75 -11.140625 L 2.46875 -13.484375 L 2.5625 -13.671875 C 2.664062 -13.796875 2.882812 -13.929688 3.21875 -14.078125 C 3.550781 -14.234375 3.941406 -14.378906 4.390625 -14.515625 C 4.847656 -14.648438 5.351562 -14.765625 5.90625 -14.859375 C 6.46875 -14.953125 7.023438 -15 7.578125 -15 C 8.335938 -15 9.039062 -14.898438 9.6875 -14.703125 C 10.34375 -14.503906 10.90625 -14.203125 11.375 -13.796875 C 11.851562 -13.398438 12.226562 -12.898438 12.5 -12.296875 C 12.78125 -11.703125 12.921875 -11.003906 12.921875 -10.203125 C 12.921875 -9.316406 12.914062 -8.53125 12.90625 -7.84375 C 12.894531 -7.164062 12.878906 -6.535156 12.859375 -5.953125 C 12.835938 -5.367188 12.820312 -4.796875 12.8125 -4.234375 C 12.800781 -3.679688 12.796875 -3.09375 12.796875 -2.46875 C 12.835938 -1.976562 12.890625 -1.625 12.953125 -1.40625 C 13.015625 -1.1875 13.117188 -1.023438 13.265625 -0.921875 C 13.429688 -0.742188 13.675781 -0.640625 14 -0.609375 C 14.332031 -0.578125 14.664062 -0.5625 15 -0.5625 L 15.125 -0.4375 L 15.15625 0 L 15.125 0.125 C 14.75 0.0820312 14.335938 0.0507812 13.890625 0.03125 C 13.453125 0.0078125 13.019531 0 12.59375 0 C 11.800781 0 11.078125 0.03125 10.421875 0.09375 Z M 10.234375 -3.625 C 10.296875 -3.738281 10.363281 -3.867188 10.4375 -4.015625 C 10.507812 -4.160156 10.554688 -4.335938 10.578125 -4.546875 L 10.734375 -7.703125 L 10.453125 -7.703125 C 9.609375 -7.703125 8.765625 -7.65625 7.921875 -7.5625 C 7.078125 -7.46875 6.320312 -7.28125 5.65625 -7 C 5 -6.726562 4.457031 -6.347656 4.03125 -5.859375 C 3.613281 -5.378906 3.40625 -4.765625 3.40625 -4.015625 C 3.40625 -3.210938 3.632812 -2.570312 4.09375 -2.09375 C 4.5625 -1.625 5.164062 -1.390625 5.90625 -1.390625 C 6.34375 -1.390625 6.78125 -1.460938 7.21875 -1.609375 C 7.664062 -1.753906 8.082031 -1.941406 8.46875 -2.171875 C 8.863281 -2.410156 9.210938 -2.65625 9.515625 -2.90625 C 9.828125 -3.15625 10.066406 -3.394531 10.234375 -3.625 Z M 10.234375 -3.625 "/></g></g></g><g fill="#f5ece6" fill-opacity="1"><g transform="translate(398.621162, 518.86245)"><g/></g></g><g fill="#f5ece6" fill-opacity="1"><g transform="translate(406.198043, 518.86245)"><g><path d="M 27.59375 0.1875 C 27.445312 0.1875 27.207031 0.175781 26.875 0.15625 C 26.539062 0.132812 26.191406 0.113281 25.828125 0.09375 C 25.472656 0.0703125 25.125 0.0507812 24.78125 0.03125 C 24.445312 0.0078125 24.207031 0 24.0625 0 L 23.46875 0 C 23.3125 0 23.066406 0.0078125 22.734375 0.03125 C 22.398438 0.0507812 22.050781 0.0703125 21.6875 0.09375 C 21.332031 0.113281 20.984375 0.132812 20.640625 0.15625 C 20.304688 0.175781 20.066406 0.1875 19.921875 0.1875 L 19.828125 0.0625 L 19.921875 -0.5 L 20.046875 -0.625 C 20.390625 -0.625 20.710938 -0.640625 21.015625 -0.671875 C 21.316406 -0.703125 21.550781 -0.796875 21.71875 -0.953125 C 21.875 -1.097656 22.019531 -1.285156 22.15625 -1.515625 C 22.289062 -1.742188 22.359375 -2.15625 22.359375 -2.75 C 22.359375 -2.894531 22.359375 -3.066406 22.359375 -3.265625 C 22.359375 -3.460938 22.351562 -3.707031 22.34375 -4 C 22.332031 -4.300781 22.316406 -4.660156 22.296875 -5.078125 C 22.273438 -5.503906 22.242188 -6.03125 22.203125 -6.65625 C 22.035156 -8.875 21.898438 -10.640625 21.796875 -11.953125 C 21.703125 -13.265625 21.625 -14.289062 21.5625 -15.03125 C 21.5 -15.769531 21.453125 -16.296875 21.421875 -16.609375 C 21.390625 -16.921875 21.363281 -17.1875 21.34375 -17.40625 C 21.195312 -17.019531 20.960938 -16.429688 20.640625 -15.640625 C 20.328125 -14.859375 19.96875 -13.957031 19.5625 -12.9375 C 19.15625 -11.914062 18.71875 -10.820312 18.25 -9.65625 C 17.789062 -8.5 17.332031 -7.351562 16.875 -6.21875 C 16.425781 -5.082031 15.992188 -4.007812 15.578125 -3 C 15.171875 -1.988281 14.820312 -1.125 14.53125 -0.40625 L 13.046875 -0.40625 L 6.71875 -17.34375 C 6.695312 -17.125 6.675781 -16.898438 6.65625 -16.671875 C 6.632812 -16.441406 6.613281 -16.160156 6.59375 -15.828125 C 6.570312 -15.503906 6.546875 -15.125 6.515625 -14.6875 C 6.484375 -14.257812 6.445312 -13.734375 6.40625 -13.109375 L 5.96875 -7.296875 C 5.90625 -6.578125 5.863281 -5.984375 5.84375 -5.515625 C 5.820312 -5.054688 5.800781 -4.660156 5.78125 -4.328125 C 5.757812 -3.992188 5.75 -3.707031 5.75 -3.46875 C 5.75 -3.238281 5.75 -3 5.75 -2.75 C 5.75 -2.15625 5.816406 -1.742188 5.953125 -1.515625 C 6.085938 -1.285156 6.238281 -1.097656 6.40625 -0.953125 C 6.570312 -0.796875 6.765625 -0.703125 6.984375 -0.671875 C 7.210938 -0.640625 7.492188 -0.625 7.828125 -0.625 L 7.953125 -0.5 L 8.046875 0.0625 L 7.984375 0.1875 C 7.835938 0.1875 7.625 0.175781 7.34375 0.15625 C 7.0625 0.132812 6.769531 0.113281 6.46875 0.09375 C 6.175781 0.0703125 5.882812 0.0507812 5.59375 0.03125 C 5.3125 0.0078125 5.097656 0 4.953125 0 L 4.359375 0 C 4.210938 0 3.972656 0.0078125 3.640625 0.03125 C 3.316406 0.0507812 2.96875 0.0703125 2.59375 0.09375 C 2.226562 0.113281 1.882812 0.132812 1.5625 0.15625 C 1.238281 0.175781 1.003906 0.1875 0.859375 0.1875 L 0.796875 0.0625 L 0.890625 -0.5 L 1.078125 -0.625 C 1.390625 -0.625 1.691406 -0.640625 1.984375 -0.671875 C 2.285156 -0.703125 2.539062 -0.796875 2.75 -0.953125 C 2.914062 -1.097656 3.085938 -1.285156 3.265625 -1.515625 C 3.441406 -1.742188 3.570312 -2.15625 3.65625 -2.75 C 3.675781 -2.894531 3.695312 -3.066406 3.71875 -3.265625 C 3.738281 -3.460938 3.765625 -3.707031 3.796875 -4 C 3.835938 -4.300781 3.878906 -4.660156 3.921875 -5.078125 C 3.960938 -5.503906 4.003906 -6.03125 4.046875 -6.65625 L 4.484375 -13.078125 C 4.546875 -13.804688 4.59375 -14.421875 4.625 -14.921875 C 4.65625 -15.429688 4.675781 -15.863281 4.6875 -16.21875 C 4.695312 -16.582031 4.707031 -16.890625 4.71875 -17.140625 C 4.726562 -17.398438 4.734375 -17.65625 4.734375 -17.90625 C 4.734375 -18.488281 4.644531 -18.898438 4.46875 -19.140625 C 4.289062 -19.390625 4.117188 -19.578125 3.953125 -19.703125 C 3.753906 -19.847656 3.507812 -19.9375 3.21875 -19.96875 C 2.925781 -20 2.613281 -20.015625 2.28125 -20.015625 L 2.109375 -20.140625 L 2.015625 -20.71875 L 2.078125 -20.84375 C 2.234375 -20.84375 2.476562 -20.832031 2.8125 -20.8125 C 3.144531 -20.789062 3.488281 -20.769531 3.84375 -20.75 C 4.207031 -20.726562 4.554688 -20.707031 4.890625 -20.6875 C 5.234375 -20.664062 5.476562 -20.65625 5.625 -20.65625 L 6.71875 -20.65625 C 6.894531 -20.65625 7.132812 -20.664062 7.4375 -20.6875 C 7.738281 -20.707031 7.984375 -20.738281 8.171875 -20.78125 L 8.34375 -20.6875 C 8.363281 -20.40625 8.441406 -20.039062 8.578125 -19.59375 C 8.710938 -19.144531 8.878906 -18.632812 9.078125 -18.0625 C 9.273438 -17.488281 9.488281 -16.878906 9.71875 -16.234375 C 9.957031 -15.597656 10.191406 -14.96875 10.421875 -14.34375 L 12.5625 -8.5 C 12.925781 -7.488281 13.253906 -6.628906 13.546875 -5.921875 C 13.835938 -5.210938 14.101562 -4.585938 14.34375 -4.046875 C 14.40625 -4.148438 14.582031 -4.550781 14.875 -5.25 C 15.164062 -5.957031 15.523438 -6.832031 15.953125 -7.875 C 16.390625 -8.914062 16.847656 -10.054688 17.328125 -11.296875 C 17.816406 -12.546875 18.28125 -13.765625 18.71875 -14.953125 C 19.164062 -16.140625 19.546875 -17.238281 19.859375 -18.25 C 20.179688 -19.257812 20.382812 -20.0625 20.46875 -20.65625 L 20.625 -20.78125 C 20.789062 -20.738281 20.96875 -20.707031 21.15625 -20.6875 C 21.34375 -20.664062 21.519531 -20.65625 21.6875 -20.65625 L 22.828125 -20.65625 C 22.972656 -20.65625 23.210938 -20.664062 23.546875 -20.6875 C 23.890625 -20.707031 24.238281 -20.726562 24.59375 -20.75 C 24.957031 -20.769531 25.304688 -20.789062 25.640625 -20.8125 C 25.972656 -20.832031 26.21875 -20.84375 26.375 -20.84375 L 26.4375 -20.71875 L 26.34375 -20.140625 L 26.171875 -20.015625 C 25.835938 -20.015625 25.515625 -20 25.203125 -19.96875 C 24.898438 -19.9375 24.664062 -19.847656 24.5 -19.703125 C 24.332031 -19.578125 24.160156 -19.382812 23.984375 -19.125 C 23.804688 -18.875 23.71875 -18.46875 23.71875 -17.90625 C 23.71875 -17.613281 23.722656 -17.335938 23.734375 -17.078125 C 23.742188 -16.828125 23.753906 -16.53125 23.765625 -16.1875 C 23.773438 -15.851562 23.796875 -15.441406 23.828125 -14.953125 C 23.859375 -14.472656 23.90625 -13.859375 23.96875 -13.109375 L 24.34375 -7.296875 C 24.40625 -6.535156 24.453125 -5.914062 24.484375 -5.4375 C 24.515625 -4.96875 24.546875 -4.578125 24.578125 -4.265625 C 24.609375 -3.953125 24.640625 -3.679688 24.671875 -3.453125 C 24.703125 -3.234375 24.738281 -3 24.78125 -2.75 C 24.875 -2.15625 25.003906 -1.742188 25.171875 -1.515625 C 25.335938 -1.285156 25.503906 -1.097656 25.671875 -0.953125 C 25.859375 -0.796875 26.101562 -0.703125 26.40625 -0.671875 C 26.71875 -0.640625 27.039062 -0.625 27.375 -0.625 L 27.53125 -0.5 L 27.625 0.0625 Z M 27.59375 0.1875 "/></g></g></g><g fill="#f5ece6" fill-opacity="1"><g transform="translate(434.642893, 518.86245)"><g><path d="M 10.234375 -0.21875 C 10.296875 -0.445312 10.34375 -0.789062 10.375 -1.25 C 10.40625 -1.71875 10.453125 -2.15625 10.515625 -2.5625 L 10.484375 -2.65625 C 10.210938 -2.269531 9.882812 -1.898438 9.5 -1.546875 C 9.125 -1.191406 8.707031 -0.867188 8.25 -0.578125 C 7.800781 -0.296875 7.316406 -0.0703125 6.796875 0.09375 C 6.285156 0.257812 5.742188 0.34375 5.171875 0.34375 C 4.523438 0.34375 3.945312 0.226562 3.4375 0 C 2.9375 -0.226562 2.515625 -0.53125 2.171875 -0.90625 C 1.835938 -1.289062 1.585938 -1.734375 1.421875 -2.234375 C 1.253906 -2.742188 1.171875 -3.273438 1.171875 -3.828125 C 1.171875 -4.597656 1.347656 -5.269531 1.703125 -5.84375 C 2.054688 -6.425781 2.53125 -6.910156 3.125 -7.296875 C 3.675781 -7.628906 4.320312 -7.898438 5.0625 -8.109375 C 5.8125 -8.328125 6.539062 -8.484375 7.25 -8.578125 C 7.957031 -8.671875 8.59375 -8.734375 9.15625 -8.765625 C 9.726562 -8.796875 10.109375 -8.8125 10.296875 -8.8125 L 10.734375 -8.8125 C 10.710938 -9.59375 10.671875 -10.207031 10.609375 -10.65625 C 10.546875 -11.113281 10.460938 -11.488281 10.359375 -11.78125 C 10.128906 -12.40625 9.726562 -12.859375 9.15625 -13.140625 C 8.59375 -13.429688 7.910156 -13.578125 7.109375 -13.578125 C 6.765625 -13.578125 6.398438 -13.546875 6.015625 -13.484375 C 5.628906 -13.421875 5.257812 -13.304688 4.90625 -13.140625 C 4.5625 -12.972656 4.257812 -12.734375 4 -12.421875 C 3.75 -12.117188 3.601562 -11.722656 3.5625 -11.234375 L 3.4375 -11.140625 L 2.75 -11.140625 L 2.46875 -13.484375 L 2.5625 -13.671875 C 2.664062 -13.796875 2.882812 -13.929688 3.21875 -14.078125 C 3.550781 -14.234375 3.941406 -14.378906 4.390625 -14.515625 C 4.847656 -14.648438 5.351562 -14.765625 5.90625 -14.859375 C 6.46875 -14.953125 7.023438 -15 7.578125 -15 C 8.335938 -15 9.039062 -14.898438 9.6875 -14.703125 C 10.34375 -14.503906 10.90625 -14.203125 11.375 -13.796875 C 11.851562 -13.398438 12.226562 -12.898438 12.5 -12.296875 C 12.78125 -11.703125 12.921875 -11.003906 12.921875 -10.203125 C 12.921875 -9.316406 12.914062 -8.53125 12.90625 -7.84375 C 12.894531 -7.164062 12.878906 -6.535156 12.859375 -5.953125 C 12.835938 -5.367188 12.820312 -4.796875 12.8125 -4.234375 C 12.800781 -3.679688 12.796875 -3.09375 12.796875 -2.46875 C 12.835938 -1.976562 12.890625 -1.625 12.953125 -1.40625 C 13.015625 -1.1875 13.117188 -1.023438 13.265625 -0.921875 C 13.429688 -0.742188 13.675781 -0.640625 14 -0.609375 C 14.332031 -0.578125 14.664062 -0.5625 15 -0.5625 L 15.125 -0.4375 L 15.15625 0 L 15.125 0.125 C 14.75 0.0820312 14.335938 0.0507812 13.890625 0.03125 C 13.453125 0.0078125 13.019531 0 12.59375 0 C 11.800781 0 11.078125 0.03125 10.421875 0.09375 Z M 10.234375 -3.625 C 10.296875 -3.738281 10.363281 -3.867188 10.4375 -4.015625 C 10.507812 -4.160156 10.554688 -4.335938 10.578125 -4.546875 L 10.734375 -7.703125 L 10.453125 -7.703125 C 9.609375 -7.703125 8.765625 -7.65625 7.921875 -7.5625 C 7.078125 -7.46875 6.320312 -7.28125 5.65625 -7 C 5 -6.726562 4.457031 -6.347656 4.03125 -5.859375 C 3.613281 -5.378906 3.40625 -4.765625 3.40625 -4.015625 C 3.40625 -3.210938 3.632812 -2.570312 4.09375 -2.09375 C 4.5625 -1.625 5.164062 -1.390625 5.90625 -1.390625 C 6.34375 -1.390625 6.78125 -1.460938 7.21875 -1.609375 C 7.664062 -1.753906 8.082031 -1.941406 8.46875 -2.171875 C 8.863281 -2.410156 9.210938 -2.65625 9.515625 -2.90625 C 9.828125 -3.15625 10.066406 -3.394531 10.234375 -3.625 Z M 10.234375 -3.625 "/></g></g></g><g fill="#f5ece6" fill-opacity="1"><g transform="translate(450.301775, 518.86245)"><g><path d="M 15.15625 -8.5 L 14.65625 -8.28125 C 13.519531 -8.28125 12.347656 -8.265625 11.140625 -8.234375 C 9.941406 -8.210938 8.765625 -8.203125 7.609375 -8.203125 L 3.890625 -8.203125 C 3.867188 -8.054688 3.859375 -7.914062 3.859375 -7.78125 C 3.859375 -7.644531 3.859375 -7.515625 3.859375 -7.390625 C 3.859375 -6.585938 3.972656 -5.820312 4.203125 -5.09375 C 4.429688 -4.375 4.789062 -3.738281 5.28125 -3.1875 C 5.78125 -2.644531 6.421875 -2.207031 7.203125 -1.875 C 7.984375 -1.550781 8.929688 -1.390625 10.046875 -1.390625 C 10.691406 -1.390625 11.390625 -1.457031 12.140625 -1.59375 C 12.890625 -1.726562 13.578125 -1.976562 14.203125 -2.34375 L 14.53125 -2.140625 L 14.53125 -1.578125 L 14.203125 -1.234375 C 13.703125 -0.828125 12.988281 -0.460938 12.0625 -0.140625 C 11.132812 0.179688 10.101562 0.34375 8.96875 0.34375 C 7.851562 0.34375 6.835938 0.160156 5.921875 -0.203125 C 5.003906 -0.578125 4.210938 -1.097656 3.546875 -1.765625 C 2.890625 -2.441406 2.375 -3.242188 2 -4.171875 C 1.632812 -5.097656 1.453125 -6.128906 1.453125 -7.265625 C 1.453125 -8.421875 1.640625 -9.472656 2.015625 -10.421875 C 2.398438 -11.367188 2.921875 -12.175781 3.578125 -12.84375 C 4.242188 -13.519531 5.023438 -14.046875 5.921875 -14.421875 C 6.816406 -14.804688 7.78125 -15 8.8125 -15 C 9.351562 -15 9.96875 -14.925781 10.65625 -14.78125 C 11.34375 -14.632812 12 -14.351562 12.625 -13.9375 C 13.257812 -13.53125 13.828125 -12.953125 14.328125 -12.203125 C 14.835938 -11.453125 15.1875 -10.46875 15.375 -9.25 Z M 8.84375 -13.578125 C 8.164062 -13.578125 7.554688 -13.46875 7.015625 -13.25 C 6.484375 -13.03125 6.007812 -12.734375 5.59375 -12.359375 C 5.1875 -11.992188 4.851562 -11.5625 4.59375 -11.0625 C 4.332031 -10.570312 4.148438 -10.050781 4.046875 -9.5 L 5.28125 -9.5 C 6.414062 -9.5 7.519531 -9.515625 8.59375 -9.546875 C 9.664062 -9.578125 10.789062 -9.625 11.96875 -9.6875 C 12.238281 -9.707031 12.421875 -9.78125 12.515625 -9.90625 C 12.609375 -10.039062 12.65625 -10.191406 12.65625 -10.359375 C 12.65625 -10.484375 12.644531 -10.597656 12.625 -10.703125 C 12.601562 -10.804688 12.570312 -10.910156 12.53125 -11.015625 C 12.300781 -11.816406 11.867188 -12.441406 11.234375 -12.890625 C 10.609375 -13.347656 9.8125 -13.578125 8.84375 -13.578125 Z M 8.84375 -13.578125 "/></g></g></g><g transform="matrix(1, 0, 0, 1, 330, 215)"><g clip-path="url(#99a22b478c)"><g fill="#f5ece6" fill-opacity="1"><g transform="translate(1.484299, 12.651954)"><g><path d="M 5.421875 -10.71875 C 5.566406 -10.71875 5.78125 -10.71875 6.0625 -10.71875 C 6.351562 -10.726562 6.644531 -10.738281 6.9375 -10.75 C 7.238281 -10.757812 7.503906 -10.765625 7.734375 -10.765625 C 7.972656 -10.773438 8.117188 -10.78125 8.171875 -10.78125 L 8.265625 -10.625 L 8.1875 -8.828125 L 7.78125 -8.828125 L 7.71875 -8.90625 C 7.695312 -9.15625 7.664062 -9.347656 7.625 -9.484375 C 7.59375 -9.628906 7.484375 -9.734375 7.296875 -9.796875 C 7.117188 -9.867188 6.847656 -9.910156 6.484375 -9.921875 C 6.128906 -9.929688 5.625 -9.9375 4.96875 -9.9375 L 3.390625 -9.9375 L 3.359375 -9.296875 C 3.347656 -9.117188 3.335938 -8.96875 3.328125 -8.84375 C 3.328125 -8.726562 3.320312 -8.582031 3.3125 -8.40625 C 3.3125 -8.226562 3.3125 -8.015625 3.3125 -7.765625 C 3.3125 -7.523438 3.3125 -6.9375 3.3125 -6 C 3.632812 -6.007812 3.957031 -6.015625 4.28125 -6.015625 C 4.613281 -6.015625 4.914062 -6.019531 5.1875 -6.03125 C 5.457031 -6.039062 5.679688 -6.0625 5.859375 -6.09375 C 6.046875 -6.132812 6.175781 -6.195312 6.25 -6.28125 C 6.332031 -6.363281 6.40625 -6.445312 6.46875 -6.53125 C 6.539062 -6.625 6.578125 -6.753906 6.578125 -6.921875 L 6.65625 -7 L 6.9375 -7.03125 L 7 -7 C 6.976562 -6.75 6.957031 -6.53125 6.9375 -6.34375 C 6.925781 -6.15625 6.921875 -5.941406 6.921875 -5.703125 C 6.921875 -5.441406 6.925781 -5.195312 6.9375 -4.96875 C 6.957031 -4.75 6.976562 -4.507812 7 -4.25 L 6.9375 -4.21875 L 6.640625 -4.25 L 6.578125 -4.296875 C 6.578125 -4.472656 6.539062 -4.632812 6.46875 -4.78125 C 6.40625 -4.925781 6.332031 -5.046875 6.25 -5.140625 C 6.175781 -5.210938 6.046875 -5.265625 5.859375 -5.296875 C 5.679688 -5.328125 5.457031 -5.347656 5.1875 -5.359375 C 4.925781 -5.367188 4.628906 -5.375 4.296875 -5.375 C 3.972656 -5.375 3.644531 -5.375 3.3125 -5.375 L 3.3125 -3.78125 C 3.3125 -3.394531 3.3125 -3.078125 3.3125 -2.828125 C 3.3125 -2.578125 3.3125 -2.359375 3.3125 -2.171875 C 3.320312 -1.984375 3.332031 -1.804688 3.34375 -1.640625 C 3.351562 -1.484375 3.367188 -1.300781 3.390625 -1.09375 C 3.390625 -0.882812 3.5 -0.78125 3.71875 -0.78125 L 5.109375 -0.78125 C 5.765625 -0.78125 6.28125 -0.796875 6.65625 -0.828125 C 7.039062 -0.859375 7.328125 -0.914062 7.515625 -1 C 7.710938 -1.082031 7.851562 -1.210938 7.9375 -1.390625 C 8.019531 -1.578125 8.097656 -1.816406 8.171875 -2.109375 L 8.25 -2.1875 L 8.671875 -2.1875 L 8.375 -0.09375 L 8.25 0.0625 C 8.1875 0.0625 8.054688 0.0546875 7.859375 0.046875 C 7.671875 0.046875 7.453125 0.0390625 7.203125 0.03125 C 6.953125 0.0195312 6.703125 0.0078125 6.453125 0 C 6.210938 0 6.023438 0 5.890625 0 L 2.578125 0 C 2.492188 0 2.363281 0.00390625 2.1875 0.015625 C 2.019531 0.0234375 1.84375 0.0351562 1.65625 0.046875 C 1.46875 0.0546875 1.285156 0.0664062 1.109375 0.078125 C 0.941406 0.0859375 0.816406 0.09375 0.734375 0.09375 L 0.703125 0.03125 L 0.75 -0.265625 L 0.828125 -0.328125 C 1.003906 -0.328125 1.171875 -0.332031 1.328125 -0.34375 C 1.484375 -0.363281 1.609375 -0.410156 1.703125 -0.484375 C 1.785156 -0.566406 1.867188 -0.664062 1.953125 -0.78125 C 2.035156 -0.90625 2.085938 -1.117188 2.109375 -1.421875 C 2.109375 -1.503906 2.109375 -1.597656 2.109375 -1.703125 C 2.117188 -1.804688 2.125 -1.929688 2.125 -2.078125 C 2.132812 -2.234375 2.140625 -2.421875 2.140625 -2.640625 C 2.140625 -2.859375 2.140625 -3.128906 2.140625 -3.453125 L 2.140625 -6.78125 C 2.140625 -7.164062 2.140625 -7.488281 2.140625 -7.75 C 2.140625 -8.007812 2.140625 -8.234375 2.140625 -8.421875 C 2.140625 -8.609375 2.132812 -8.765625 2.125 -8.890625 C 2.125 -9.023438 2.117188 -9.160156 2.109375 -9.296875 C 2.085938 -9.585938 2.035156 -9.796875 1.953125 -9.921875 C 1.867188 -10.046875 1.785156 -10.148438 1.703125 -10.234375 C 1.609375 -10.304688 1.484375 -10.347656 1.328125 -10.359375 C 1.171875 -10.378906 1.003906 -10.390625 0.828125 -10.390625 L 0.75 -10.453125 L 0.703125 -10.75 L 0.734375 -10.8125 C 0.816406 -10.8125 0.941406 -10.804688 1.109375 -10.796875 C 1.285156 -10.785156 1.472656 -10.773438 1.671875 -10.765625 C 1.878906 -10.753906 2.078125 -10.742188 2.265625 -10.734375 C 2.460938 -10.722656 2.617188 -10.71875 2.734375 -10.71875 Z M 5.421875 -10.71875 "/></g></g></g><g fill="#f5ece6" fill-opacity="1"><g transform="translate(13.62494, 12.651954)"><g><path d="M 2.265625 -8.328125 C 2.265625 -8.023438 2.316406 -7.769531 2.421875 -7.5625 C 2.535156 -7.363281 2.703125 -7.1875 2.921875 -7.03125 C 3.148438 -6.875 3.4375 -6.734375 3.78125 -6.609375 C 4.125 -6.484375 4.53125 -6.351562 5 -6.21875 C 5.40625 -6.082031 5.800781 -5.929688 6.1875 -5.765625 C 6.582031 -5.609375 6.9375 -5.398438 7.25 -5.140625 C 7.5625 -4.878906 7.8125 -4.566406 8 -4.203125 C 8.1875 -3.835938 8.28125 -3.394531 8.28125 -2.875 C 8.28125 -2.3125 8.171875 -1.835938 7.953125 -1.453125 C 7.734375 -1.066406 7.441406 -0.75 7.078125 -0.5 C 6.722656 -0.257812 6.304688 -0.0859375 5.828125 0.015625 C 5.347656 0.128906 4.847656 0.1875 4.328125 0.1875 C 3.648438 0.1875 3.03125 0.109375 2.46875 -0.046875 C 1.914062 -0.203125 1.414062 -0.394531 0.96875 -0.625 L 0.90625 -0.828125 L 1.1875 -2.59375 L 1.59375 -2.59375 L 1.671875 -2.484375 C 1.722656 -1.816406 1.988281 -1.328125 2.46875 -1.015625 C 2.957031 -0.710938 3.613281 -0.5625 4.4375 -0.5625 C 5.289062 -0.5625 5.929688 -0.753906 6.359375 -1.140625 C 6.796875 -1.523438 7.015625 -2.03125 7.015625 -2.65625 C 7.015625 -3.039062 6.929688 -3.359375 6.765625 -3.609375 C 6.609375 -3.867188 6.394531 -4.085938 6.125 -4.265625 C 5.851562 -4.453125 5.546875 -4.601562 5.203125 -4.71875 C 4.859375 -4.84375 4.507812 -4.960938 4.15625 -5.078125 C 3.71875 -5.222656 3.3125 -5.378906 2.9375 -5.546875 C 2.5625 -5.710938 2.234375 -5.910156 1.953125 -6.140625 C 1.679688 -6.367188 1.460938 -6.640625 1.296875 -6.953125 C 1.140625 -7.273438 1.0625 -7.65625 1.0625 -8.09375 C 1.0625 -8.613281 1.148438 -9.050781 1.328125 -9.40625 C 1.515625 -9.757812 1.765625 -10.046875 2.078125 -10.265625 C 2.398438 -10.492188 2.769531 -10.65625 3.1875 -10.75 C 3.601562 -10.851562 4.0625 -10.90625 4.5625 -10.90625 C 5.144531 -10.90625 5.695312 -10.847656 6.21875 -10.734375 C 6.75 -10.628906 7.175781 -10.5 7.5 -10.34375 L 7.578125 -10.15625 L 7.34375 -8.703125 L 6.890625 -8.703125 L 6.796875 -8.78125 C 6.773438 -9.070312 6.679688 -9.300781 6.515625 -9.46875 C 6.359375 -9.644531 6.164062 -9.78125 5.9375 -9.875 C 5.71875 -9.976562 5.476562 -10.046875 5.21875 -10.078125 C 4.957031 -10.109375 4.734375 -10.125 4.546875 -10.125 C 3.828125 -10.125 3.265625 -9.96875 2.859375 -9.65625 C 2.460938 -9.34375 2.265625 -8.898438 2.265625 -8.328125 Z M 2.265625 -8.328125 "/></g></g></g><g fill="#f5ece6" fill-opacity="1"><g transform="translate(25.437894, 12.651954)"><g><path d="M 7.0625 0.09375 C 6.988281 0.09375 6.867188 0.0859375 6.703125 0.078125 C 6.535156 0.0664062 6.359375 0.0546875 6.171875 0.046875 C 5.992188 0.0351562 5.820312 0.0234375 5.65625 0.015625 C 5.488281 0.00390625 5.367188 0 5.296875 0 L 4.359375 0 C 4.285156 0 4.164062 0.00390625 4 0.015625 C 3.832031 0.0234375 3.660156 0.0351562 3.484375 0.046875 C 3.304688 0.0546875 3.132812 0.0664062 2.96875 0.078125 C 2.800781 0.0859375 2.679688 0.09375 2.609375 0.09375 L 2.578125 0.03125 L 2.625 -0.265625 L 2.703125 -0.328125 C 2.878906 -0.328125 3.078125 -0.332031 3.296875 -0.34375 C 3.515625 -0.363281 3.664062 -0.410156 3.75 -0.484375 C 3.84375 -0.566406 3.9375 -0.664062 4.03125 -0.78125 C 4.125 -0.90625 4.1875 -1.117188 4.21875 -1.421875 C 4.226562 -1.503906 4.234375 -1.597656 4.234375 -1.703125 C 4.242188 -1.804688 4.25 -1.929688 4.25 -2.078125 C 4.257812 -2.234375 4.265625 -2.421875 4.265625 -2.640625 C 4.265625 -2.859375 4.265625 -3.128906 4.265625 -3.453125 L 4.265625 -6.78125 C 4.265625 -7.488281 4.257812 -8.117188 4.25 -8.671875 C 4.238281 -9.222656 4.226562 -9.644531 4.21875 -9.9375 L 4.03125 -9.9375 C 3.488281 -9.9375 3.039062 -9.929688 2.6875 -9.921875 C 2.332031 -9.921875 2.050781 -9.910156 1.84375 -9.890625 C 1.632812 -9.867188 1.476562 -9.847656 1.375 -9.828125 C 1.269531 -9.804688 1.191406 -9.78125 1.140625 -9.75 C 0.898438 -9.625 0.753906 -9.34375 0.703125 -8.90625 L 0.640625 -8.828125 L 0.265625 -8.828125 L 0.375 -10.703125 L 0.4375 -10.84375 L 0.546875 -10.90625 C 0.628906 -10.863281 0.816406 -10.828125 1.109375 -10.796875 C 1.410156 -10.773438 1.734375 -10.757812 2.078125 -10.75 C 2.429688 -10.738281 2.769531 -10.726562 3.09375 -10.71875 C 3.414062 -10.71875 3.644531 -10.71875 3.78125 -10.71875 L 5.84375 -10.71875 C 5.988281 -10.71875 6.222656 -10.71875 6.546875 -10.71875 C 6.867188 -10.726562 7.203125 -10.738281 7.546875 -10.75 C 7.898438 -10.757812 8.222656 -10.773438 8.515625 -10.796875 C 8.816406 -10.828125 9.007812 -10.863281 9.09375 -10.90625 L 9.1875 -10.84375 L 9.265625 -10.703125 L 9.390625 -8.828125 L 9 -8.828125 L 8.9375 -8.90625 C 8.875 -9.34375 8.722656 -9.625 8.484375 -9.75 C 8.441406 -9.78125 8.367188 -9.804688 8.265625 -9.828125 C 8.160156 -9.847656 8 -9.867188 7.78125 -9.890625 C 7.570312 -9.910156 7.289062 -9.921875 6.9375 -9.921875 C 6.59375 -9.929688 6.15625 -9.9375 5.625 -9.9375 L 5.4375 -9.9375 C 5.425781 -9.613281 5.414062 -9.195312 5.40625 -8.6875 C 5.40625 -8.175781 5.40625 -7.546875 5.40625 -6.796875 L 5.40625 -3.78125 C 5.40625 -3.394531 5.40625 -3.078125 5.40625 -2.828125 C 5.40625 -2.578125 5.40625 -2.367188 5.40625 -2.203125 C 5.414062 -2.046875 5.421875 -1.910156 5.421875 -1.796875 C 5.429688 -1.679688 5.441406 -1.554688 5.453125 -1.421875 C 5.472656 -1.117188 5.53125 -0.90625 5.625 -0.78125 C 5.726562 -0.664062 5.828125 -0.566406 5.921875 -0.484375 C 6.003906 -0.410156 6.15625 -0.363281 6.375 -0.34375 C 6.59375 -0.332031 6.789062 -0.328125 6.96875 -0.328125 L 7.046875 -0.265625 L 7.09375 0.03125 Z M 7.0625 0.09375 "/></g></g></g><g fill="#f5ece6" fill-opacity="1"><g transform="translate(37.873453, 12.651954)"><g><path d="M 2.109375 -9.296875 C 2.085938 -9.566406 2.039062 -9.769531 1.96875 -9.90625 C 1.894531 -10.039062 1.804688 -10.148438 1.703125 -10.234375 C 1.609375 -10.285156 1.507812 -10.320312 1.40625 -10.34375 C 1.300781 -10.375 1.109375 -10.390625 0.828125 -10.390625 L 0.75 -10.453125 L 0.703125 -10.75 L 0.734375 -10.8125 C 0.816406 -10.8125 0.925781 -10.804688 1.0625 -10.796875 C 1.207031 -10.785156 1.359375 -10.773438 1.515625 -10.765625 C 1.679688 -10.753906 1.84375 -10.742188 2 -10.734375 C 2.164062 -10.722656 2.304688 -10.71875 2.421875 -10.71875 L 3.359375 -10.71875 C 3.503906 -10.71875 3.679688 -10.71875 3.890625 -10.71875 C 4.109375 -10.726562 4.328125 -10.738281 4.546875 -10.75 C 4.773438 -10.757812 4.992188 -10.765625 5.203125 -10.765625 C 5.421875 -10.773438 5.59375 -10.78125 5.71875 -10.78125 C 6.570312 -10.78125 7.332031 -10.632812 8 -10.34375 C 8.675781 -10.0625 9.242188 -9.671875 9.703125 -9.171875 C 10.160156 -8.679688 10.507812 -8.109375 10.75 -7.453125 C 11 -6.796875 11.125 -6.101562 11.125 -5.375 C 11.125 -4.65625 11.003906 -3.96875 10.765625 -3.3125 C 10.535156 -2.664062 10.191406 -2.09375 9.734375 -1.59375 C 9.273438 -1.101562 8.703125 -0.707031 8.015625 -0.40625 C 7.328125 -0.113281 6.53125 0.03125 5.625 0.03125 C 5.519531 0.03125 5.367188 0.0234375 5.171875 0.015625 C 4.984375 0.015625 4.78125 0.015625 4.5625 0.015625 C 4.34375 0.015625 4.128906 0.0078125 3.921875 0 C 3.722656 0 3.5625 0 3.4375 0 L 2.578125 0 C 2.492188 0 2.363281 0.00390625 2.1875 0.015625 C 2.019531 0.0234375 1.84375 0.0351562 1.65625 0.046875 C 1.46875 0.0546875 1.285156 0.0664062 1.109375 0.078125 C 0.941406 0.0859375 0.816406 0.09375 0.734375 0.09375 L 0.703125 0.03125 L 0.75 -0.265625 L 0.828125 -0.328125 C 0.960938 -0.328125 1.117188 -0.332031 1.296875 -0.34375 C 1.472656 -0.363281 1.609375 -0.40625 1.703125 -0.46875 C 1.785156 -0.539062 1.863281 -0.644531 1.9375 -0.78125 C 2.019531 -0.925781 2.078125 -1.140625 2.109375 -1.421875 C 2.109375 -1.503906 2.109375 -1.597656 2.109375 -1.703125 C 2.117188 -1.804688 2.125 -1.929688 2.125 -2.078125 C 2.132812 -2.234375 2.140625 -2.421875 2.140625 -2.640625 C 2.140625 -2.859375 2.140625 -3.128906 2.140625 -3.453125 L 2.140625 -6.78125 C 2.140625 -6.894531 2.140625 -7.0625 2.140625 -7.28125 C 2.140625 -7.507812 2.140625 -7.75 2.140625 -8 C 2.140625 -8.25 2.132812 -8.492188 2.125 -8.734375 C 2.125 -8.972656 2.117188 -9.160156 2.109375 -9.296875 Z M 5.734375 -0.78125 C 6.390625 -0.78125 6.96875 -0.898438 7.46875 -1.140625 C 7.976562 -1.390625 8.40625 -1.71875 8.75 -2.125 C 9.09375 -2.53125 9.351562 -3.007812 9.53125 -3.5625 C 9.707031 -4.125 9.796875 -4.726562 9.796875 -5.375 C 9.796875 -6.03125 9.703125 -6.632812 9.515625 -7.1875 C 9.335938 -7.75 9.066406 -8.234375 8.703125 -8.640625 C 8.347656 -9.046875 7.914062 -9.363281 7.40625 -9.59375 C 6.894531 -9.820312 6.3125 -9.9375 5.65625 -9.9375 L 3.390625 -9.9375 C 3.367188 -9.613281 3.351562 -9.34375 3.34375 -9.125 C 3.34375 -8.914062 3.335938 -8.703125 3.328125 -8.484375 C 3.316406 -8.265625 3.3125 -8.023438 3.3125 -7.765625 C 3.3125 -7.515625 3.3125 -7.191406 3.3125 -6.796875 L 3.3125 -3.78125 C 3.3125 -3.125 3.3125 -2.613281 3.3125 -2.25 C 3.320312 -1.882812 3.335938 -1.609375 3.359375 -1.421875 C 3.390625 -1.140625 3.457031 -0.960938 3.5625 -0.890625 C 3.675781 -0.816406 3.875 -0.78125 4.15625 -0.78125 Z M 5.734375 -0.78125 "/></g></g></g><g fill="#f5ece6" fill-opacity="1"><g transform="translate(52.684707, 12.651954)"><g/></g></g><g fill="#f5ece6" fill-opacity="1"><g transform="translate(59.402186, 12.651954)"><g><path d="M 0.984375 -8.953125 L 1.03125 -9.09375 C 1.164062 -9.320312 1.328125 -9.546875 1.515625 -9.765625 C 1.710938 -9.984375 1.953125 -10.175781 2.234375 -10.34375 C 2.515625 -10.507812 2.832031 -10.644531 3.1875 -10.75 C 3.539062 -10.851562 3.941406 -10.90625 4.390625 -10.90625 C 5.535156 -10.90625 6.359375 -10.648438 6.859375 -10.140625 C 7.367188 -9.628906 7.625 -8.941406 7.625 -8.078125 C 7.625 -7.566406 7.5 -7.097656 7.25 -6.671875 C 7.007812 -6.242188 6.707031 -5.785156 6.34375 -5.296875 C 6.039062 -4.878906 5.679688 -4.4375 5.265625 -3.96875 C 4.859375 -3.5 4.472656 -3.050781 4.109375 -2.625 C 3.742188 -2.195312 3.429688 -1.820312 3.171875 -1.5 C 2.910156 -1.175781 2.78125 -0.953125 2.78125 -0.828125 L 2.8125 -0.78125 L 4.09375 -0.78125 C 4.75 -0.78125 5.273438 -0.785156 5.671875 -0.796875 C 6.066406 -0.816406 6.375 -0.867188 6.59375 -0.953125 C 6.8125 -1.046875 6.972656 -1.175781 7.078125 -1.34375 C 7.179688 -1.519531 7.269531 -1.765625 7.34375 -2.078125 L 7.421875 -2.1875 L 7.875 -2.1875 L 7.578125 -0.0625 L 7.421875 0.09375 C 7.347656 0.09375 7.164062 0.0859375 6.875 0.078125 C 6.582031 0.0664062 6.265625 0.0546875 5.921875 0.046875 C 5.578125 0.0351562 5.242188 0.0234375 4.921875 0.015625 C 4.597656 0.00390625 4.367188 0 4.234375 0 L 2.609375 0 C 2.367188 0 2.097656 0.0078125 1.796875 0.03125 C 1.492188 0.0507812 1.203125 0.0703125 0.921875 0.09375 L 0.75 -0.078125 L 0.75 -0.453125 C 0.988281 -0.765625 1.3125 -1.148438 1.71875 -1.609375 C 2.132812 -2.078125 2.570312 -2.570312 3.03125 -3.09375 C 3.488281 -3.613281 3.941406 -4.132812 4.390625 -4.65625 C 4.835938 -5.1875 5.222656 -5.671875 5.546875 -6.109375 C 5.796875 -6.460938 6.003906 -6.8125 6.171875 -7.15625 C 6.335938 -7.507812 6.421875 -7.882812 6.421875 -8.28125 C 6.421875 -8.820312 6.21875 -9.25 5.8125 -9.5625 C 5.40625 -9.875 4.898438 -10.03125 4.296875 -10.03125 C 3.578125 -10.03125 2.992188 -9.847656 2.546875 -9.484375 C 2.097656 -9.117188 1.847656 -8.566406 1.796875 -7.828125 L 1.734375 -7.765625 L 1.1875 -7.765625 Z M 0.984375 -8.953125 "/></g></g></g><g fill="#f5ece6" fill-opacity="1"><g transform="translate(70.969388, 12.651954)"><g><path d="M 5.296875 -10.90625 C 5.984375 -10.90625 6.597656 -10.753906 7.140625 -10.453125 C 7.679688 -10.160156 8.132812 -9.757812 8.5 -9.25 C 8.875 -8.738281 9.160156 -8.148438 9.359375 -7.484375 C 9.554688 -6.816406 9.65625 -6.117188 9.65625 -5.390625 C 9.65625 -4.671875 9.554688 -3.972656 9.359375 -3.296875 C 9.171875 -2.628906 8.890625 -2.035156 8.515625 -1.515625 C 8.148438 -1.003906 7.6875 -0.59375 7.125 -0.28125 C 6.570312 0.03125 5.9375 0.1875 5.21875 0.1875 C 4.5 0.1875 3.875 0.0390625 3.34375 -0.25 C 2.820312 -0.550781 2.378906 -0.953125 2.015625 -1.453125 C 1.660156 -1.953125 1.394531 -2.53125 1.21875 -3.1875 C 1.039062 -3.84375 0.953125 -4.539062 0.953125 -5.28125 C 0.953125 -6.050781 1.050781 -6.773438 1.25 -7.453125 C 1.445312 -8.140625 1.726562 -8.738281 2.09375 -9.25 C 2.46875 -9.757812 2.921875 -10.160156 3.453125 -10.453125 C 3.992188 -10.753906 4.609375 -10.90625 5.296875 -10.90625 Z M 5.28125 -0.6875 C 5.769531 -0.6875 6.207031 -0.804688 6.59375 -1.046875 C 6.976562 -1.296875 7.300781 -1.632812 7.5625 -2.0625 C 7.832031 -2.488281 8.035156 -2.984375 8.171875 -3.546875 C 8.316406 -4.117188 8.390625 -4.726562 8.390625 -5.375 C 8.390625 -6.03125 8.316406 -6.640625 8.171875 -7.203125 C 8.023438 -7.773438 7.8125 -8.269531 7.53125 -8.6875 C 7.257812 -9.113281 6.929688 -9.441406 6.546875 -9.671875 C 6.160156 -9.910156 5.722656 -10.03125 5.234375 -10.03125 C 4.734375 -10.03125 4.296875 -9.910156 3.921875 -9.671875 C 3.554688 -9.441406 3.25 -9.117188 3 -8.703125 C 2.75 -8.285156 2.554688 -7.796875 2.421875 -7.234375 C 2.296875 -6.671875 2.234375 -6.054688 2.234375 -5.390625 C 2.234375 -4.660156 2.304688 -4.003906 2.453125 -3.421875 C 2.597656 -2.847656 2.804688 -2.359375 3.078125 -1.953125 C 3.347656 -1.546875 3.671875 -1.234375 4.046875 -1.015625 C 4.421875 -0.796875 4.832031 -0.6875 5.28125 -0.6875 Z M 5.28125 -0.6875 "/></g></g></g><g fill="#f5ece6" fill-opacity="1"><g transform="translate(84.338846, 12.651954)"><g><path d="M 0.984375 -8.953125 L 1.03125 -9.09375 C 1.164062 -9.320312 1.328125 -9.546875 1.515625 -9.765625 C 1.710938 -9.984375 1.953125 -10.175781 2.234375 -10.34375 C 2.515625 -10.507812 2.832031 -10.644531 3.1875 -10.75 C 3.539062 -10.851562 3.941406 -10.90625 4.390625 -10.90625 C 5.535156 -10.90625 6.359375 -10.648438 6.859375 -10.140625 C 7.367188 -9.628906 7.625 -8.941406 7.625 -8.078125 C 7.625 -7.566406 7.5 -7.097656 7.25 -6.671875 C 7.007812 -6.242188 6.707031 -5.785156 6.34375 -5.296875 C 6.039062 -4.878906 5.679688 -4.4375 5.265625 -3.96875 C 4.859375 -3.5 4.472656 -3.050781 4.109375 -2.625 C 3.742188 -2.195312 3.429688 -1.820312 3.171875 -1.5 C 2.910156 -1.175781 2.78125 -0.953125 2.78125 -0.828125 L 2.8125 -0.78125 L 4.09375 -0.78125 C 4.75 -0.78125 5.273438 -0.785156 5.671875 -0.796875 C 6.066406 -0.816406 6.375 -0.867188 6.59375 -0.953125 C 6.8125 -1.046875 6.972656 -1.175781 7.078125 -1.34375 C 7.179688 -1.519531 7.269531 -1.765625 7.34375 -2.078125 L 7.421875 -2.1875 L 7.875 -2.1875 L 7.578125 -0.0625 L 7.421875 0.09375 C 7.347656 0.09375 7.164062 0.0859375 6.875 0.078125 C 6.582031 0.0664062 6.265625 0.0546875 5.921875 0.046875 C 5.578125 0.0351562 5.242188 0.0234375 4.921875 0.015625 C 4.597656 0.00390625 4.367188 0 4.234375 0 L 2.609375 0 C 2.367188 0 2.097656 0.0078125 1.796875 0.03125 C 1.492188 0.0507812 1.203125 0.0703125 0.921875 0.09375 L 0.75 -0.078125 L 0.75 -0.453125 C 0.988281 -0.765625 1.3125 -1.148438 1.71875 -1.609375 C 2.132812 -2.078125 2.570312 -2.570312 3.03125 -3.09375 C 3.488281 -3.613281 3.941406 -4.132812 4.390625 -4.65625 C 4.835938 -5.1875 5.222656 -5.671875 5.546875 -6.109375 C 5.796875 -6.460938 6.003906 -6.8125 6.171875 -7.15625 C 6.335938 -7.507812 6.421875 -7.882812 6.421875 -8.28125 C 6.421875 -8.820312 6.21875 -9.25 5.8125 -9.5625 C 5.40625 -9.875 4.898438 -10.03125 4.296875 -10.03125 C 3.578125 -10.03125 2.992188 -9.847656 2.546875 -9.484375 C 2.097656 -9.117188 1.847656 -8.566406 1.796875 -7.828125 L 1.734375 -7.765625 L 1.1875 -7.765625 Z M 0.984375 -8.953125 "/></g></g></g><g fill="#f5ece6" fill-opacity="1"><g transform="translate(95.906048, 12.651954)"><g><path d="M 5.296875 -10.90625 C 5.984375 -10.90625 6.597656 -10.753906 7.140625 -10.453125 C 7.679688 -10.160156 8.132812 -9.757812 8.5 -9.25 C 8.875 -8.738281 9.160156 -8.148438 9.359375 -7.484375 C 9.554688 -6.816406 9.65625 -6.117188 9.65625 -5.390625 C 9.65625 -4.671875 9.554688 -3.972656 9.359375 -3.296875 C 9.171875 -2.628906 8.890625 -2.035156 8.515625 -1.515625 C 8.148438 -1.003906 7.6875 -0.59375 7.125 -0.28125 C 6.570312 0.03125 5.9375 0.1875 5.21875 0.1875 C 4.5 0.1875 3.875 0.0390625 3.34375 -0.25 C 2.820312 -0.550781 2.378906 -0.953125 2.015625 -1.453125 C 1.660156 -1.953125 1.394531 -2.53125 1.21875 -3.1875 C 1.039062 -3.84375 0.953125 -4.539062 0.953125 -5.28125 C 0.953125 -6.050781 1.050781 -6.773438 1.25 -7.453125 C 1.445312 -8.140625 1.726562 -8.738281 2.09375 -9.25 C 2.46875 -9.757812 2.921875 -10.160156 3.453125 -10.453125 C 3.992188 -10.753906 4.609375 -10.90625 5.296875 -10.90625 Z M 5.28125 -0.6875 C 5.769531 -0.6875 6.207031 -0.804688 6.59375 -1.046875 C 6.976562 -1.296875 7.300781 -1.632812 7.5625 -2.0625 C 7.832031 -2.488281 8.035156 -2.984375 8.171875 -3.546875 C 8.316406 -4.117188 8.390625 -4.726562 8.390625 -5.375 C 8.390625 -6.03125 8.316406 -6.640625 8.171875 -7.203125 C 8.023438 -7.773438 7.8125 -8.269531 7.53125 -8.6875 C 7.257812 -9.113281 6.929688 -9.441406 6.546875 -9.671875 C 6.160156 -9.910156 5.722656 -10.03125 5.234375 -10.03125 C 4.734375 -10.03125 4.296875 -9.910156 3.921875 -9.671875 C 3.554688 -9.441406 3.25 -9.117188 3 -8.703125 C 2.75 -8.285156 2.554688 -7.796875 2.421875 -7.234375 C 2.296875 -6.671875 2.234375 -6.054688 2.234375 -5.390625 C 2.234375 -4.660156 2.304688 -4.003906 2.453125 -3.421875 C 2.597656 -2.847656 2.804688 -2.359375 3.078125 -1.953125 C 3.347656 -1.546875 3.671875 -1.234375 4.046875 -1.015625 C 4.421875 -0.796875 4.832031 -0.6875 5.28125 -0.6875 Z M 5.28125 -0.6875 "/></g></g></g></g></g></svg>