<svg xmlns="http://www.w3.org/2000/svg" xmlns:xlink="http://www.w3.org/1999/xlink" width="1024" zoomAndPan="magnify" viewBox="0 0 768 767.999994" height="1024" preserveAspectRatio="xMidYMid meet" version="1.0"><defs><g/><clipPath id="1b49524224"><rect x="0" width="289" y="0" height="127"/></clipPath><clipPath id="e1579fd6d5"><rect x="0" width="212" y="0" height="28"/></clipPath></defs><path fill="#f5ece6" d="M 457.148438 415.117188 L 457.132812 415.023438 C 457.074219 414.734375 457.160156 414.773438 456.839844 413.707031 C 456.710938 413.300781 456.546875 412.898438 456.363281 412.523438 C 456.183594 412.183594 456.070312 412.050781 455.914062 411.808594 C 455.765625 411.59375 455.613281 411.386719 455.453125 411.175781 C 455.296875 410.976562 455.15625 410.851562 455.003906 410.6875 C 454.707031 410.390625 454.375 410.035156 454.097656 409.835938 L 453.21875 409.15625 L 452.378906 408.621094 C 451.265625 407.933594 450.214844 407.457031 449.167969 407.007812 C 447.097656 406.148438 445.097656 405.535156 443.109375 405.003906 C 441.128906 404.46875 439.164062 404.042969 437.21875 403.671875 C 433.328125 402.925781 429.503906 402.363281 425.742188 401.960938 C 418.214844 401.132812 410.957031 400.753906 404.082031 400.628906 C 397.207031 400.5 390.714844 400.648438 384.738281 400.953125 C 378.761719 401.210938 373.292969 401.675781 368.464844 402.199219 C 363.632812 402.695312 359.441406 403.304688 356 403.863281 C 352.558594 404.410156 349.875 404.964844 348.050781 405.339844 C 346.226562 405.726562 345.261719 405.960938 345.261719 405.960938 L 345.3125 406.328125 C 345.3125 406.328125 346.300781 406.289062 348.160156 406.207031 C 350.011719 406.109375 352.738281 406.050781 356.191406 405.953125 C 359.648438 405.875 363.84375 405.867188 368.644531 405.882812 C 371.046875 405.902344 373.601562 405.945312 376.292969 406.03125 C 378.996094 406.097656 381.792969 406.164062 384.757812 406.292969 C 387.703125 406.414062 390.769531 406.578125 393.9375 406.792969 C 397.109375 406.976562 400.382812 407.210938 403.734375 407.496094 C 410.445312 408.046875 417.496094 408.808594 424.6875 409.90625 C 428.277344 410.476562 431.914062 411.089844 435.496094 411.914062 C 437.292969 412.308594 439.0625 412.78125 440.800781 413.273438 C 442.535156 413.773438 444.238281 414.339844 445.75 415.007812 C 446.261719 415.242188 446.761719 415.484375 447.199219 415.730469 C 446.167969 416.285156 444.84375 416.828125 443.488281 417.273438 C 442.617188 417.574219 441.871094 417.792969 440.863281 418.078125 L 438.179688 418.777344 C 434.519531 419.65625 430.730469 420.339844 426.929688 420.90625 C 423.128906 421.488281 419.300781 421.960938 415.488281 422.339844 C 407.867188 423.125 400.292969 423.601562 392.972656 423.910156 C 385.605469 424.199219 378.535156 424.328125 371.785156 424.277344 C 365.050781 424.210938 358.675781 424.058594 352.808594 423.6875 C 346.945312 423.300781 341.578125 422.824219 336.867188 422.152344 C 332.171875 421.445312 328.09375 420.65625 324.929688 419.550781 C 323.359375 418.988281 322 418.367188 321.042969 417.621094 C 320.832031 417.421875 320.566406 417.257812 320.421875 417.042969 C 320.335938 416.941406 320.253906 416.84375 320.171875 416.746094 C 320.117188 416.65625 320.066406 416.570312 320.015625 416.480469 C 319.878906 416.351562 319.859375 416.007812 319.792969 415.777344 C 319.761719 415.675781 319.777344 415.402344 319.8125 415.234375 C 319.976562 414.464844 320.457031 413.914062 320.753906 413.574219 C 321.0625 413.238281 321.257812 413.070312 321.257812 413.070312 L 321.027344 412.78125 C 321.027344 412.78125 320.820312 412.902344 320.417969 413.207031 C 320.046875 413.523438 319.394531 413.976562 318.992188 414.996094 C 318.90625 415.273438 318.824219 415.492188 318.835938 415.90625 C 318.871094 416.175781 318.820312 416.402344 318.96875 416.78125 C 319.027344 416.953125 319.085938 417.144531 319.160156 417.316406 C 319.25 417.464844 319.339844 417.617188 319.429688 417.769531 C 319.605469 418.101562 319.863281 418.332031 320.105469 418.632812 C 321.125 419.730469 322.519531 420.605469 324.121094 421.421875 C 327.332031 423.03125 331.410156 424.449219 336.160156 425.667969 C 340.910156 426.882812 346.316406 428.007812 352.261719 428.859375 C 358.199219 429.75 364.660156 430.503906 371.515625 430.984375 C 378.359375 431.484375 385.636719 431.773438 393.105469 431.78125 C 396.875 431.804688 400.679688 431.746094 404.546875 431.597656 C 408.410156 431.460938 412.328125 431.257812 416.273438 430.925781 C 424.171875 430.292969 432.179688 429.308594 440.253906 427.441406 C 441.277344 427.1875 442.261719 426.945312 443.316406 426.652344 C 444.210938 426.394531 445.363281 426.050781 446.359375 425.699219 C 447.382812 425.351562 448.417969 424.957031 449.472656 424.492188 C 450.523438 424.035156 451.597656 423.496094 452.722656 422.761719 C 453.285156 422.398438 453.867188 421.976562 454.464844 421.421875 C 454.753906 421.183594 455.085938 420.804688 455.375 420.488281 C 455.683594 420.09375 455.984375 419.710938 456.269531 419.199219 C 456.410156 418.9375 456.542969 418.667969 456.664062 418.398438 C 456.785156 418.097656 456.886719 417.769531 456.976562 417.445312 C 457.070312 417.136719 457.117188 416.769531 457.152344 416.414062 L 457.191406 415.875 C 457.207031 415.890625 457.117188 414.605469 457.148438 415.117188 " fill-opacity="1" fill-rule="nonzero"/><path fill="#f5ece6" d="M 499 320.445312 L 498.890625 323.03125 L 498.808594 324.976562 C 498.796875 325.039062 498.789062 325.117188 498.785156 325.183594 C 498.636719 325.941406 498.527344 326.714844 498.4375 327.484375 L 498.304688 328.484375 C 498.28125 328.808594 498.210938 329.152344 498.113281 329.523438 C 497.941406 330.230469 497.777344 330.9375 497.609375 331.644531 C 497.429688 332.359375 497.332031 333.082031 497.054688 333.75 C 496.820312 334.441406 496.597656 335.125 496.363281 335.800781 C 496.128906 336.496094 495.949219 337.1875 495.625 337.832031 C 495.332031 338.496094 495.046875 339.148438 494.769531 339.796875 C 494.476562 340.457031 494.210938 341.125 493.84375 341.726562 C 491.226562 346.765625 487.761719 351.195312 483.855469 354.8125 C 479.976562 358.46875 475.597656 361.191406 471.28125 363.1875 C 470.742188 363.445312 470.207031 363.703125 469.667969 363.941406 C 469.132812 364.183594 468.589844 364.347656 468.050781 364.558594 C 466.96875 364.925781 465.921875 365.386719 464.863281 365.6875 C 462.71875 366.199219 460.6875 366.890625 458.703125 367.097656 C 458.214844 367.1875 457.722656 367.277344 457.242188 367.355469 C 457.410156 366.792969 457.589844 366.226562 457.78125 365.664062 C 458.101562 364.671875 458.445312 363.679688 458.808594 362.695312 C 459.035156 362.09375 459.277344 361.453125 459.515625 360.867188 C 459.824219 360.65625 460.132812 360.445312 460.433594 360.234375 C 461.757812 359.285156 462.972656 358.25 464.109375 357.195312 C 465.222656 356.097656 466.222656 354.972656 467.101562 353.804688 C 468.816406 351.449219 469.996094 348.957031 470.496094 346.601562 C 470.546875 346.308594 470.605469 346.023438 470.667969 345.734375 C 470.699219 345.449219 470.734375 345.171875 470.769531 344.894531 C 470.855469 344.359375 470.847656 343.765625 470.863281 343.246094 C 470.871094 342.714844 470.800781 342.3125 470.78125 341.878906 C 470.75 341.328125 470.675781 340.953125 470.59375 340.53125 C 470.261719 338.894531 469.722656 337.71875 469.34375 336.953125 C 469.148438 336.570312 468.972656 336.277344 468.863281 336.085938 C 468.75 335.90625 468.691406 335.816406 468.691406 335.816406 L 467.996094 336.105469 C 467.996094 336.105469 468.105469 336.539062 468.238281 337.320312 C 468.378906 338.101562 468.5 339.269531 468.417969 340.695312 C 468.398438 341.035156 468.359375 341.464844 468.296875 341.765625 C 468.226562 342.171875 468.167969 342.660156 468.058594 343.050781 C 467.847656 343.796875 467.605469 344.675781 467.179688 345.523438 C 466.789062 346.398438 466.277344 347.269531 465.644531 348.125 C 465.042969 349 464.261719 349.824219 463.433594 350.652344 C 461.738281 352.292969 459.621094 353.820312 457.191406 355.152344 C 456.425781 355.566406 455.636719 355.96875 454.8125 356.351562 C 454.335938 356.589844 453.835938 356.804688 453.335938 357.007812 C 452.898438 357.195312 452.453125 357.382812 452 357.554688 C 451.070312 357.925781 450.101562 358.269531 449.105469 358.585938 C 446.191406 359.558594 443.078125 360.300781 439.867188 360.851562 C 438.261719 361.121094 436.632812 361.355469 434.992188 361.527344 C 434.164062 361.601562 433.347656 361.691406 432.511719 361.738281 C 431.683594 361.804688 430.859375 361.859375 430.027344 361.886719 C 429.195312 361.941406 428.359375 361.941406 427.53125 361.964844 L 427.277344 361.972656 L 426.949219 361.964844 L 426.292969 361.964844 L 424.992188 361.949219 C 423.398438 361.917969 421.738281 361.859375 420.101562 361.710938 C 416.832031 361.46875 413.644531 360.992188 410.605469 360.347656 C 409.078125 360.023438 407.605469 359.640625 406.171875 359.242188 C 404.738281 358.808594 403.351562 358.359375 402.027344 357.847656 C 399.371094 356.859375 396.980469 355.664062 394.886719 354.375 C 392.808594 353.085938 391.078125 351.660156 389.703125 350.234375 C 388.324219 348.804688 387.371094 347.34375 386.714844 346.066406 C 386.054688 344.78125 385.746094 343.660156 385.535156 342.886719 C 385.375 342.101562 385.292969 341.683594 385.292969 341.683594 L 384.542969 341.683594 C 384.542969 341.683594 384.480469 342.128906 384.40625 342.992188 C 384.414062 343.839844 384.367188 345.140625 384.753906 346.75 C 385.121094 348.351562 385.828125 350.277344 387.070312 352.234375 C 388.105469 353.886719 389.480469 355.578125 391.167969 357.183594 C 389.136719 357.007812 387.105469 356.890625 385.066406 356.820312 C 381.210938 356.683594 377.335938 356.730469 373.480469 356.925781 C 372.621094 356.972656 371.765625 357.015625 370.914062 357.101562 C 370.894531 357.082031 370.871094 357.101562 370.847656 357.101562 L 370.8125 357.101562 C 370.457031 357.105469 370.015625 357.125 369.496094 357.144531 C 368.726562 357.1875 367.808594 357.152344 366.757812 357.125 C 365.679688 357.144531 364.5 357.054688 363.207031 356.949219 C 362.546875 356.917969 361.878906 356.84375 361.199219 356.738281 C 360.507812 356.648438 359.769531 356.578125 359.050781 356.453125 C 358.320312 356.316406 357.5625 356.179688 356.792969 356.039062 C 356.046875 355.855469 355.265625 355.667969 354.484375 355.480469 C 354.410156 355.457031 354.328125 355.4375 354.25 355.414062 C 353.539062 355.21875 352.84375 354.984375 352.125 354.773438 C 351.964844 354.722656 351.800781 354.675781 351.644531 354.609375 C 351.003906 354.398438 350.378906 354.152344 349.730469 353.917969 C 348.941406 353.601562 348.160156 353.234375 347.355469 352.902344 C 346.597656 352.503906 345.800781 352.132812 345.039062 351.699219 C 343.527344 350.839844 342.023438 349.902344 340.65625 348.839844 C 339.25 347.804688 337.957031 346.667969 336.753906 345.472656 C 335.542969 344.316406 334.488281 343.050781 333.503906 341.839844 C 332.550781 340.601562 331.683594 339.382812 330.960938 338.214844 C 329.511719 335.863281 328.519531 333.742188 327.917969 332.222656 C 327.316406 330.703125 327.082031 329.824219 327.082031 329.824219 C 327.015625 329.566406 326.78125 329.386719 326.511719 329.402344 C 326.203125 329.425781 325.960938 329.679688 325.976562 329.988281 L 325.984375 330.003906 C 325.984375 330.003906 326.03125 330.996094 326.34375 332.679688 C 326.644531 334.351562 327.21875 336.742188 328.242188 339.53125 C 328.742188 340.921875 329.390625 342.398438 330.148438 343.945312 C 330.941406 345.464844 331.8125 347.066406 332.878906 348.628906 C 333.941406 350.21875 335.136719 351.789062 336.472656 353.292969 C 337.796875 354.820312 339.292969 356.234375 340.84375 357.609375 C 341.625 358.289062 342.460938 358.902344 343.265625 359.558594 C 344.070312 360.125 344.84375 360.699219 345.648438 361.234375 C 345.347656 361.3125 345.039062 361.378906 344.738281 361.460938 C 342.859375 361.996094 340.964844 362.476562 339.113281 363.0625 C 337.25 363.640625 335.378906 364.21875 333.535156 364.878906 C 331.683594 365.5 329.871094 366.199219 328.039062 366.894531 C 326.601562 367.425781 325.195312 368.039062 323.78125 368.640625 C 323.421875 368.484375 323.066406 368.339844 322.699219 368.199219 L 320.953125 367.304688 C 319.742188 366.769531 318.667969 365.988281 317.503906 365.316406 C 315.289062 363.8125 313.078125 362.160156 311.15625 360.210938 C 309.167969 358.332031 307.394531 356.226562 305.777344 354.0625 C 304.144531 351.917969 302.785156 349.644531 301.527344 347.453125 C 300.332031 345.214844 299.25 343.050781 298.402344 340.976562 C 296.625 336.839844 295.574219 333.191406 294.890625 330.613281 C 294.234375 328.027344 293.992188 326.535156 293.992188 326.535156 C 293.964844 326.289062 293.753906 326.089844 293.484375 326.0625 C 293.183594 326.042969 292.902344 326.28125 292.882812 326.582031 L 292.882812 326.589844 C 292.882812 326.589844 292.761719 328.160156 292.8125 330.902344 C 292.882812 333.636719 293.085938 337.578125 293.898438 342.269531 C 294.265625 344.640625 294.867188 347.171875 295.582031 349.851562 C 296.363281 352.511719 297.265625 355.332031 298.515625 358.167969 C 299.738281 361 301.191406 363.894531 303.019531 366.703125 C 304.769531 369.554688 306.957031 372.230469 309.3125 374.808594 C 310.5625 376.027344 311.742188 377.339844 313.117188 378.433594 L 315.132812 380.140625 C 315.238281 380.214844 315.34375 380.28125 315.449219 380.363281 C 315.382812 380.351562 315.320312 380.328125 315.253906 380.304688 C 311.027344 378.957031 306.035156 376.90625 300.859375 373.726562 C 295.65625 370.605469 290.339844 366.289062 285.542969 360.789062 C 280.757812 355.304688 276.585938 348.535156 273.835938 340.832031 C 272.472656 336.984375 271.433594 332.929688 270.839844 328.710938 L 270.621094 327.140625 L 270.472656 325.53125 L 270.335938 323.933594 L 270.285156 322.316406 C 270.21875 321.238281 270.238281 320.152344 270.238281 319.0625 L 270.253906 318.25 L 270.253906 318.125 L 270.261719 318.007812 L 270.285156 317.558594 L 270.382812 315.726562 C 270.699219 311.558594 271.578125 307.242188 272.992188 303.074219 C 274.414062 298.910156 276.398438 294.894531 278.828125 291.097656 C 283.757812 283.539062 290.625 277.027344 298.574219 272.261719 C 306.523438 267.503906 315.5 264.453125 324.523438 263.578125 L 326.210938 263.414062 L 327.894531 263.339844 C 329.023438 263.257812 330.148438 263.296875 331.261719 263.296875 L 331.894531 263.296875 C 331.886719 263.296875 331.863281 263.28125 331.855469 263.28125 L 332 263.296875 C 332.007812 263.296875 332.007812 263.296875 332.007812 263.296875 L 332.8125 263.347656 L 334.707031 263.484375 C 336.082031 263.527344 336.984375 263.707031 338.03125 263.816406 C 338.542969 263.898438 339.046875 263.917969 339.578125 264.019531 L 341.21875 264.332031 L 342.875 264.632812 L 344.492188 265.03125 C 345.574219 265.304688 346.65625 265.5625 347.722656 265.914062 C 348.800781 266.257812 349.867188 266.535156 350.929688 266.941406 C 355.175781 268.378906 359.328125 270.183594 363.375 272.191406 C 367.433594 274.167969 371.398438 276.320312 375.300781 278.488281 C 379.226562 280.605469 383.074219 282.757812 386.917969 284.75 C 390.769531 286.726562 394.59375 288.570312 398.386719 290.148438 C 402.214844 291.683594 405.996094 292.960938 409.671875 293.90625 C 410.613281 294.136719 411.539062 294.316406 412.441406 294.507812 C 412.898438 294.601562 413.355469 294.691406 413.804688 294.789062 C 414.257812 294.859375 414.703125 294.921875 415.148438 294.992188 C 416.046875 295.113281 416.9375 295.238281 417.800781 295.359375 C 418.6875 295.429688 419.546875 295.496094 420.390625 295.550781 C 420.816406 295.585938 421.238281 295.609375 421.667969 295.640625 L 422.902344 295.640625 C 423.726562 295.632812 424.539062 295.632812 425.335938 295.613281 C 426.914062 295.5625 428.4375 295.390625 429.886719 295.261719 C 431.3125 295.011719 432.691406 294.765625 434 294.535156 C 435.285156 294.207031 436.511719 293.902344 437.667969 293.601562 C 442.242188 292.246094 445.582031 290.652344 447.800781 289.503906 C 449.980469 288.300781 451.152344 287.667969 451.152344 287.667969 C 451.363281 287.539062 451.492188 287.277344 451.425781 287.027344 C 451.332031 286.726562 451.035156 286.546875 450.730469 286.636719 L 450.6875 286.652344 C 450.6875 286.652344 449.4375 286.996094 447.085938 287.652344 C 444.753906 288.300781 441.25 289.011719 436.863281 289.523438 C 432.480469 290 427.125 289.886719 421.308594 288.601562 C 420.585938 288.433594 419.847656 288.269531 419.097656 288.097656 C 419.015625 288.074219 418.929688 288.050781 418.839844 288.019531 C 419.015625 287.863281 419.199219 287.707031 419.371094 287.539062 C 419.789062 287.164062 420.3125 286.777344 420.824219 286.359375 C 421.351562 285.960938 421.878906 285.488281 422.484375 285.066406 C 424.855469 283.28125 427.878906 281.34375 431.527344 279.621094 C 433.359375 278.792969 435.328125 277.976562 437.445312 277.289062 C 438.503906 276.960938 439.585938 276.621094 440.722656 276.363281 C 441.84375 276.039062 443.007812 275.855469 444.195312 275.621094 C 446.574219 275.230469 449.046875 274.9375 451.609375 274.914062 C 452.898438 274.863281 454.199219 274.9375 455.515625 274.996094 C 456.867188 275.136719 458.253906 275.285156 459.628906 275.4375 L 460.757812 275.558594 L 461.703125 275.785156 C 462.320312 275.921875 462.945312 276.066406 463.585938 276.207031 C 464.808594 276.417969 466.148438 276.914062 467.472656 277.3125 C 468.132812 277.546875 468.828125 277.695312 469.472656 277.980469 C 470.101562 278.257812 470.765625 278.539062 471.410156 278.816406 C 472.058594 279.109375 472.726562 279.34375 473.359375 279.683594 C 473.984375 280.011719 474.605469 280.359375 475.246094 280.695312 C 475.871094 281.050781 476.53125 281.34375 477.136719 281.726562 C 477.738281 282.132812 478.339844 282.53125 478.941406 282.945312 C 479.535156 283.359375 480.179688 283.703125 480.738281 284.183594 L 482.429688 285.570312 C 483.609375 286.425781 484.640625 287.507812 485.699219 288.523438 C 486.828125 289.496094 487.691406 290.703125 488.683594 291.808594 L 489.414062 292.660156 L 490.046875 293.578125 L 491.355469 295.382812 C 491.820312 295.976562 492.167969 296.632812 492.550781 297.277344 L 493.671875 299.21875 C 494.386719 300.527344 494.933594 301.933594 495.585938 303.273438 L 497.121094 307.480469 C 497.453125 308.949219 497.867188 310.371094 498.167969 311.839844 C 498.355469 313.316406 498.636719 314.792969 498.785156 316.265625 L 498.90625 318.507812 L 498.980469 319.617188 L 499.015625 320.125 Z M 513.488281 320.144531 L 513.460938 319.410156 L 513.394531 317.925781 L 513.257812 314.949219 C 513.078125 312.957031 512.6875 310.996094 512.386719 309.023438 C 511.964844 307.070312 511.410156 305.152344 510.90625 303.210938 C 510.222656 301.335938 509.554688 299.449219 508.800781 297.601562 C 507.890625 295.824219 507.078125 294 506.078125 292.289062 L 504.507812 289.757812 C 503.980469 288.921875 503.476562 288.074219 502.84375 287.324219 L 501.046875 284.976562 L 500.132812 283.816406 L 499.128906 282.738281 C 497.753906 281.351562 496.496094 279.855469 494.988281 278.640625 C 493.527344 277.378906 492.113281 276.070312 490.503906 275.027344 C 489.722656 274.480469 488.941406 273.9375 488.171875 273.394531 C 487.40625 272.855469 486.546875 272.441406 485.730469 271.957031 C 484.917969 271.5 484.105469 271.046875 483.285156 270.589844 C 482.476562 270.136719 481.601562 269.808594 480.765625 269.417969 C 479.917969 269.046875 479.082031 268.679688 478.25 268.328125 C 477.398438 267.980469 476.519531 267.746094 475.667969 267.453125 C 474.804688 267.175781 473.953125 266.90625 473.105469 266.640625 C 472.253906 266.363281 471.367188 266.234375 470.507812 266.027344 C 468.78125 265.671875 467.125 265.257812 465.285156 265.132812 C 464.394531 265.046875 463.5 264.957031 462.621094 264.863281 L 461.304688 264.753906 L 460.175781 264.753906 C 459.433594 264.761719 458.679688 264.761719 457.9375 264.777344 L 456.828125 264.777344 L 456.273438 264.785156 L 455.882812 264.785156 L 455.726562 264.800781 L 455.421875 264.820312 C 453.824219 264.964844 452.257812 265.085938 450.730469 265.371094 C 449.1875 265.566406 447.710938 265.914062 446.257812 266.234375 C 444.820312 266.617188 443.414062 267.019531 442.0625 267.476562 C 436.664062 269.320312 432.105469 271.84375 428.457031 274.523438 C 424.796875 277.199219 422.03125 280.003906 420.003906 282.441406 C 418.441406 284.304688 417.28125 286.003906 416.433594 287.324219 C 416.199219 287.238281 415.953125 287.164062 415.703125 287.097656 C 415.328125 286.960938 414.953125 286.816406 414.570312 286.683594 C 413.804688 286.390625 413.035156 286.109375 412.25 285.824219 C 409.140625 284.5625 405.933594 283.015625 402.679688 281.191406 C 396.128906 277.535156 389.320312 272.816406 381.796875 267.761719 C 378.007812 265.265625 374.050781 262.695312 369.796875 260.203125 C 365.539062 257.738281 360.964844 255.382812 356.035156 253.375 C 354.832031 252.828125 353.546875 252.40625 352.273438 251.949219 C 351.019531 251.484375 349.703125 251.089844 348.386719 250.714844 L 346.402344 250.128906 L 344.371094 249.65625 L 342.324219 249.171875 C 341.632812 249.027344 340.875 248.917969 340.152344 248.789062 C 338.699219 248.554688 337.105469 248.269531 335.949219 248.1875 L 334.054688 248.015625 L 333.105469 247.921875 L 332.578125 247.886719 L 332.308594 247.878906 L 331.773438 247.863281 C 330.347656 247.8125 328.917969 247.75 327.480469 247.796875 L 325.328125 247.859375 L 323.179688 248 C 320.300781 248.1875 317.433594 248.601562 314.585938 249.152344 C 311.757812 249.75 308.929688 250.453125 306.175781 251.367188 C 300.664062 253.171875 295.289062 255.550781 290.339844 258.617188 C 285.382812 261.664062 280.722656 265.222656 276.578125 269.304688 C 272.457031 273.417969 268.8125 277.996094 265.78125 282.921875 C 262.765625 287.863281 260.472656 293.195312 258.855469 298.65625 C 257.214844 304.105469 256.410156 309.699219 256.335938 315.308594 L 256.335938 318.046875 L 256.34375 318.296875 L 256.386719 319.3125 C 256.453125 320.640625 256.507812 321.972656 256.664062 323.304688 L 256.890625 325.273438 L 257.191406 327.230469 L 257.515625 329.152344 L 257.914062 331.074219 C 259.011719 336.148438 260.628906 340.976562 262.695312 345.425781 C 266.796875 354.375 272.546875 361.792969 278.773438 367.445312 C 281.886719 370.265625 285.097656 372.703125 288.316406 374.71875 C 291.535156 376.75 294.722656 378.410156 297.835938 379.679688 C 299.363281 380.371094 300.90625 380.875 302.363281 381.425781 C 303.859375 381.890625 305.273438 382.359375 306.679688 382.679688 C 307.378906 382.863281 308.066406 383.027344 308.734375 383.191406 C 309.402344 383.328125 310.070312 383.464844 310.703125 383.585938 C 311.988281 383.859375 313.238281 384.019531 314.398438 384.199219 C 315.214844 384.3125 316.003906 384.402344 316.75 384.472656 C 316.773438 384.578125 316.785156 384.683594 316.8125 384.792969 C 317.304688 387.734375 317.691406 390.707031 317.90625 393.683594 C 318.148438 396.660156 318.214844 399.644531 318.035156 402.636719 C 317.871094 405.617188 317.433594 408.59375 316.5625 411.484375 L 316.5625 411.488281 C 316.488281 411.738281 316.59375 412.015625 316.832031 412.152344 C 317.097656 412.296875 317.441406 412.195312 317.585938 411.925781 C 319.105469 409.175781 320.207031 406.183594 321.042969 403.136719 C 321.886719 400.097656 322.472656 396.96875 322.894531 393.832031 C 323.261719 391.105469 323.511719 388.351562 323.644531 385.582031 C 323.667969 385.292969 323.675781 385.003906 323.691406 384.710938 C 323.699219 384.597656 323.714844 384.480469 323.714844 384.367188 C 323.734375 383.734375 323.757812 383.085938 323.765625 382.449219 C 323.789062 381.5 323.804688 380.554688 323.804688 379.605469 L 323.789062 378.011719 C 324.601562 377.550781 325.421875 377.109375 326.234375 376.65625 C 327.878906 375.824219 329.511719 374.90625 331.195312 374.132812 C 332.863281 373.3125 334.542969 372.5 336.25 371.777344 C 336.277344 371.753906 336.324219 371.738281 336.363281 371.71875 C 338.023438 370.960938 339.707031 370.28125 341.398438 369.597656 C 343.121094 368.875 344.882812 368.273438 346.632812 367.609375 C 348.394531 367.023438 350.152344 366.378906 351.941406 365.851562 C 352.410156 365.691406 352.890625 365.550781 353.371094 365.417969 C 354.6875 365.015625 356.003906 364.648438 357.328125 364.285156 C 359.140625 363.800781 360.953125 363.355469 362.785156 362.941406 L 365.523438 362.347656 L 368.292969 361.8125 C 370.140625 361.492188 372 361.167969 373.855469 360.933594 C 375.277344 360.730469 376.691406 360.558594 378.121094 360.421875 C 380.445312 360.167969 382.757812 359.988281 385.089844 359.867188 C 388.144531 359.707031 391.210938 359.671875 394.273438 359.761719 C 395.898438 360.972656 397.695312 362.105469 399.644531 363.105469 C 402.46875 364.59375 405.605469 365.867188 408.929688 366.84375 C 412.246094 367.851562 415.765625 368.558594 419.359375 369.003906 C 421.15625 369.226562 422.96875 369.355469 424.863281 369.453125 C 425.316406 369.476562 425.746094 369.484375 426.179688 369.492188 L 426.832031 369.507812 L 427.164062 369.515625 L 427.5625 369.515625 C 428.480469 369.5 429.40625 369.507812 430.324219 369.460938 C 432.164062 369.417969 434 369.257812 435.828125 369.046875 C 437.65625 368.832031 439.464844 368.566406 441.25 368.183594 C 443.03125 367.820312 444.789062 367.378906 446.515625 366.867188 C 447.390625 366.585938 448.257812 366.3125 449.125 366.011719 C 449.039062 366.671875 448.957031 367.324219 448.882812 367.980469 C 448.792969 368.84375 448.703125 369.6875 448.632812 370.542969 C 448.585938 371.109375 448.542969 371.664062 448.515625 372.207031 C 448.234375 376.222656 448.222656 380.261719 448.515625 384.269531 C 448.613281 385.402344 448.703125 386.539062 448.859375 387.683594 C 448.980469 388.816406 449.183594 389.945312 449.371094 391.074219 C 449.597656 392.191406 449.789062 393.320312 450.085938 394.425781 C 450.339844 395.539062 450.6875 396.640625 450.996094 397.726562 C 451.378906 398.8125 451.726562 399.894531 452.167969 400.941406 C 452.574219 402 453.085938 403.03125 453.566406 404.054688 C 454.109375 405.046875 454.613281 406.050781 455.234375 407.003906 C 455.808594 407.96875 456.5 408.875 457.148438 409.777344 C 457.296875 410 457.589844 410.078125 457.84375 409.957031 C 458.125 409.820312 458.234375 409.484375 458.101562 409.21875 L 458.082031 409.175781 C 457.605469 408.191406 457.085938 407.238281 456.695312 406.242188 C 456.253906 405.257812 455.925781 404.234375 455.574219 403.226562 C 455.289062 402.1875 454.964844 401.171875 454.757812 400.125 C 454.5 399.089844 454.339844 398.027344 454.15625 396.984375 C 454.035156 395.925781 453.875 394.871094 453.808594 393.808594 C 453.707031 392.765625 453.6875 391.699219 453.644531 390.636719 C 453.644531 389.578125 453.628906 388.515625 453.6875 387.453125 C 453.707031 386.398438 453.800781 385.335938 453.875 384.277344 C 454.191406 380.671875 454.777344 377.085938 455.597656 373.558594 C 455.65625 373.566406 455.726562 373.566406 455.785156 373.582031 C 456.851562 373.652344 457.960938 373.714844 459.109375 373.785156 C 461.394531 373.972656 463.816406 373.746094 466.410156 373.582031 C 467.695312 373.460938 469 373.183594 470.351562 372.964844 C 471.019531 372.847656 471.710938 372.75 472.402344 372.597656 C 473.074219 372.410156 473.75 372.207031 474.441406 372.015625 C 479.976562 370.507812 485.859375 367.933594 491.25 363.933594 C 496.671875 359.988281 501.679688 354.722656 505.539062 348.375 C 506.078125 347.601562 506.492188 346.765625 506.921875 345.933594 C 507.351562 345.09375 507.785156 344.257812 508.214844 343.421875 C 508.671875 342.582031 508.996094 341.6875 509.359375 340.8125 C 509.703125 339.921875 510.046875 339.027344 510.394531 338.132812 C 510.769531 337.246094 510.976562 336.292969 511.25 335.363281 C 511.507812 334.433594 511.753906 333.492188 512.011719 332.5625 C 512.296875 331.652344 512.410156 330.5625 512.597656 329.558594 C 512.777344 328.53125 512.945312 327.492188 513.097656 326.472656 L 513.191406 325.695312 L 513.222656 325.046875 L 513.304688 323.753906 L 513.449219 321.167969 L 513.472656 320.84375 L 513.472656 320.6875 L 513.492188 320.242188 L 513.488281 320.144531 " fill-opacity="1" fill-rule="nonzero"/><path fill="#f5ece6" d="M 562.488281 221.488281 L 562.042969 221.007812 C 560.796875 219.667969 558.710938 219.582031 557.351562 220.808594 L 498.816406 273.886719 C 498.84375 273.910156 498.875 273.9375 498.902344 273.960938 C 500.257812 275.058594 501.378906 276.25 502.375 277.304688 C 502.753906 277.710938 503.113281 278.09375 503.46875 278.449219 L 503.535156 278.515625 L 503.597656 278.585938 L 504.601562 279.664062 L 504.765625 279.835938 L 504.914062 280.023438 L 505.675781 280.988281 C 532.3125 260.808594 555.886719 233.847656 562.59375 225.925781 C 563.691406 224.632812 563.644531 222.726562 562.488281 221.488281 Z M 550.773438 208.902344 C 550.152344 208.234375 549.320312 207.875 548.46875 207.839844 C 547.621094 207.800781 546.765625 208.089844 546.082031 208.703125 L 484.605469 264.445312 C 485.117188 264.671875 485.671875 264.9375 486.265625 265.261719 L 487.003906 265.675781 C 487.578125 265.996094 488.152344 266.320312 488.730469 266.644531 L 488.773438 266.671875 L 488.820312 266.699219 C 489.023438 266.816406 489.257812 266.941406 489.503906 267.078125 C 490.160156 267.441406 490.910156 267.851562 491.695312 268.40625 C 491.996094 268.621094 492.300781 268.832031 492.605469 269.046875 L 550.636719 213.59375 C 551.960938 212.328125 552.023438 210.242188 550.773438 208.902344 Z M 539.507812 196.792969 C 538.882812 196.125 538.050781 195.765625 537.199219 195.734375 C 536.355469 195.699219 535.488281 195.980469 534.816406 196.597656 L 471.867188 253.667969 C 471.09375 254.367188 470.117188 254.695312 469.144531 254.648438 C 468.1875 254.609375 467.230469 254.199219 466.515625 253.4375 C 465.09375 251.910156 465.160156 249.519531 466.671875 248.078125 L 528.097656 189.382812 C 529.421875 188.121094 529.480469 186.027344 528.234375 184.691406 L 527.789062 184.207031 C 526.636719 182.96875 524.738281 182.785156 523.375 183.789062 C 512.480469 191.742188 467.492188 225.800781 447.070312 259.808594 C 447.929688 259.632812 448.839844 259.464844 449.789062 259.339844 C 451.382812 259.050781 452.914062 258.914062 454.390625 258.785156 L 454.878906 258.746094 L 454.925781 258.738281 L 454.96875 258.738281 L 455.207031 258.71875 L 455.304688 258.710938 L 455.59375 258.679688 L 456.234375 258.679688 L 456.746094 258.675781 L 456.792969 258.671875 L 457.875 258.671875 C 458.378906 258.664062 458.875 258.660156 459.378906 258.65625 C 459.625 258.65625 459.867188 258.652344 460.113281 258.652344 L 461.566406 258.652344 L 461.824219 258.671875 L 463.140625 258.785156 L 463.191406 258.789062 L 463.246094 258.796875 C 464.085938 258.882812 464.9375 258.96875 465.785156 259.046875 C 467.675781 259.183594 469.332031 259.535156 470.800781 259.851562 C 471.109375 259.917969 471.421875 259.980469 471.730469 260.046875 L 471.847656 260.066406 L 471.964844 260.097656 C 472.171875 260.148438 472.421875 260.203125 472.691406 260.257812 C 473.324219 260.390625 474.105469 260.554688 474.953125 260.824219 C 475.582031 261.023438 476.246094 261.234375 477.050781 261.488281 C 477.242188 261.011719 477.542969 260.566406 477.9375 260.1875 L 539.367188 201.488281 C 540.691406 200.226562 540.757812 198.136719 539.507812 196.792969 Z M 321.386719 426.875 L 321.367188 426.867188 L 321.34375 426.855469 C 320.832031 426.59375 320.351562 426.332031 319.898438 426.070312 L 319.753906 426.25 C 319.320312 426.769531 318.929688 427.277344 318.523438 427.789062 C 316.929688 429.84375 315.375 431.953125 313.855469 434.027344 C 312.335938 436.105469 310.84375 438.171875 309.351562 440.183594 C 308.609375 441.191406 307.855469 442.175781 307.105469 443.15625 C 306.351562 444.121094 305.59375 445.070312 304.816406 445.988281 C 304.054688 446.917969 303.261719 447.804688 302.488281 448.683594 C 301.691406 449.542969 300.921875 450.402344 300.109375 451.203125 C 299.324219 452.023438 298.492188 452.777344 297.695312 453.535156 C 296.878906 454.28125 296.050781 454.964844 295.234375 455.628906 C 291.941406 458.253906 288.738281 460.410156 285.679688 461.976562 C 284.164062 462.765625 282.679688 463.40625 281.269531 463.886719 C 279.851562 464.363281 278.496094 464.660156 277.25 464.765625 C 276.007812 464.871094 274.871094 464.785156 273.9375 464.515625 C 272.996094 464.257812 272.269531 463.847656 271.742188 463.449219 C 271.210938 463.0625 270.875 462.679688 270.65625 462.425781 C 270.476562 462.199219 270.371094 462.066406 270.347656 462.035156 C 270.375 462.058594 270.496094 462.179688 270.707031 462.382812 C 270.953125 462.605469 271.332031 462.925781 271.878906 463.246094 C 272.425781 463.570312 273.15625 463.867188 274.046875 464.007812 C 274.941406 464.152344 275.992188 464.136719 277.136719 463.925781 C 278.285156 463.714844 279.523438 463.300781 280.824219 462.734375 C 282.121094 462.171875 283.484375 461.441406 284.882812 460.566406 C 287.664062 458.800781 290.65625 456.539062 293.664062 453.796875 C 296.648438 451.0625 299.597656 447.804688 302.40625 444.070312 C 305.234375 440.351562 308.027344 436.246094 310.957031 431.972656 C 312.773438 429.308594 314.734375 426.589844 316.824219 423.929688 C 316.398438 423.5625 316.007812 423.1875 315.636719 422.792969 L 315.480469 422.621094 L 315.359375 422.46875 L 315.300781 422.402344 C 315.039062 422.113281 314.570312 421.574219 314.132812 420.804688 L 313.925781 420.457031 L 313.738281 420.140625 L 313.585938 419.800781 C 313.402344 419.390625 313.277344 419.019531 313.203125 418.792969 C 312.914062 417.980469 312.808594 417.285156 312.773438 416.726562 C 311.117188 415.316406 310.253906 413.207031 310.460938 411.046875 L 310.460938 410.582031 L 310.71875 409.714844 C 311.386719 407.503906 311.789062 405.078125 311.941406 402.300781 L 311.945312 402.285156 L 311.945312 402.273438 C 311.949219 402.222656 311.953125 402.167969 311.953125 402.117188 C 306.578125 406.132812 301.730469 409.480469 297.613281 411.957031 C 279.085938 423.117188 268.765625 433.472656 263.019531 441.265625 C 257.875 448.253906 258.390625 457.902344 264.3125 464.257812 C 267.269531 467.433594 271.152344 469.328125 275.195312 469.835938 C 279.253906 470.359375 283.484375 469.503906 287.152344 467.191406 C 295.335938 462.019531 306.402344 452.460938 318.855469 434.78125 C 320.308594 432.71875 322.019531 430.46875 323.953125 428.0625 C 323.046875 427.675781 322.191406 427.277344 321.386719 426.875 " fill-opacity="1" fill-rule="nonzero"/><path fill="#f5ece6" d="M 506.457031 440.617188 C 500.585938 432.644531 490.023438 422.046875 471.082031 410.636719 C 468.625 409.15625 465.910156 407.375 462.984375 405.332031 C 463.027344 405.414062 463.070312 405.496094 463.109375 405.582031 C 463.265625 405.882812 463.414062 406.183594 463.5625 406.492188 C 464.34375 408.054688 464.472656 409.894531 463.921875 411.558594 C 463.714844 412.179688 463.414062 412.765625 463.039062 413.292969 C 463.082031 413.519531 463.121094 413.738281 463.148438 413.949219 C 463.191406 414.1875 463.222656 414.433594 463.238281 414.683594 C 463.246094 414.769531 463.253906 414.878906 463.257812 414.996094 C 463.292969 415.46875 463.300781 415.730469 463.296875 416.027344 L 463.128906 422.054688 L 461.667969 422.035156 C 461.660156 422.054688 461.648438 422.082031 461.632812 422.101562 L 461.621094 422.132812 C 461.085938 423.105469 460.527344 423.808594 460.160156 424.273438 L 460.027344 424.441406 L 459.882812 424.597656 L 459.757812 424.738281 C 459.441406 425.089844 459.019531 425.558594 458.503906 426.003906 C 457.753906 426.679688 456.949219 427.296875 456.046875 427.882812 C 455.78125 428.054688 455.515625 428.21875 455.238281 428.382812 C 455.695312 429.03125 456.144531 429.679688 456.585938 430.328125 C 459.578125 434.707031 462.441406 438.898438 465.328125 442.707031 C 468.199219 446.523438 471.21875 449.855469 474.269531 452.652344 C 477.34375 455.457031 480.398438 457.777344 483.25 459.578125 C 484.683594 460.46875 486.070312 461.214844 487.402344 461.792969 C 488.730469 462.371094 489.996094 462.796875 491.171875 463.011719 C 492.34375 463.230469 493.414062 463.242188 494.328125 463.097656 C 495.246094 462.953125 495.992188 462.644531 496.550781 462.316406 C 497.109375 461.996094 497.496094 461.660156 497.746094 461.433594 C 497.996094 461.195312 498.117188 461.070312 498.117188 461.070312 C 498.117188 461.070312 498.011719 461.207031 497.796875 461.476562 C 497.574219 461.742188 497.230469 462.128906 496.6875 462.527344 C 496.152344 462.9375 495.402344 463.351562 494.445312 463.621094 C 493.484375 463.894531 492.324219 463.980469 491.054688 463.871094 C 489.78125 463.761719 488.398438 463.457031 486.945312 462.972656 C 485.5 462.480469 483.992188 461.824219 482.429688 461.019531 C 479.304688 459.414062 476.03125 457.207031 472.667969 454.527344 C 471.832031 453.851562 470.980469 453.148438 470.140625 452.386719 C 469.332031 451.609375 468.480469 450.84375 467.675781 450 C 466.84375 449.179688 466.054688 448.304688 465.238281 447.421875 C 464.453125 446.523438 463.640625 445.617188 462.863281 444.667969 C 462.066406 443.726562 461.292969 442.753906 460.519531 441.765625 C 459.753906 440.765625 458.984375 439.757812 458.222656 438.730469 C 456.699219 436.671875 455.171875 434.5625 453.621094 432.425781 C 453.050781 431.652344 452.476562 430.875 451.898438 430.09375 C 450.777344 430.585938 449.617188 431.035156 448.359375 431.46875 C 448.152344 431.539062 447.929688 431.613281 447.703125 431.691406 C 448.285156 432.476562 448.835938 433.238281 449.355469 433.976562 C 462.089844 452.054688 473.414062 461.839844 481.78125 467.125 C 485.535156 469.492188 489.855469 470.367188 494.007812 469.835938 C 498.148438 469.308594 502.113281 467.375 505.140625 464.125 C 511.1875 457.625 511.722656 447.757812 506.457031 440.617188 Z M 251.292969 278.191406 C 250.691406 277.832031 249.796875 277.324219 248.699219 276.617188 C 247.59375 275.910156 246.257812 275.050781 244.773438 273.996094 C 244.023438 273.472656 243.238281 272.898438 242.421875 272.292969 C 242.210938 272.136719 242.007812 271.980469 241.796875 271.828125 C 241.589844 271.660156 241.375 271.496094 241.160156 271.328125 C 240.738281 271 240.3125 270.65625 239.871094 270.316406 C 239.433594 269.96875 238.992188 269.613281 238.539062 269.246094 C 238.09375 268.867188 237.632812 268.480469 237.167969 268.085938 C 236.707031 267.679688 236.238281 267.277344 235.753906 266.867188 C 235.296875 266.4375 234.824219 266.007812 234.347656 265.566406 C 233.875 265.125 233.386719 264.683594 232.910156 264.21875 C 232.441406 263.742188 231.96875 263.265625 231.488281 262.785156 C 230.503906 261.835938 229.59375 260.78125 228.632812 259.734375 C 228.148438 259.222656 227.699219 258.65625 227.230469 258.109375 C 226.773438 257.546875 226.285156 257 225.847656 256.414062 C 225.402344 255.828125 224.949219 255.25 224.492188 254.664062 C 224.050781 254.066406 223.636719 253.445312 223.195312 252.832031 C 221.488281 250.363281 219.90625 247.738281 218.539062 244.976562 C 217.195312 242.214844 216.046875 239.339844 215.214844 236.410156 C 214.984375 235.679688 214.816406 234.941406 214.632812 234.210938 L 214.5 233.660156 L 214.46875 233.523438 L 214.445312 233.402344 L 214.429688 233.335938 L 214.382812 233.066406 C 214.316406 232.714844 214.25 232.359375 214.183594 232.011719 C 214.121094 231.652344 214.046875 231.332031 213.996094 230.9375 C 213.945312 230.554688 213.898438 230.175781 213.847656 229.808594 C 213.800781 229.429688 213.742188 229.050781 213.714844 228.683594 C 213.691406 228.316406 213.664062 227.949219 213.640625 227.589844 C 213.445312 224.6875 213.585938 221.867188 213.953125 219.242188 C 214.320312 216.613281 214.972656 214.1875 215.707031 212.023438 C 216.429688 209.84375 217.34375 207.945312 218.191406 206.308594 C 218.417969 205.902344 218.636719 205.515625 218.851562 205.140625 C 219.0625 204.765625 219.265625 204.40625 219.492188 204.074219 C 219.941406 203.410156 220.308594 202.785156 220.707031 202.257812 C 221.089844 201.726562 221.4375 201.253906 221.75 200.851562 C 222.070312 200.449219 222.359375 200.125 222.578125 199.851562 C 222.996094 199.371094 223.234375 199.085938 223.273438 199.042969 C 223.253906 199.078125 223.085938 199.410156 222.78125 199.992188 C 222.621094 200.300781 222.414062 200.675781 222.1875 201.121094 C 221.980469 201.585938 221.726562 202.109375 221.441406 202.683594 C 220.90625 203.859375 220.3125 205.308594 219.710938 206.976562 C 219.144531 208.664062 218.53125 210.566406 218.105469 212.691406 C 218.046875 212.953125 217.984375 213.21875 217.929688 213.488281 C 217.882812 213.757812 217.832031 214.035156 217.785156 214.3125 C 217.695312 214.871094 217.570312 215.421875 217.515625 216.003906 C 217.445312 216.578125 217.375 217.164062 217.304688 217.757812 C 217.257812 218.351562 217.214844 218.953125 217.167969 219.566406 C 217.035156 222.019531 217.105469 224.597656 217.429688 227.234375 C 217.472656 227.5625 217.511719 227.890625 217.554688 228.230469 C 217.601562 228.550781 217.664062 228.867188 217.722656 229.195312 C 217.777344 229.519531 217.832031 229.835938 217.890625 230.164062 C 217.910156 230.320312 217.949219 230.492188 217.992188 230.667969 L 218.113281 231.191406 C 218.191406 231.539062 218.277344 231.890625 218.355469 232.238281 L 218.433594 232.570312 L 218.4375 232.589844 L 218.4375 232.601562 L 218.441406 232.609375 L 218.46875 232.703125 L 218.617188 233.203125 C 218.800781 233.871094 218.96875 234.546875 219.203125 235.203125 C 220.054688 237.871094 221.121094 240.515625 222.390625 243.082031 C 223.636719 245.660156 225.113281 248.128906 226.652344 250.515625 C 227.046875 251.105469 227.421875 251.699219 227.828125 252.277344 C 228.234375 252.855469 228.640625 253.425781 229.039062 254 C 229.433594 254.578125 229.875 255.113281 230.289062 255.664062 C 230.714844 256.207031 231.105469 256.777344 231.539062 257.296875 C 232.402344 258.355469 233.226562 259.414062 234.097656 260.402344 C 234.523438 260.902344 234.945312 261.398438 235.359375 261.890625 C 235.796875 262.367188 236.21875 262.839844 236.640625 263.3125 C 237.0625 263.777344 237.476562 264.238281 237.886719 264.691406 C 238.304688 265.132812 238.722656 265.566406 239.125 265.996094 C 239.53125 266.421875 239.929688 266.847656 240.320312 267.261719 C 240.726562 267.675781 241.128906 268.074219 241.523438 268.46875 C 241.914062 268.867188 242.296875 269.257812 242.675781 269.632812 C 242.855469 269.816406 243.035156 270.007812 243.214844 270.183594 C 243.402344 270.367188 243.582031 270.542969 243.765625 270.722656 C 244.484375 271.429688 245.171875 272.09375 245.820312 272.71875 C 247.121094 273.972656 248.261719 275.058594 249.214844 275.945312 C 251.132812 277.710938 252.222656 278.714844 252.222656 278.714844 C 252.222656 278.714844 251.902344 278.542969 251.292969 278.191406 Z M 295.054688 206.851562 C 279.988281 191.800781 266.542969 185.496094 255.410156 183.675781 C 248.476562 182.542969 241.5 183.238281 235.050781 185.519531 C 228.609375 187.792969 222.699219 191.628906 217.917969 196.769531 C 208.351562 207.046875 204.292969 221.421875 207.546875 235.097656 C 210.15625 246.074219 217.40625 259.035156 233.5 272.980469 C 241.210938 279.664062 248.734375 284.839844 255.914062 288.816406 C 257.257812 285.648438 258.820312 282.613281 260.570312 279.742188 L 260.574219 279.730469 L 260.582031 279.722656 C 263.835938 274.433594 267.769531 269.476562 272.265625 264.984375 L 272.292969 264.957031 C 276.605469 260.710938 281.597656 256.832031 287.132812 253.425781 C 292.21875 250.273438 297.984375 247.628906 304.265625 245.574219 C 306.910156 244.691406 309.785156 243.929688 313.3125 243.183594 L 313.371094 243.167969 L 313.429688 243.15625 C 315.824219 242.699219 318.0625 242.355469 320.203125 242.132812 C 315.21875 231.179688 307.34375 219.136719 295.054688 206.851562 " fill-opacity="1" fill-rule="nonzero"/><g transform="matrix(1, 0, 0, 1, 240, 447)"><g clip-path="url(#1b49524224)"><g fill="#0071bc" fill-opacity="0.4"><g transform="translate(0.198697, 100.3787)"><g><path d="M 35.203125 -26.296875 L 27.53125 -18.109375 L 27.53125 0 L 7.25 0 L 7.25 -72.46875 L 27.53125 -72.46875 L 27.53125 -42.34375 L 55.59375 -72.46875 L 78.15625 -72.46875 L 48.546875 -40.375 L 79.703125 0 L 55.90625 0 Z M 35.203125 -26.296875 "/></g></g></g><g fill="#0071bc" fill-opacity="0.4"><g transform="translate(72.949468, 100.3787)"><g><path d="M 7.25 -72.46875 L 27.75 -72.46875 L 27.75 0 L 7.25 0 Z M 7.25 -72.46875 "/></g></g></g><g fill="#0071bc" fill-opacity="0.4"><g transform="translate(102.959732, 100.3787)"><g><path d="M 72.671875 0 L 72.46875 -38.40625 L 53.828125 -7.140625 L 44.71875 -7.140625 L 26.1875 -37.375 L 26.1875 0 L 7.25 0 L 7.25 -72.46875 L 24.125 -72.46875 L 49.578125 -30.640625 L 74.421875 -72.46875 L 91.296875 -72.46875 L 91.515625 0 Z M 72.671875 0 "/></g></g></g><g fill="#0071bc" fill-opacity="0.4"><g transform="translate(196.615065, 100.3787)"><g><path d="M 14.703125 -77.734375 C 18.078125 -77.734375 20.867188 -76.664062 23.078125 -74.53125 C 25.285156 -72.394531 26.390625 -69.597656 26.390625 -66.140625 C 26.390625 -64.554688 26.179688 -62.96875 25.765625 -61.375 C 25.359375 -59.789062 24.460938 -57.414062 23.078125 -54.25 L 16.453125 -39.125 L 4.140625 -39.125 L 9 -56 C 7.070312 -56.894531 5.570312 -58.222656 4.5 -59.984375 C 3.4375 -61.742188 2.90625 -63.796875 2.90625 -66.140625 C 2.90625 -69.597656 4.007812 -72.394531 6.21875 -74.53125 C 8.425781 -76.664062 11.253906 -77.734375 14.703125 -77.734375 Z M 14.703125 -77.734375 "/></g></g></g><g fill="#0071bc" fill-opacity="0.4"><g transform="translate(220.830009, 100.3787)"><g><path d="M 32.71875 1.453125 C 26.84375 1.453125 21.144531 0.726562 15.625 -0.71875 C 10.101562 -2.175781 5.617188 -4.109375 2.171875 -6.515625 L 8.90625 -21.640625 C 12.144531 -19.492188 15.90625 -17.765625 20.1875 -16.453125 C 24.46875 -15.148438 28.675781 -14.5 32.8125 -14.5 C 40.675781 -14.5 44.609375 -16.460938 44.609375 -20.390625 C 44.609375 -22.460938 43.488281 -24 41.25 -25 C 39.007812 -26 35.40625 -27.050781 30.4375 -28.15625 C 24.976562 -29.332031 20.421875 -30.59375 16.765625 -31.9375 C 13.109375 -33.28125 9.96875 -35.4375 7.34375 -38.40625 C 4.726562 -41.375 3.421875 -45.375 3.421875 -50.40625 C 3.421875 -54.820312 4.625 -58.804688 7.03125 -62.359375 C 9.445312 -65.921875 13.050781 -68.734375 17.84375 -70.796875 C 22.644531 -72.867188 28.53125 -73.90625 35.5 -73.90625 C 40.269531 -73.90625 44.960938 -73.367188 49.578125 -72.296875 C 54.203125 -71.234375 58.273438 -69.664062 61.796875 -67.59375 L 55.484375 -52.375 C 48.585938 -56.101562 41.894531 -57.96875 35.40625 -57.96875 C 31.332031 -57.96875 28.363281 -57.363281 26.5 -56.15625 C 24.632812 -54.945312 23.703125 -53.378906 23.703125 -51.453125 C 23.703125 -49.515625 24.804688 -48.0625 27.015625 -47.09375 C 29.222656 -46.132812 32.78125 -45.132812 37.6875 -44.09375 C 43.207031 -42.925781 47.773438 -41.664062 51.390625 -40.3125 C 55.015625 -38.96875 58.15625 -36.828125 60.8125 -33.890625 C 63.46875 -30.960938 64.796875 -26.984375 64.796875 -21.953125 C 64.796875 -17.597656 63.585938 -13.660156 61.171875 -10.140625 C 58.765625 -6.617188 55.144531 -3.804688 50.3125 -1.703125 C 45.476562 0.398438 39.613281 1.453125 32.71875 1.453125 Z M 32.71875 1.453125 "/></g></g></g><g fill="#f5ece6" fill-opacity="1"><g transform="translate(0.198697, 100.3787)"><g><path d="M 35.203125 -26.296875 L 27.53125 -18.109375 L 27.53125 0 L 7.25 0 L 7.25 -72.46875 L 27.53125 -72.46875 L 27.53125 -42.34375 L 55.59375 -72.46875 L 78.15625 -72.46875 L 48.546875 -40.375 L 79.703125 0 L 55.90625 0 Z M 35.203125 -26.296875 "/></g></g></g><g fill="#f5ece6" fill-opacity="1"><g transform="translate(72.949468, 100.3787)"><g><path d="M 7.25 -72.46875 L 27.75 -72.46875 L 27.75 0 L 7.25 0 Z M 7.25 -72.46875 "/></g></g></g><g fill="#f5ece6" fill-opacity="1"><g transform="translate(102.959732, 100.3787)"><g><path d="M 72.671875 0 L 72.46875 -38.40625 L 53.828125 -7.140625 L 44.71875 -7.140625 L 26.1875 -37.375 L 26.1875 0 L 7.25 0 L 7.25 -72.46875 L 24.125 -72.46875 L 49.578125 -30.640625 L 74.421875 -72.46875 L 91.296875 -72.46875 L 91.515625 0 Z M 72.671875 0 "/></g></g></g><g fill="#f5ece6" fill-opacity="1"><g transform="translate(196.615065, 100.3787)"><g><path d="M 14.703125 -77.734375 C 18.078125 -77.734375 20.867188 -76.664062 23.078125 -74.53125 C 25.285156 -72.394531 26.390625 -69.597656 26.390625 -66.140625 C 26.390625 -64.554688 26.179688 -62.96875 25.765625 -61.375 C 25.359375 -59.789062 24.460938 -57.414062 23.078125 -54.25 L 16.453125 -39.125 L 4.140625 -39.125 L 9 -56 C 7.070312 -56.894531 5.570312 -58.222656 4.5 -59.984375 C 3.4375 -61.742188 2.90625 -63.796875 2.90625 -66.140625 C 2.90625 -69.597656 4.007812 -72.394531 6.21875 -74.53125 C 8.425781 -76.664062 11.253906 -77.734375 14.703125 -77.734375 Z M 14.703125 -77.734375 "/></g></g></g><g fill="#f5ece6" fill-opacity="1"><g transform="translate(220.830009, 100.3787)"><g><path d="M 32.71875 1.453125 C 26.84375 1.453125 21.144531 0.726562 15.625 -0.71875 C 10.101562 -2.175781 5.617188 -4.109375 2.171875 -6.515625 L 8.90625 -21.640625 C 12.144531 -19.492188 15.90625 -17.765625 20.1875 -16.453125 C 24.46875 -15.148438 28.675781 -14.5 32.8125 -14.5 C 40.675781 -14.5 44.609375 -16.460938 44.609375 -20.390625 C 44.609375 -22.460938 43.488281 -24 41.25 -25 C 39.007812 -26 35.40625 -27.050781 30.4375 -28.15625 C 24.976562 -29.332031 20.421875 -30.59375 16.765625 -31.9375 C 13.109375 -33.28125 9.96875 -35.4375 7.34375 -38.40625 C 4.726562 -41.375 3.421875 -45.375 3.421875 -50.40625 C 3.421875 -54.820312 4.625 -58.804688 7.03125 -62.359375 C 9.445312 -65.921875 13.050781 -68.734375 17.84375 -70.796875 C 22.644531 -72.867188 28.53125 -73.90625 35.5 -73.90625 C 40.269531 -73.90625 44.960938 -73.367188 49.578125 -72.296875 C 54.203125 -71.234375 58.273438 -69.664062 61.796875 -67.59375 L 55.484375 -52.375 C 48.585938 -56.101562 41.894531 -57.96875 35.40625 -57.96875 C 31.332031 -57.96875 28.363281 -57.363281 26.5 -56.15625 C 24.632812 -54.945312 23.703125 -53.378906 23.703125 -51.453125 C 23.703125 -49.515625 24.804688 -48.0625 27.015625 -47.09375 C 29.222656 -46.132812 32.78125 -45.132812 37.6875 -44.09375 C 43.207031 -42.925781 47.773438 -41.664062 51.390625 -40.3125 C 55.015625 -38.96875 58.15625 -36.828125 60.8125 -33.890625 C 63.46875 -30.960938 64.796875 -26.984375 64.796875 -21.953125 C 64.796875 -17.597656 63.585938 -13.660156 61.171875 -10.140625 C 58.765625 -6.617188 55.144531 -3.804688 50.3125 -1.703125 C 45.476562 0.398438 39.613281 1.453125 32.71875 1.453125 Z M 32.71875 1.453125 "/></g></g></g></g></g><g transform="matrix(1, 0, 0, 1, 281, 556)"><g clip-path="url(#e1579fd6d5)"><g fill="#f5ece6" fill-opacity="1"><g transform="translate(1.385746, 19.914697)"><g><path d="M 12.171875 0 L 8.046875 -6.46875 C 7.921875 -6.457031 7.726562 -6.453125 7.46875 -6.453125 L 4.875 -6.453125 L 4.875 0 L 2.515625 0 L 2.515625 -17.53125 L 7.203125 -17.53125 C 8.398438 -17.53125 9.46875 -17.316406 10.40625 -16.890625 C 11.34375 -16.472656 12.078125 -15.859375 12.609375 -15.046875 C 13.140625 -14.234375 13.40625 -13.25 13.40625 -12.09375 C 13.40625 -11.007812 13.164062 -10.015625 12.6875 -9.109375 C 12.21875 -8.210938 11.488281 -7.53125 10.5 -7.0625 L 14.90625 0 Z M 7.421875 -8.734375 C 8.679688 -8.734375 9.585938 -9.0625 10.140625 -9.71875 C 10.703125 -10.382812 10.984375 -11.144531 10.984375 -12 C 10.984375 -12.519531 10.863281 -13.03125 10.625 -13.53125 C 10.394531 -14.03125 10.023438 -14.445312 9.515625 -14.78125 C 9.003906 -15.113281 8.363281 -15.28125 7.59375 -15.28125 L 4.875 -15.28125 L 4.875 -8.734375 Z M 7.421875 -8.734375 "/></g></g></g><g fill="#f5ece6" fill-opacity="1"><g transform="translate(21.941039, 19.914697)"><g><path d="M 13.921875 -17.53125 L 13.921875 -15.28125 L 4.875 -15.28125 L 4.875 -9.9375 L 12.953125 -9.9375 L 12.953125 -7.6875 L 4.875 -7.6875 L 4.875 -2.28125 L 14.265625 -2.28125 L 14.265625 0 L 2.515625 0 L 2.515625 -17.53125 Z M 13.921875 -17.53125 "/></g></g></g><g fill="#f5ece6" fill-opacity="1"><g transform="translate(42.326689, 19.914697)"><g><path d="M 11.59375 -14.40625 C 10.957031 -14.738281 10.285156 -15.007812 9.578125 -15.21875 C 8.867188 -15.4375 8.195312 -15.546875 7.5625 -15.546875 C 6.613281 -15.546875 5.859375 -15.332031 5.296875 -14.90625 C 4.742188 -14.476562 4.46875 -13.890625 4.46875 -13.140625 C 4.46875 -12.410156 4.789062 -11.816406 5.4375 -11.359375 C 6.09375 -10.898438 7.03125 -10.441406 8.25 -9.984375 C 9.15625 -9.660156 9.914062 -9.304688 10.53125 -8.921875 C 11.15625 -8.546875 11.671875 -8.023438 12.078125 -7.359375 C 12.492188 -6.691406 12.703125 -5.835938 12.703125 -4.796875 C 12.703125 -3.859375 12.46875 -3.007812 12 -2.25 C 11.53125 -1.488281 10.863281 -0.890625 10 -0.453125 C 9.132812 -0.0234375 8.117188 0.1875 6.953125 0.1875 C 5.867188 0.1875 4.828125 0.015625 3.828125 -0.328125 C 2.828125 -0.671875 1.945312 -1.113281 1.1875 -1.65625 L 2.234375 -3.515625 C 2.828125 -3.066406 3.546875 -2.679688 4.390625 -2.359375 C 5.234375 -2.046875 6.015625 -1.890625 6.734375 -1.890625 C 7.671875 -1.890625 8.488281 -2.128906 9.1875 -2.609375 C 9.894531 -3.097656 10.25 -3.820312 10.25 -4.78125 C 10.25 -5.582031 9.953125 -6.222656 9.359375 -6.703125 C 8.773438 -7.179688 7.953125 -7.628906 6.890625 -8.046875 C 5.898438 -8.421875 5.078125 -8.785156 4.421875 -9.140625 C 3.765625 -9.492188 3.203125 -9.984375 2.734375 -10.609375 C 2.265625 -11.234375 2.03125 -12.015625 2.03125 -12.953125 C 2.03125 -14.328125 2.507812 -15.4375 3.46875 -16.28125 C 4.4375 -17.132812 5.6875 -17.582031 7.21875 -17.625 C 9.113281 -17.625 10.867188 -17.15625 12.484375 -16.21875 Z M 11.59375 -14.40625 "/></g></g></g><g fill="#f5ece6" fill-opacity="1"><g transform="translate(60.991575, 19.914697)"><g><path d="M 12.875 -17.53125 L 12.875 -15.28125 L 8.171875 -15.28125 L 8.171875 0 L 5.8125 0 L 5.8125 -15.28125 L 1.234375 -15.28125 L 1.234375 -17.53125 Z M 12.875 -17.53125 "/></g></g></g><g fill="#f5ece6" fill-opacity="1"><g transform="translate(79.65646, 19.914697)"><g><path d="M 11.71875 -4.609375 L 4.96875 -4.609375 L 3.109375 0 L 0.78125 0 L 8.4375 -18.265625 L 8.578125 -18.265625 L 16.25 0 L 13.53125 0 Z M 10.90625 -6.640625 L 8.421875 -13.046875 L 5.8125 -6.640625 Z M 10.90625 -6.640625 "/></g></g></g><g fill="#f5ece6" fill-opacity="1"><g transform="translate(101.205422, 19.914697)"><g><path d="M 4.65625 -6.203125 C 4.65625 -5.429688 4.835938 -4.734375 5.203125 -4.109375 C 5.578125 -3.484375 6.082031 -2.988281 6.71875 -2.625 C 7.363281 -2.257812 8.070312 -2.078125 8.84375 -2.078125 C 9.65625 -2.078125 10.390625 -2.253906 11.046875 -2.609375 C 11.703125 -2.972656 12.210938 -3.46875 12.578125 -4.09375 C 12.953125 -4.726562 13.140625 -5.429688 13.140625 -6.203125 L 13.140625 -17.53125 L 15.453125 -17.53125 L 15.453125 -6.140625 C 15.453125 -4.890625 15.160156 -3.78125 14.578125 -2.8125 C 13.992188 -1.851562 13.195312 -1.113281 12.1875 -0.59375 C 11.1875 -0.0703125 10.070312 0.1875 8.84375 0.1875 C 7.632812 0.1875 6.53125 -0.0703125 5.53125 -0.59375 C 4.53125 -1.113281 3.738281 -1.851562 3.15625 -2.8125 C 2.582031 -3.78125 2.296875 -4.890625 2.296875 -6.140625 L 2.296875 -17.53125 L 4.65625 -17.53125 Z M 4.65625 -6.203125 "/></g></g></g><g fill="#f5ece6" fill-opacity="1"><g transform="translate(123.505694, 19.914697)"><g><path d="M 12.171875 0 L 8.046875 -6.46875 C 7.921875 -6.457031 7.726562 -6.453125 7.46875 -6.453125 L 4.875 -6.453125 L 4.875 0 L 2.515625 0 L 2.515625 -17.53125 L 7.203125 -17.53125 C 8.398438 -17.53125 9.46875 -17.316406 10.40625 -16.890625 C 11.34375 -16.472656 12.078125 -15.859375 12.609375 -15.046875 C 13.140625 -14.234375 13.40625 -13.25 13.40625 -12.09375 C 13.40625 -11.007812 13.164062 -10.015625 12.6875 -9.109375 C 12.21875 -8.210938 11.488281 -7.53125 10.5 -7.0625 L 14.90625 0 Z M 7.421875 -8.734375 C 8.679688 -8.734375 9.585938 -9.0625 10.140625 -9.71875 C 10.703125 -10.382812 10.984375 -11.144531 10.984375 -12 C 10.984375 -12.519531 10.863281 -13.03125 10.625 -13.53125 C 10.394531 -14.03125 10.023438 -14.445312 9.515625 -14.78125 C 9.003906 -15.113281 8.363281 -15.28125 7.59375 -15.28125 L 4.875 -15.28125 L 4.875 -8.734375 Z M 7.421875 -8.734375 "/></g></g></g><g fill="#f5ece6" fill-opacity="1"><g transform="translate(144.060987, 19.914697)"><g><path d="M 11.71875 -4.609375 L 4.96875 -4.609375 L 3.109375 0 L 0.78125 0 L 8.4375 -18.265625 L 8.578125 -18.265625 L 16.25 0 L 13.53125 0 Z M 10.90625 -6.640625 L 8.421875 -13.046875 L 5.8125 -6.640625 Z M 10.90625 -6.640625 "/></g></g></g><g fill="#f5ece6" fill-opacity="1"><g transform="translate(165.609948, 19.914697)"><g><path d="M 17.796875 -17.53125 L 17.796875 0.578125 L 17.734375 0.578125 L 4.84375 -12.484375 L 4.90625 0 L 2.515625 0 L 2.515625 -18.0625 L 2.640625 -18.0625 L 15.5 -4.84375 L 15.453125 -17.53125 Z M 17.796875 -17.53125 "/></g></g></g><g fill="#f5ece6" fill-opacity="1"><g transform="translate(190.479225, 19.914697)"><g><path d="M 12.875 -17.53125 L 12.875 -15.28125 L 8.171875 -15.28125 L 8.171875 0 L 5.8125 0 L 5.8125 -15.28125 L 1.234375 -15.28125 L 1.234375 -17.53125 Z M 12.875 -17.53125 "/></g></g></g></g></g></svg>